{"glyphs":{"0":{"ha":1263,"x_min":64,"x_max":1199,"o":"m 632 -21 q 330 47 457 -21 q 133 236 203 114 q 64 521 64 358 q 133 806 64 683 q 330 995 203 928 q 632 1063 457 1063 q 933 995 806 1063 q 1129 806 1060 928 q 1199 521 1199 683 q 1129 236 1199 358 q 933 47 1060 114 q 632 -21 806 -21 m 632 171 q 876 263 789 171 q 963 521 963 356 q 876 779 963 688 q 632 871 789 871 q 388 779 475 871 q 300 521 300 688 q 388 263 300 354 q 632 171 475 171 z "},"1":{"ha":688,"x_min":15,"x_max":575,"o":"m 575 1042 l 575 0 l 342 0 l 342 964 l 458 858 l 15 781 l 15 964 l 401 1042 l 575 1042 z "},"2":{"ha":1128,"x_min":53,"x_max":1068,"o":"m 53 675 q 131 881 61 794 q 315 1015 200 968 q 575 1063 429 1063 q 818 1020 714 1063 q 981 901 922 978 q 1039 724 1039 825 q 999 579 1039 646 q 870 445 958 513 q 636 300 782 378 l 321 126 l 303 190 l 1068 190 l 1068 0 l 68 0 l 68 167 l 514 428 q 688 538 625 492 q 776 625 750 585 q 803 711 803 665 q 776 797 803 760 q 698 856 750 835 q 567 876 646 876 q 414 849 474 876 q 324 776 354 822 q 289 675 294 731 l 53 675 z "},"3":{"ha":1140,"x_min":44,"x_max":1075,"o":"m 72 713 q 142 890 81 811 q 318 1016 204 969 q 592 1063 432 1063 q 835 1026 732 1063 q 994 926 938 990 q 1051 775 1051 863 q 1009 647 1051 704 q 878 555 967 589 q 653 522 789 521 l 653 549 q 878 528 785 556 q 1024 444 972 501 q 1075 301 1075 388 q 1016 135 1075 208 q 844 21 957 63 q 571 -21 732 -21 q 297 24 414 -21 q 115 149 181 68 q 44 338 50 229 l 281 338 q 364 210 292 254 q 571 165 436 165 q 768 206 701 165 q 835 318 835 246 q 813 390 835 361 q 737 434 790 419 q 592 449 683 449 l 408 449 l 408 614 l 592 614 q 763 650 711 614 q 814 743 814 686 q 756 842 814 807 q 579 876 697 876 q 390 834 458 876 q 308 713 322 792 l 72 713 z "},"4":{"ha":1156,"x_min":33,"x_max":1113,"o":"m 935 1042 l 935 0 l 701 0 l 701 940 l 782 940 l 213 310 l 210 388 l 1113 388 l 1113 207 l 33 207 l 33 374 l 636 1042 l 935 1042 z "},"5":{"ha":1099,"x_min":44,"x_max":1044,"o":"m 174 1042 l 963 1042 l 963 861 l 246 861 l 342 910 l 283 503 l 221 503 q 306 596 253 553 q 438 665 360 639 q 617 692 515 692 q 847 647 751 692 q 994 523 943 601 q 1044 344 1044 444 q 985 156 1044 238 q 815 26 925 74 q 554 -21 706 -21 q 293 23 404 -21 q 119 143 182 67 q 44 313 56 219 l 279 313 q 367 205 296 244 q 554 165 438 165 q 689 187 632 165 q 777 249 746 208 q 808 344 808 289 q 781 440 808 399 q 701 503 754 481 q 565 525 647 525 q 445 510 499 525 q 353 470 392 494 q 289 419 315 446 l 88 419 l 174 1042 z "},"6":{"ha":1168,"x_min":65,"x_max":1107,"o":"m 613 1063 q 843 1024 743 1063 q 1006 917 943 985 q 1083 764 1069 850 l 860 764 q 783 848 839 814 q 619 882 728 882 q 432 840 506 882 q 324 719 358 797 q 289 529 289 640 q 328 328 289 411 q 442 203 367 246 q 628 161 518 161 q 761 183 707 161 q 843 244 815 206 q 871 332 871 283 q 846 416 871 379 q 769 474 821 453 q 640 494 718 494 q 443 446 535 494 q 283 313 351 397 l 196 374 q 311 528 240 460 q 478 635 382 596 q 693 675 574 675 q 913 633 819 675 q 1056 516 1006 592 q 1107 339 1107 440 q 1049 152 1107 233 q 884 25 992 71 q 625 -21 776 -21 q 315 48 440 -21 q 128 240 190 117 q 65 521 65 363 q 128 801 65 679 q 313 993 190 924 q 613 1063 435 1063 z "},"7":{"ha":1011,"x_min":15,"x_max":974,"o":"m 185 0 l 761 918 l 760 851 l 15 851 l 15 1042 l 974 1042 l 974 853 l 447 0 l 185 0 z "},"8":{"ha":1213,"x_min":64,"x_max":1149,"o":"m 607 1063 q 982 986 851 1063 q 1113 771 1113 910 q 996 582 1113 647 q 671 522 879 517 l 671 551 q 1024 498 899 567 q 1149 288 1149 429 q 1009 59 1149 139 q 607 -21 869 -21 q 204 59 344 -21 q 64 288 64 139 q 190 498 64 429 q 542 551 315 567 l 542 522 q 217 582 335 517 q 100 771 100 647 q 231 986 100 910 q 607 1063 363 1063 m 607 163 q 833 199 756 163 q 911 306 911 235 q 833 412 911 378 q 607 446 756 446 q 380 412 458 446 q 301 306 301 378 q 380 199 301 235 q 607 163 458 163 m 607 618 q 754 632 693 618 q 847 676 815 646 q 878 749 878 706 q 808 846 878 813 q 607 879 738 879 q 406 846 476 879 q 335 749 335 813 q 366 676 335 706 q 458 632 397 646 q 607 618 519 618 z "},"9":{"ha":1168,"x_min":61,"x_max":1104,"o":"m 554 -21 q 326 18 426 -21 q 163 125 225 57 q 85 278 100 193 l 308 278 q 385 194 329 228 q 549 160 440 160 q 736 202 664 160 q 843 324 808 244 q 878 513 878 403 q 840 714 878 632 q 726 838 801 796 q 540 881 650 881 q 407 858 461 881 q 325 798 353 836 q 297 710 297 760 q 322 626 297 663 q 399 568 347 589 q 528 547 451 547 q 725 596 633 547 q 883 729 817 644 l 972 668 q 858 514 929 582 q 690 406 786 446 q 475 367 594 367 q 256 408 349 367 q 112 526 163 450 q 61 703 61 601 q 119 890 61 808 q 285 1017 176 971 q 543 1063 393 1063 q 853 994 728 1063 q 1041 803 978 925 q 1103 521 1104 681 q 1041 240 1104 363 q 856 49 978 118 q 554 -21 733 -21 z "},"A":{"ha":1289,"x_min":6,"x_max":1283,"o":"m 278 219 l 278 411 l 1000 411 l 1000 219 l 278 219 m 796 1042 l 1283 0 l 1032 0 l 606 946 l 683 946 l 257 0 l 6 0 l 493 1042 l 796 1042 z "},"Á":{"ha":1289,"x_min":6,"x_max":1283,"o":"m 278 219 l 278 411 l 1000 411 l 1000 219 l 278 219 m 796 1042 l 1283 0 l 1032 0 l 606 946 l 683 946 l 257 0 l 6 0 l 493 1042 l 796 1042 m 700 1346 l 968 1346 l 733 1122 l 496 1122 l 700 1346 z "},"Ă":{"ha":1289,"x_min":6,"x_max":1283,"o":"m 278 219 l 278 411 l 1000 411 l 1000 219 l 278 219 m 796 1042 l 1283 0 l 1032 0 l 606 946 l 683 946 l 257 0 l 6 0 l 493 1042 l 796 1042 m 318 1350 l 499 1350 q 553 1283 517 1306 q 644 1260 589 1260 q 736 1283 700 1260 q 790 1350 772 1306 l 971 1350 q 854 1173 940 1232 q 644 1114 768 1114 q 435 1173 522 1114 q 318 1350 349 1232 z "},"Ắ":{"ha":1289,"x_min":6,"x_max":1283,"o":"m 278 219 l 278 411 l 1000 411 l 1000 219 l 278 219 m 796 1042 l 1283 0 l 1032 0 l 606 946 l 683 946 l 257 0 l 6 0 l 493 1042 l 796 1042 m 664 1576 l 881 1576 l 724 1369 l 542 1369 l 664 1576 m 318 1350 l 497 1350 q 552 1283 517 1306 q 643 1260 588 1260 q 735 1283 699 1260 q 790 1350 771 1306 l 969 1350 q 853 1173 940 1232 q 643 1114 767 1114 q 434 1173 521 1114 q 318 1350 347 1232 z "},"Ặ":{"ha":1289,"x_min":6,"x_max":1283,"o":"m 278 219 l 278 411 l 1000 411 l 1000 219 l 278 219 m 796 1042 l 1283 0 l 1032 0 l 606 946 l 683 946 l 257 0 l 6 0 l 493 1042 l 796 1042 m 644 -314 q 542 -281 582 -314 q 503 -194 503 -249 q 542 -106 503 -139 q 644 -74 582 -74 q 747 -106 708 -74 q 786 -194 786 -139 q 747 -281 786 -249 q 644 -314 708 -314 m 318 1350 l 499 1350 q 553 1283 517 1306 q 644 1260 589 1260 q 736 1283 700 1260 q 790 1350 772 1306 l 971 1350 q 854 1173 940 1232 q 644 1114 768 1114 q 435 1173 522 1114 q 318 1350 349 1232 z "},"Ằ":{"ha":1289,"x_min":6,"x_max":1283,"o":"m 278 219 l 278 411 l 1000 411 l 1000 219 l 278 219 m 796 1042 l 1283 0 l 1032 0 l 606 946 l 683 946 l 257 0 l 6 0 l 493 1042 l 796 1042 m 608 1576 l 731 1369 l 549 1369 l 392 1576 l 608 1576 m 318 1350 l 497 1350 q 552 1283 517 1306 q 643 1260 588 1260 q 735 1283 699 1260 q 790 1350 771 1306 l 969 1350 q 853 1173 940 1232 q 643 1114 767 1114 q 434 1173 521 1114 q 318 1350 347 1232 z "},"Ẳ":{"ha":1289,"x_min":6,"x_max":1283,"o":"m 278 219 l 278 411 l 1000 411 l 1000 219 l 278 219 m 796 1042 l 1283 0 l 1032 0 l 606 946 l 683 946 l 257 0 l 6 0 l 493 1042 l 796 1042 m 626 1350 l 582 1414 q 646 1446 626 1429 q 665 1479 665 1463 q 583 1524 665 1524 q 542 1521 564 1524 q 497 1513 519 1518 l 497 1636 q 560 1649 522 1643 q 642 1654 597 1654 q 798 1619 742 1654 q 854 1522 854 1585 q 798 1419 854 1463 q 626 1350 742 1376 m 318 1350 l 497 1350 q 552 1283 517 1306 q 643 1260 588 1260 q 735 1283 699 1260 q 790 1350 771 1306 l 969 1350 q 853 1173 940 1232 q 643 1114 767 1114 q 434 1173 521 1114 q 318 1350 347 1232 z "},"Ẵ":{"ha":1289,"x_min":6,"x_max":1283,"o":"m 278 219 l 278 411 l 1000 411 l 1000 219 l 278 219 m 796 1042 l 1283 0 l 1032 0 l 606 946 l 683 946 l 257 0 l 6 0 l 493 1042 l 796 1042 m 342 1397 q 393 1553 347 1493 q 519 1613 439 1613 q 591 1602 560 1613 q 648 1578 622 1592 q 695 1553 674 1564 q 738 1542 717 1542 q 780 1560 764 1542 q 801 1611 796 1578 l 944 1611 q 894 1454 939 1513 q 767 1396 849 1396 q 695 1407 726 1396 q 638 1432 664 1418 q 591 1456 613 1446 q 549 1467 569 1467 q 507 1449 522 1467 q 485 1397 492 1431 l 342 1397 m 318 1350 l 497 1350 q 552 1283 517 1306 q 643 1260 588 1260 q 735 1283 699 1260 q 790 1350 771 1306 l 969 1350 q 853 1173 940 1232 q 643 1114 767 1114 q 434 1173 521 1114 q 318 1350 347 1232 z "},"Ǎ":{"ha":1289,"x_min":6,"x_max":1283,"o":"m 278 219 l 278 411 l 1000 411 l 1000 219 l 278 219 m 796 1042 l 1283 0 l 1032 0 l 606 946 l 683 946 l 257 0 l 6 0 l 493 1042 l 796 1042 m 771 1122 l 519 1122 l 311 1344 l 510 1344 l 697 1200 l 593 1200 l 781 1344 l 978 1344 l 771 1122 z "},"Â":{"ha":1289,"x_min":6,"x_max":1283,"o":"m 278 219 l 278 411 l 1000 411 l 1000 219 l 278 219 m 796 1042 l 1283 0 l 1032 0 l 606 946 l 683 946 l 257 0 l 6 0 l 493 1042 l 796 1042 m 518 1346 l 769 1346 l 978 1122 l 779 1122 l 592 1267 l 696 1267 l 508 1122 l 311 1122 l 518 1346 z "},"Ấ":{"ha":1289,"x_min":6,"x_max":1283,"o":"m 278 219 l 278 411 l 1000 411 l 1000 219 l 278 219 m 796 1042 l 1283 0 l 1032 0 l 606 946 l 683 946 l 257 0 l 6 0 l 493 1042 l 796 1042 m 974 1507 l 1189 1507 l 1033 1301 l 851 1301 l 974 1507 m 519 1346 l 769 1346 l 979 1122 l 779 1122 l 592 1267 l 697 1267 l 510 1122 l 311 1122 l 519 1346 z "},"Ậ":{"ha":1289,"x_min":6,"x_max":1283,"o":"m 278 219 l 278 411 l 1000 411 l 1000 219 l 278 219 m 796 1042 l 1283 0 l 1032 0 l 606 946 l 683 946 l 257 0 l 6 0 l 493 1042 l 796 1042 m 644 -314 q 542 -281 582 -314 q 503 -194 503 -249 q 542 -106 503 -139 q 644 -74 582 -74 q 747 -106 708 -74 q 786 -194 786 -139 q 747 -281 786 -249 q 644 -314 708 -314 m 518 1346 l 769 1346 l 978 1122 l 779 1122 l 592 1267 l 696 1267 l 508 1122 l 311 1122 l 518 1346 z "},"Ầ":{"ha":1289,"x_min":6,"x_max":1283,"o":"m 278 219 l 278 411 l 1000 411 l 1000 219 l 278 219 m 796 1042 l 1283 0 l 1032 0 l 606 946 l 683 946 l 257 0 l 6 0 l 493 1042 l 796 1042 m 940 1507 l 1063 1301 l 881 1301 l 725 1507 l 940 1507 m 519 1346 l 769 1346 l 979 1122 l 779 1122 l 592 1267 l 697 1267 l 510 1122 l 311 1122 l 519 1346 z "},"Ẩ":{"ha":1289,"x_min":6,"x_max":1283,"o":"m 278 219 l 278 411 l 1000 411 l 1000 219 l 278 219 m 796 1042 l 1283 0 l 1032 0 l 606 946 l 683 946 l 257 0 l 6 0 l 493 1042 l 796 1042 m 915 1271 l 871 1336 q 935 1367 915 1350 q 954 1401 954 1383 q 872 1444 954 1444 q 831 1442 853 1444 q 786 1433 808 1439 l 786 1557 q 848 1571 810 1565 q 931 1576 886 1576 q 1087 1541 1031 1576 q 1143 1443 1143 1506 q 1087 1340 1143 1383 q 915 1271 1031 1297 m 519 1346 l 769 1346 l 979 1122 l 779 1122 l 592 1267 l 697 1267 l 510 1122 l 311 1122 l 519 1346 z "},"Ẫ":{"ha":1289,"x_min":6,"x_max":1283,"o":"m 278 219 l 278 411 l 1000 411 l 1000 219 l 278 219 m 796 1042 l 1283 0 l 1032 0 l 606 946 l 683 946 l 257 0 l 6 0 l 493 1042 l 796 1042 m 336 1394 q 388 1551 342 1492 q 514 1611 433 1611 q 585 1601 554 1611 q 642 1576 617 1590 q 689 1551 667 1561 q 732 1540 711 1540 q 773 1558 757 1540 q 794 1610 789 1576 l 939 1610 q 888 1452 933 1510 q 760 1394 842 1394 q 689 1406 721 1394 q 632 1430 657 1417 q 585 1454 607 1443 q 542 1465 563 1465 q 501 1447 517 1465 q 479 1394 485 1429 l 336 1394 m 518 1346 l 769 1346 l 978 1122 l 779 1122 l 592 1267 l 696 1267 l 508 1122 l 311 1122 l 518 1346 z "},"Ȁ":{"ha":1289,"x_min":6,"x_max":1283,"o":"m 278 219 l 278 411 l 1000 411 l 1000 219 l 278 219 m 796 1042 l 1283 0 l 1032 0 l 606 946 l 683 946 l 257 0 l 6 0 l 493 1042 l 796 1042 m 746 1346 l 915 1122 l 707 1122 l 518 1346 l 746 1346 m 411 1346 l 579 1122 l 372 1122 l 183 1346 l 411 1346 z "},"Ä":{"ha":1289,"x_min":6,"x_max":1283,"o":"m 278 219 l 278 411 l 1000 411 l 1000 219 l 278 219 m 796 1042 l 1283 0 l 1032 0 l 606 946 l 683 946 l 257 0 l 6 0 l 493 1042 l 796 1042 m 433 1132 q 338 1164 374 1132 q 301 1249 301 1196 q 338 1331 301 1300 q 433 1363 374 1363 q 531 1331 494 1363 q 567 1249 567 1300 q 531 1164 567 1196 q 433 1132 494 1132 m 854 1132 q 758 1164 794 1132 q 721 1249 721 1196 q 758 1331 721 1300 q 854 1363 794 1363 q 951 1331 914 1363 q 988 1249 988 1300 q 951 1164 988 1196 q 854 1132 914 1132 z "},"Ǟ":{"ha":1289,"x_min":6,"x_max":1283,"o":"m 278 219 l 278 411 l 1000 411 l 1000 219 l 278 219 m 796 1042 l 1283 0 l 1032 0 l 606 946 l 683 946 l 257 0 l 6 0 l 493 1042 l 796 1042 m 435 1132 q 339 1164 375 1132 q 303 1249 303 1196 q 339 1331 303 1300 q 435 1363 375 1363 q 532 1331 496 1363 q 568 1249 568 1300 q 532 1164 568 1196 q 435 1132 496 1132 m 856 1132 q 759 1164 796 1132 q 722 1249 722 1196 q 759 1331 722 1300 q 856 1363 796 1363 q 952 1331 915 1363 q 989 1249 989 1300 q 952 1164 989 1196 q 856 1132 915 1132 m 326 1435 l 326 1579 l 965 1579 l 965 1435 l 326 1435 z "},"Ȧ":{"ha":1289,"x_min":6,"x_max":1283,"o":"m 278 219 l 278 411 l 1000 411 l 1000 219 l 278 219 m 796 1042 l 1283 0 l 1032 0 l 606 946 l 683 946 l 257 0 l 6 0 l 493 1042 l 796 1042 m 644 1132 q 542 1165 582 1132 q 503 1253 503 1197 q 542 1340 503 1307 q 644 1374 582 1374 q 747 1340 708 1374 q 786 1253 786 1307 q 747 1165 786 1197 q 644 1132 708 1132 z "},"Ạ":{"ha":1289,"x_min":6,"x_max":1283,"o":"m 278 219 l 278 411 l 1000 411 l 1000 219 l 278 219 m 796 1042 l 1283 0 l 1032 0 l 606 946 l 683 946 l 257 0 l 6 0 l 493 1042 l 796 1042 m 644 -314 q 542 -281 582 -314 q 503 -194 503 -249 q 542 -106 503 -139 q 644 -74 582 -74 q 747 -106 708 -74 q 786 -194 786 -139 q 747 -281 786 -249 q 644 -314 708 -314 z "},"Ǡ":{"ha":1289,"x_min":6,"x_max":1283,"o":"m 278 219 l 278 411 l 1000 411 l 1000 219 l 278 219 m 796 1042 l 1283 0 l 1032 0 l 606 946 l 683 946 l 257 0 l 6 0 l 493 1042 l 796 1042 m 646 1132 q 544 1165 583 1132 q 504 1253 504 1197 q 544 1340 504 1307 q 646 1374 583 1374 q 749 1340 710 1374 q 788 1253 788 1307 q 749 1165 788 1197 q 646 1132 710 1132 m 325 1435 l 325 1579 l 964 1579 l 964 1435 l 325 1435 z "},"À":{"ha":1289,"x_min":6,"x_max":1283,"o":"m 278 219 l 278 411 l 1000 411 l 1000 219 l 278 219 m 796 1042 l 1283 0 l 1032 0 l 606 946 l 683 946 l 257 0 l 6 0 l 493 1042 l 796 1042 m 572 1346 l 776 1122 l 539 1122 l 304 1346 l 572 1346 z "},"Ả":{"ha":1289,"x_min":6,"x_max":1283,"o":"m 278 219 l 278 411 l 1000 411 l 1000 219 l 278 219 m 796 1042 l 1283 0 l 1032 0 l 606 946 l 683 946 l 257 0 l 6 0 l 493 1042 l 796 1042 m 590 1103 l 543 1182 q 638 1209 610 1193 q 667 1244 667 1225 q 644 1271 667 1263 q 579 1279 622 1279 q 518 1275 546 1279 q 460 1265 490 1271 l 460 1390 q 534 1406 488 1399 q 631 1413 581 1413 q 805 1380 744 1413 q 865 1276 865 1347 q 801 1169 865 1213 q 590 1103 738 1126 z "},"Ȃ":{"ha":1289,"x_min":6,"x_max":1283,"o":"m 278 219 l 278 411 l 1000 411 l 1000 219 l 278 219 m 796 1042 l 1283 0 l 1032 0 l 606 946 l 683 946 l 257 0 l 6 0 l 493 1042 l 796 1042 m 971 1118 l 790 1118 q 736 1185 772 1161 q 644 1208 700 1208 q 553 1185 590 1208 q 499 1118 517 1161 l 318 1118 q 435 1295 349 1236 q 644 1354 522 1354 q 856 1295 769 1354 q 971 1118 942 1236 z "},"Ɑ":{"ha":1357,"x_min":58,"x_max":1274,"o":"m 1049 0 l 1007 385 l 1047 522 l 1007 657 l 1049 1042 l 1274 1042 l 1215 522 l 1274 0 l 1049 0 m 1115 522 q 1011 236 1085 358 q 826 47 938 114 q 572 -21 715 -21 q 303 47 419 -21 q 123 237 188 115 q 58 521 58 358 q 123 805 58 683 q 303 994 188 926 q 572 1063 419 1063 q 826 997 715 1063 q 1012 809 938 931 q 1115 522 1086 688 m 297 522 q 340 349 297 425 q 456 229 382 272 q 629 186 531 186 q 798 229 721 186 q 933 349 875 272 q 1025 522 992 425 q 933 694 992 619 q 798 813 875 769 q 629 856 721 856 q 457 813 532 856 q 340 694 382 769 q 297 522 297 619 z "},"Ɒ":{"ha":1357,"x_min":82,"x_max":1297,"o":"m 308 0 l 82 0 l 142 522 l 82 1042 l 308 1042 l 350 657 l 310 522 l 350 385 l 308 0 m 242 522 q 344 809 271 688 q 531 997 418 931 q 785 1063 643 1063 q 1053 994 938 1063 q 1233 805 1169 926 q 1297 521 1297 683 q 1233 237 1297 358 q 1053 47 1169 115 q 785 -21 938 -21 q 531 47 642 -21 q 346 236 419 114 q 242 522 272 358 m 1060 522 q 1017 694 1060 619 q 901 813 975 769 q 726 856 826 856 q 558 813 636 856 q 423 694 481 769 q 331 522 365 619 q 424 349 365 425 q 559 229 482 272 q 726 186 636 186 q 901 229 826 186 q 1017 349 975 272 q 1060 522 1060 425 z "},"Ā":{"ha":1289,"x_min":6,"x_max":1283,"o":"m 278 219 l 278 411 l 1000 411 l 1000 219 l 278 219 m 796 1042 l 1283 0 l 1032 0 l 606 946 l 683 946 l 257 0 l 6 0 l 493 1042 l 796 1042 m 325 1157 l 325 1301 l 964 1301 l 964 1157 l 325 1157 z "},"Ą":{"ha":1289,"x_min":6,"x_max":1283,"o":"m 278 219 l 278 411 l 1000 411 l 1000 219 l 278 219 m 796 1042 l 1283 0 l 1032 0 l 606 946 l 683 946 l 257 0 l 6 0 l 493 1042 l 796 1042 m 1165 25 l 1253 18 l 1253 0 l 1283 0 q 1196 -31 1233 -14 q 1137 -66 1158 -49 q 1115 -103 1115 -83 q 1200 -142 1115 -142 q 1244 -140 1224 -142 q 1283 -133 1265 -137 l 1283 -265 q 1226 -278 1265 -272 q 1144 -283 1186 -283 q 997 -247 1053 -283 q 942 -151 942 -211 q 997 -49 942 -92 q 1165 25 1051 -6 z "},"Å":{"ha":1289,"x_min":6,"x_max":1283,"o":"m 278 219 l 278 411 l 1000 411 l 1000 219 l 278 219 m 796 1042 l 1283 0 l 1032 0 l 606 946 l 683 946 l 257 0 l 6 0 l 493 1042 l 796 1042 m 646 1101 q 461 1148 528 1101 q 394 1276 394 1194 q 461 1405 394 1358 q 646 1451 528 1451 q 831 1405 765 1451 q 896 1276 896 1358 q 831 1148 896 1194 q 646 1101 765 1101 m 646 1208 q 734 1226 706 1208 q 763 1276 763 1243 q 734 1327 763 1310 q 646 1344 706 1344 q 556 1327 585 1344 q 528 1276 528 1310 q 556 1226 528 1243 q 646 1208 585 1208 z "},"Ǻ":{"ha":1289,"x_min":6,"x_max":1283,"o":"m 650 1667 l 865 1667 l 725 1424 l 551 1424 l 650 1667 m 278 219 l 278 411 l 1000 411 l 1000 219 l 278 219 m 796 1042 l 1283 0 l 1032 0 l 606 946 l 683 946 l 257 0 l 6 0 l 493 1042 l 796 1042 m 644 1101 q 460 1148 526 1101 q 394 1276 394 1194 q 460 1405 394 1358 q 644 1451 526 1451 q 830 1405 764 1451 q 896 1276 896 1358 q 830 1148 896 1194 q 644 1101 764 1101 m 644 1208 q 734 1226 706 1208 q 763 1276 763 1243 q 734 1327 763 1310 q 644 1344 706 1344 q 556 1327 585 1344 q 528 1276 528 1310 q 556 1226 528 1243 q 644 1208 585 1208 z "},"Ḁ":{"ha":1289,"x_min":6,"x_max":1283,"o":"m 278 219 l 278 411 l 1000 411 l 1000 219 l 278 219 m 796 1042 l 1283 0 l 1032 0 l 606 946 l 683 946 l 257 0 l 6 0 l 493 1042 l 796 1042 m 644 -421 q 468 -372 533 -421 q 403 -239 403 -324 q 468 -107 403 -156 q 644 -58 533 -58 q 822 -107 758 -58 q 886 -239 886 -156 q 822 -372 886 -324 q 644 -421 758 -421 m 644 -319 q 724 -299 696 -319 q 753 -240 753 -278 q 725 -179 753 -200 q 644 -158 697 -158 q 566 -179 594 -158 q 538 -240 538 -200 q 566 -299 538 -278 q 644 -319 594 -319 z "},"Ⱥ":{"ha":1290,"x_min":7,"x_max":1285,"o":"m 874 1211 l 1035 1211 l 481 -169 l 319 -169 l 874 1211 m 279 219 l 279 411 l 1001 411 l 1001 219 l 279 219 m 797 1042 l 1285 0 l 1033 0 l 607 946 l 683 946 l 258 0 l 7 0 l 493 1042 l 797 1042 z "},"Ã":{"ha":1289,"x_min":6,"x_max":1283,"o":"m 278 219 l 278 411 l 1000 411 l 1000 219 l 278 219 m 796 1042 l 1283 0 l 1032 0 l 606 946 l 683 946 l 257 0 l 6 0 l 493 1042 l 796 1042 m 290 1131 q 356 1291 303 1232 q 510 1350 410 1350 q 584 1339 549 1350 q 653 1315 619 1328 q 715 1290 686 1301 q 769 1279 744 1279 q 819 1296 800 1279 q 843 1344 839 1313 l 999 1344 q 932 1185 986 1244 q 778 1125 878 1125 q 704 1136 740 1125 q 635 1161 668 1147 q 573 1186 603 1175 q 519 1197 543 1197 q 469 1180 489 1197 q 446 1131 450 1163 l 290 1131 z "},"Ɐ":{"ha":1290,"x_min":7,"x_max":1285,"o":"m 1013 822 l 1013 631 l 289 631 l 289 822 l 1013 822 m 493 0 l 7 1042 l 258 1042 l 683 96 l 607 96 l 1033 1042 l 1285 1042 l 797 0 l 493 0 z "},"Æ":{"ha":1740,"x_min":10,"x_max":1690,"o":"m 1043 431 l 1140 196 l 1690 196 l 1690 0 l 975 0 l 583 983 l 671 983 l 261 0 l 10 0 l 461 1042 l 1649 1042 l 1649 846 l 876 846 l 972 611 l 1613 611 l 1613 431 l 1043 431 m 260 219 l 260 411 l 953 411 l 953 219 l 260 219 z "},"Ǽ":{"ha":1740,"x_min":10,"x_max":1690,"o":"m 1043 431 l 1140 196 l 1690 196 l 1690 0 l 975 0 l 583 983 l 671 983 l 261 0 l 10 0 l 461 1042 l 1649 1042 l 1649 846 l 876 846 l 972 611 l 1613 611 l 1613 431 l 1043 431 m 260 219 l 260 411 l 953 411 l 953 219 l 260 219 m 1083 1346 l 1351 1346 l 1117 1122 l 879 1122 l 1083 1346 z "},"Ǣ":{"ha":1740,"x_min":10,"x_max":1690,"o":"m 1043 431 l 1140 196 l 1690 196 l 1690 0 l 975 0 l 583 983 l 671 983 l 261 0 l 10 0 l 461 1042 l 1649 1042 l 1649 846 l 876 846 l 972 611 l 1613 611 l 1613 431 l 1043 431 m 260 219 l 260 411 l 953 411 l 953 219 l 260 219 m 708 1157 l 708 1301 l 1347 1301 l 1347 1157 l 708 1157 z "},"B":{"ha":1201,"x_min":74,"x_max":1151,"o":"m 775 514 l 797 561 q 997 523 918 558 q 1114 427 1076 488 q 1151 289 1151 367 q 1112 140 1151 206 q 996 38 1072 75 q 804 0 919 0 l 74 0 l 154 535 l 74 1042 l 778 1042 q 1002 974 922 1042 q 1082 789 1082 907 q 1052 665 1082 725 q 955 565 1022 606 q 775 514 888 524 m 307 60 l 217 174 l 756 174 q 872 209 831 174 q 913 308 913 244 q 865 412 913 374 q 726 450 818 450 l 288 450 l 288 619 l 699 619 q 802 655 761 619 q 843 754 843 690 q 808 835 843 803 q 708 868 774 868 l 217 868 l 307 982 l 381 535 l 307 60 z "},"Ḃ":{"ha":1201,"x_min":74,"x_max":1151,"o":"m 775 514 l 797 561 q 997 523 918 558 q 1114 427 1076 488 q 1151 289 1151 367 q 1112 140 1151 206 q 996 38 1072 75 q 804 0 919 0 l 74 0 l 154 535 l 74 1042 l 778 1042 q 1002 974 922 1042 q 1082 789 1082 907 q 1052 665 1082 725 q 955 565 1022 606 q 775 514 888 524 m 307 60 l 217 174 l 756 174 q 872 209 831 174 q 913 308 913 244 q 865 412 913 374 q 726 450 818 450 l 288 450 l 288 619 l 699 619 q 802 655 761 619 q 843 754 843 690 q 808 835 843 803 q 708 868 774 868 l 217 868 l 307 982 l 381 535 l 307 60 m 581 1132 q 478 1165 518 1132 q 439 1253 439 1197 q 478 1340 439 1307 q 581 1374 518 1374 q 683 1340 644 1374 q 722 1253 722 1307 q 683 1165 722 1197 q 581 1132 644 1132 z "},"Ḅ":{"ha":1201,"x_min":74,"x_max":1151,"o":"m 775 514 l 797 561 q 997 523 918 558 q 1114 427 1076 488 q 1151 289 1151 367 q 1112 140 1151 206 q 996 38 1072 75 q 804 0 919 0 l 74 0 l 154 535 l 74 1042 l 778 1042 q 1002 974 922 1042 q 1082 789 1082 907 q 1052 665 1082 725 q 955 565 1022 606 q 775 514 888 524 m 307 60 l 217 174 l 756 174 q 872 209 831 174 q 913 308 913 244 q 865 412 913 374 q 726 450 818 450 l 288 450 l 288 619 l 699 619 q 802 655 761 619 q 843 754 843 690 q 808 835 843 803 q 708 868 774 868 l 217 868 l 307 982 l 381 535 l 307 60 m 610 -314 q 508 -281 547 -314 q 468 -194 468 -249 q 508 -106 468 -139 q 610 -74 547 -74 q 713 -106 674 -74 q 751 -194 751 -139 q 713 -281 751 -249 q 610 -314 674 -314 z "},"Ꞵ":{"ha":1215,"x_min":107,"x_max":1165,"o":"m 932 547 q 1064 494 1013 531 q 1140 405 1115 457 q 1165 289 1165 353 q 1126 140 1165 206 q 1010 38 1088 75 q 819 0 933 0 l 339 0 l 339 -229 l 107 -229 l 107 1042 l 793 1042 q 1017 974 938 1042 q 1096 789 1096 907 q 1079 695 1096 742 q 1026 610 1063 649 q 932 547 990 572 m 858 754 q 824 835 858 803 q 722 868 789 868 l 339 868 l 339 617 l 713 617 q 817 653 775 617 q 858 754 858 689 m 339 174 l 769 174 q 886 209 844 174 q 928 308 928 244 q 881 413 928 374 q 742 453 833 453 l 339 453 l 339 174 z "},"Ɓ":{"ha":1469,"x_min":29,"x_max":1419,"o":"m 285 1042 l 1046 1042 q 1270 974 1190 1042 q 1350 789 1350 907 q 1319 665 1350 725 q 1222 565 1289 606 q 1043 514 1156 524 l 1064 561 q 1265 523 1186 558 q 1381 427 1343 488 q 1419 289 1419 367 q 1380 140 1419 206 q 1264 38 1340 75 q 1072 0 1188 0 l 340 0 l 422 535 l 350 983 l 439 867 l 338 867 q 258 841 286 867 q 231 757 231 815 q 240 674 231 713 q 261 599 249 635 l 82 599 q 46 692 63 639 q 29 806 29 746 q 95 979 29 917 q 285 1042 161 1042 m 575 60 l 485 174 l 1024 174 q 1139 209 1097 174 q 1181 308 1181 244 q 1133 412 1181 374 q 994 450 1086 450 l 556 450 l 556 619 l 967 619 q 1069 655 1028 619 q 1111 754 1111 690 q 1076 835 1111 803 q 976 868 1042 868 l 485 868 l 575 982 l 647 535 l 575 60 z "},"Ḇ":{"ha":1201,"x_min":74,"x_max":1151,"o":"m 775 514 l 797 561 q 997 523 918 558 q 1114 427 1076 488 q 1151 289 1151 367 q 1112 140 1151 206 q 996 38 1072 75 q 804 0 919 0 l 74 0 l 154 535 l 74 1042 l 778 1042 q 1002 974 922 1042 q 1082 789 1082 907 q 1052 665 1082 725 q 955 565 1022 606 q 775 514 888 524 m 307 60 l 217 174 l 756 174 q 872 209 831 174 q 913 308 913 244 q 865 412 913 374 q 726 450 818 450 l 288 450 l 288 619 l 699 619 q 802 655 761 619 q 843 754 843 690 q 808 835 843 803 q 708 868 774 868 l 217 868 l 307 982 l 381 535 l 307 60 m 297 -237 l 297 -93 l 936 -93 l 936 -237 l 297 -237 z "},"Ƀ":{"ha":1275,"x_min":32,"x_max":1225,"o":"m 32 383 l 728 383 l 728 235 l 32 235 l 32 383 m 850 514 l 871 561 q 1072 523 993 558 q 1188 427 1150 488 q 1225 289 1225 367 q 1186 140 1225 206 q 1070 38 1147 75 q 879 0 993 0 l 147 0 l 228 535 l 147 1042 l 853 1042 q 1076 974 997 1042 q 1156 789 1156 907 q 1126 665 1156 725 q 1029 565 1096 606 q 850 514 963 524 m 382 60 l 292 171 l 828 171 q 944 206 903 171 q 986 308 986 242 q 939 415 986 375 q 799 454 892 454 l 361 454 l 361 615 l 771 615 q 875 651 833 615 q 917 754 917 688 q 882 838 917 806 q 781 871 847 871 l 292 871 l 382 982 l 454 535 l 382 60 z "},"C":{"ha":1282,"x_min":57,"x_max":1235,"o":"m 1235 424 q 1142 191 1219 292 q 940 35 1065 90 q 653 -21 814 -21 q 341 47 475 -21 q 132 237 207 115 q 57 521 57 358 q 132 805 57 683 q 341 994 207 926 q 653 1063 475 1063 q 940 1007 814 1063 q 1142 851 1065 951 q 1235 618 1219 751 l 997 618 q 938 745 983 692 q 819 828 892 799 q 651 857 747 857 q 462 816 542 857 q 339 699 382 775 q 296 521 296 624 q 339 342 296 418 q 462 226 382 267 q 651 185 542 185 q 819 213 747 185 q 938 295 892 242 q 997 424 983 349 l 1235 424 z "},"Ć":{"ha":1282,"x_min":57,"x_max":1235,"o":"m 1235 424 q 1142 191 1219 292 q 940 35 1065 90 q 653 -21 814 -21 q 341 47 475 -21 q 132 237 207 115 q 57 521 57 358 q 132 805 57 683 q 341 994 207 926 q 653 1063 475 1063 q 940 1007 814 1063 q 1142 851 1065 951 q 1235 618 1219 751 l 997 618 q 938 745 983 692 q 819 828 892 799 q 651 857 747 857 q 462 816 542 857 q 339 699 382 775 q 296 521 296 624 q 339 342 296 418 q 462 226 382 267 q 651 185 542 185 q 819 213 747 185 q 938 295 892 242 q 997 424 983 349 l 1235 424 m 701 1346 l 969 1346 l 735 1122 l 497 1122 l 701 1346 z "},"Č":{"ha":1282,"x_min":57,"x_max":1235,"o":"m 1235 424 q 1142 191 1219 292 q 940 35 1065 90 q 653 -21 814 -21 q 341 47 475 -21 q 132 237 207 115 q 57 521 57 358 q 132 805 57 683 q 341 994 207 926 q 653 1063 475 1063 q 940 1007 814 1063 q 1142 851 1065 951 q 1235 618 1219 751 l 997 618 q 938 745 983 692 q 819 828 892 799 q 651 857 747 857 q 462 816 542 857 q 339 699 382 775 q 296 521 296 624 q 339 342 296 418 q 462 226 382 267 q 651 185 542 185 q 819 213 747 185 q 938 295 892 242 q 997 424 983 349 l 1235 424 m 771 1122 l 521 1122 l 313 1344 l 511 1344 l 699 1200 l 594 1200 l 781 1344 l 979 1344 l 771 1122 z "},"Ç":{"ha":1282,"x_min":57,"x_max":1235,"o":"m 1235 424 q 1142 191 1219 292 q 940 35 1065 90 q 653 -21 814 -21 q 341 47 475 -21 q 132 237 207 115 q 57 521 57 358 q 132 805 57 683 q 341 994 207 926 q 653 1063 475 1063 q 940 1007 814 1063 q 1142 851 1065 951 q 1235 618 1219 751 l 997 618 q 938 745 983 692 q 819 828 892 799 q 651 857 747 857 q 462 816 542 857 q 339 699 382 775 q 296 521 296 624 q 339 342 296 418 q 462 226 382 267 q 651 185 542 185 q 819 213 747 185 q 938 295 892 242 q 997 424 983 349 l 1235 424 m 599 22 l 719 22 l 649 -99 l 589 -94 q 657 -67 622 -76 q 738 -57 692 -57 q 876 -92 828 -57 q 925 -189 925 -128 q 862 -296 925 -254 q 679 -337 799 -337 q 502 -299 574 -337 q 410 -193 431 -261 l 568 -193 q 607 -224 581 -212 q 679 -235 633 -235 q 749 -220 726 -235 q 772 -183 772 -206 q 753 -151 772 -164 q 693 -139 733 -139 q 647 -142 668 -139 q 608 -153 625 -146 l 488 -153 l 599 22 z "},"Ḉ":{"ha":1282,"x_min":57,"x_max":1235,"o":"m 1235 424 q 1142 191 1219 292 q 940 35 1065 90 q 653 -21 814 -21 q 341 47 475 -21 q 132 237 207 115 q 57 521 57 358 q 132 805 57 683 q 341 994 207 926 q 653 1063 475 1063 q 940 1007 814 1063 q 1142 851 1065 951 q 1235 618 1219 751 l 997 618 q 938 745 983 692 q 819 828 892 799 q 651 857 747 857 q 462 816 542 857 q 339 699 382 775 q 296 521 296 624 q 339 342 296 418 q 462 226 382 267 q 651 185 542 185 q 819 213 747 185 q 938 295 892 242 q 997 424 983 349 l 1235 424 m 599 22 l 719 22 l 649 -99 l 589 -94 q 657 -67 622 -76 q 738 -57 692 -57 q 876 -92 828 -57 q 925 -189 925 -128 q 862 -296 925 -254 q 679 -337 799 -337 q 502 -299 574 -337 q 410 -193 431 -261 l 568 -193 q 607 -224 581 -212 q 679 -235 633 -235 q 749 -220 726 -235 q 772 -183 772 -206 q 753 -151 772 -164 q 693 -139 733 -139 q 647 -142 668 -139 q 608 -153 625 -146 l 488 -153 l 599 22 m 701 1346 l 969 1346 l 735 1122 l 497 1122 l 701 1346 z "},"Ĉ":{"ha":1282,"x_min":57,"x_max":1235,"o":"m 1235 424 q 1142 191 1219 292 q 940 35 1065 90 q 653 -21 814 -21 q 341 47 475 -21 q 132 237 207 115 q 57 521 57 358 q 132 805 57 683 q 341 994 207 926 q 653 1063 475 1063 q 940 1007 814 1063 q 1142 851 1065 951 q 1235 618 1219 751 l 997 618 q 938 745 983 692 q 819 828 892 799 q 651 857 747 857 q 462 816 542 857 q 339 699 382 775 q 296 521 296 624 q 339 342 296 418 q 462 226 382 267 q 651 185 542 185 q 819 213 747 185 q 938 295 892 242 q 997 424 983 349 l 1235 424 m 519 1346 l 771 1346 l 979 1122 l 781 1122 l 593 1267 l 697 1267 l 510 1122 l 313 1122 l 519 1346 z "},"Ċ":{"ha":1282,"x_min":57,"x_max":1235,"o":"m 1235 424 q 1142 191 1219 292 q 940 35 1065 90 q 653 -21 814 -21 q 341 47 475 -21 q 132 237 207 115 q 57 521 57 358 q 132 805 57 683 q 341 994 207 926 q 653 1063 475 1063 q 940 1007 814 1063 q 1142 851 1065 951 q 1235 618 1219 751 l 997 618 q 938 745 983 692 q 819 828 892 799 q 651 857 747 857 q 462 816 542 857 q 339 699 382 775 q 296 521 296 624 q 339 342 296 418 q 462 226 382 267 q 651 185 542 185 q 819 213 747 185 q 938 295 892 242 q 997 424 983 349 l 1235 424 m 646 1132 q 544 1165 583 1132 q 504 1253 504 1197 q 544 1340 504 1307 q 646 1374 583 1374 q 749 1340 710 1374 q 788 1253 788 1307 q 749 1165 788 1197 q 646 1132 710 1132 z "},"Ꭓ":{"ha":1089,"x_min":-12,"x_max":1100,"o":"m 622 357 l 622 508 l 1100 -229 l 847 -229 l 493 338 l 593 338 l 238 -229 l -12 -229 l 465 506 l 465 361 l 18 1042 l 274 1042 l 596 531 l 496 531 l 817 1042 l 1068 1042 l 622 357 z "},"Ƈ":{"ha":1319,"x_min":57,"x_max":1394,"o":"m 644 1063 q 934 994 822 1063 q 1106 807 1046 926 l 1040 818 q 981 924 1008 868 q 953 1040 953 979 q 982 1148 953 1100 q 1070 1224 1011 1196 q 1219 1253 1129 1253 q 1313 1245 1269 1253 q 1394 1224 1357 1238 l 1394 1044 q 1336 1060 1365 1054 q 1274 1067 1307 1067 q 1174 1037 1206 1067 q 1143 958 1143 1007 q 1156 886 1143 926 q 1188 796 1168 846 q 1214 715 1199 764 q 1235 618 1229 667 l 999 618 q 939 745 985 692 q 820 828 893 799 q 653 857 747 857 q 463 816 543 857 q 339 700 382 775 q 296 522 296 625 q 339 343 296 418 q 463 226 382 268 q 653 185 543 185 q 820 213 747 185 q 939 295 893 242 q 999 424 985 349 l 1235 424 q 1143 191 1221 292 q 940 35 1065 90 q 653 -21 815 -21 q 341 47 475 -21 q 132 237 207 115 q 57 521 57 358 q 132 805 57 683 q 340 994 207 926 q 644 1063 472 1063 z "},"Ȼ":{"ha":1282,"x_min":57,"x_max":1235,"o":"m 829 1211 l 1018 1211 l 464 -169 l 275 -169 l 829 1211 m 1235 424 q 1143 191 1221 292 q 940 35 1065 90 q 653 -21 815 -21 q 341 47 475 -21 q 132 237 207 115 q 57 521 57 358 q 132 805 57 683 q 341 994 207 926 q 653 1063 475 1063 q 940 1007 815 1063 q 1143 851 1065 951 q 1235 618 1221 751 l 999 618 q 938 745 983 692 q 820 828 893 799 q 653 857 747 857 q 463 816 543 857 q 339 699 382 775 q 296 521 296 624 q 339 342 296 418 q 463 226 382 267 q 653 185 543 185 q 820 213 747 185 q 938 295 893 242 q 999 424 983 349 l 1235 424 z "},"D":{"ha":1265,"x_min":107,"x_max":1210,"o":"m 601 1042 q 920 976 783 1042 q 1133 794 1057 911 q 1210 521 1210 678 q 1133 248 1210 365 q 920 65 1057 131 q 601 0 783 0 l 107 0 l 107 1042 l 601 1042 m 342 93 l 222 208 l 619 208 q 805 247 725 208 q 928 357 885 286 q 971 521 971 428 q 928 685 971 615 q 805 794 885 756 q 619 833 725 833 l 222 833 l 342 949 l 342 93 z "},"Ǳ":{"ha":2311,"x_min":107,"x_max":2254,"o":"m 601 1042 q 920 976 783 1042 q 1133 794 1057 911 q 1210 521 1210 678 q 1133 248 1210 365 q 920 65 1057 131 q 601 0 783 0 l 107 0 l 107 1042 l 601 1042 m 342 93 l 222 208 l 619 208 q 805 247 725 208 q 928 357 885 286 q 971 521 971 428 q 928 685 971 615 q 805 794 885 756 q 619 833 725 833 l 222 833 l 342 949 l 342 93 m 1269 0 l 1269 175 l 1994 914 l 2158 853 l 1275 853 l 1275 1042 l 2250 1042 l 2250 868 l 1524 126 l 1383 189 l 2254 189 l 2254 0 l 1269 0 z "},"Ǆ":{"ha":2311,"x_min":107,"x_max":2254,"o":"m 601 1042 q 920 976 783 1042 q 1133 794 1057 911 q 1210 521 1210 678 q 1133 248 1210 365 q 920 65 1057 131 q 601 0 783 0 l 107 0 l 107 1042 l 601 1042 m 342 93 l 222 208 l 619 208 q 805 247 725 208 q 928 357 885 286 q 971 521 971 428 q 928 685 971 615 q 805 794 885 756 q 619 833 725 833 l 222 833 l 342 949 l 342 93 m 1269 0 l 1269 175 l 1994 914 l 2158 853 l 1274 853 l 1274 1042 l 2250 1042 l 2250 868 l 1524 126 l 1383 189 l 2254 189 l 2254 0 l 1269 0 m 1888 1122 l 1638 1122 l 1428 1344 l 1628 1344 l 1815 1200 l 1710 1200 l 1897 1344 l 2096 1344 l 1888 1122 z "},"Ɖ":{"ha":1306,"x_min":38,"x_max":1250,"o":"m 38 604 l 643 604 l 643 440 l 38 440 l 38 604 m 643 1042 q 960 976 824 1042 q 1174 794 1097 911 q 1250 521 1250 678 q 1174 248 1250 365 q 960 65 1097 131 q 643 0 824 0 l 147 0 l 147 1042 l 643 1042 m 382 93 l 263 208 l 660 208 q 846 247 767 208 q 968 357 925 286 q 1011 521 1011 428 q 968 685 1011 615 q 846 794 925 756 q 660 833 767 833 l 263 833 l 382 949 l 382 93 z "},"Ð":{"ha":1306,"x_min":38,"x_max":1250,"o":"m 38 604 l 643 604 l 643 440 l 38 440 l 38 604 m 643 1042 q 960 976 824 1042 q 1174 794 1097 911 q 1250 521 1250 678 q 1174 248 1250 365 q 960 65 1097 131 q 643 0 824 0 l 147 0 l 147 1042 l 643 1042 m 382 93 l 263 208 l 660 208 q 846 247 767 208 q 968 357 925 286 q 1011 521 1011 428 q 968 685 1011 615 q 846 794 925 756 q 660 833 767 833 l 263 833 l 382 949 l 382 93 z "},"Ď":{"ha":1265,"x_min":107,"x_max":1210,"o":"m 601 1042 q 920 976 783 1042 q 1133 794 1057 911 q 1210 521 1210 678 q 1133 248 1210 365 q 920 65 1057 131 q 601 0 783 0 l 107 0 l 107 1042 l 601 1042 m 342 93 l 222 208 l 619 208 q 805 247 725 208 q 928 357 885 286 q 971 521 971 428 q 928 685 971 615 q 805 794 885 756 q 619 833 725 833 l 222 833 l 342 949 l 342 93 m 719 1122 l 468 1122 l 260 1344 l 458 1344 l 646 1200 l 542 1200 l 729 1344 l 926 1344 l 719 1122 z "},"Ḑ":{"ha":1265,"x_min":107,"x_max":1210,"o":"m 601 1042 q 920 976 783 1042 q 1133 794 1057 911 q 1210 521 1210 678 q 1133 248 1210 365 q 920 65 1057 131 q 601 0 783 0 l 107 0 l 107 1042 l 601 1042 m 342 93 l 222 208 l 619 208 q 805 247 725 208 q 928 357 885 286 q 971 521 971 428 q 928 685 971 615 q 805 794 885 756 q 619 833 725 833 l 222 833 l 342 949 l 342 93 m 485 -397 l 597 -206 l 607 -269 q 513 -241 549 -269 q 476 -167 476 -212 q 512 -92 476 -119 q 607 -64 547 -64 q 702 -92 667 -64 q 738 -169 738 -121 q 722 -231 738 -203 q 665 -312 706 -258 l 600 -397 l 485 -397 z "},"Ḓ":{"ha":1265,"x_min":107,"x_max":1210,"o":"m 601 1042 q 920 976 783 1042 q 1133 794 1057 911 q 1210 521 1210 678 q 1133 248 1210 365 q 920 65 1057 131 q 601 0 783 0 l 107 0 l 107 1042 l 601 1042 m 342 93 l 222 208 l 619 208 q 805 247 725 208 q 928 357 885 286 q 971 521 971 428 q 928 685 971 615 q 805 794 885 756 q 619 833 725 833 l 222 833 l 342 949 l 342 93 m 485 -58 l 728 -58 l 926 -308 l 738 -308 l 554 -121 l 658 -121 l 476 -308 l 286 -308 l 485 -58 z "},"Đ":{"ha":1306,"x_min":38,"x_max":1250,"o":"m 38 604 l 643 604 l 643 440 l 38 440 l 38 604 m 643 1042 q 960 976 824 1042 q 1174 794 1097 911 q 1250 521 1250 678 q 1174 248 1250 365 q 960 65 1097 131 q 643 0 824 0 l 147 0 l 147 1042 l 643 1042 m 382 93 l 263 208 l 660 208 q 846 247 767 208 q 968 357 925 286 q 1011 521 1011 428 q 968 685 1011 615 q 846 794 925 756 q 660 833 767 833 l 263 833 l 382 949 l 382 93 z "},"Ḋ":{"ha":1265,"x_min":107,"x_max":1210,"o":"m 601 1042 q 920 976 783 1042 q 1133 794 1057 911 q 1210 521 1210 678 q 1133 248 1210 365 q 920 65 1057 131 q 601 0 783 0 l 107 0 l 107 1042 l 601 1042 m 342 93 l 222 208 l 619 208 q 805 247 725 208 q 928 357 885 286 q 971 521 971 428 q 928 685 971 615 q 805 794 885 756 q 619 833 725 833 l 222 833 l 342 949 l 342 93 m 594 1132 q 492 1165 532 1132 q 453 1253 453 1197 q 492 1340 453 1307 q 594 1374 532 1374 q 697 1340 658 1374 q 736 1253 736 1307 q 697 1165 736 1197 q 594 1132 658 1132 z "},"Ḍ":{"ha":1265,"x_min":107,"x_max":1210,"o":"m 601 1042 q 920 976 783 1042 q 1133 794 1057 911 q 1210 521 1210 678 q 1133 248 1210 365 q 920 65 1057 131 q 601 0 783 0 l 107 0 l 107 1042 l 601 1042 m 342 93 l 222 208 l 619 208 q 805 247 725 208 q 928 357 885 286 q 971 521 971 428 q 928 685 971 615 q 805 794 885 756 q 619 833 725 833 l 222 833 l 342 949 l 342 93 m 607 -314 q 505 -281 544 -314 q 465 -194 465 -249 q 505 -106 465 -139 q 607 -74 544 -74 q 710 -106 671 -74 q 749 -194 749 -139 q 710 -281 749 -249 q 607 -314 671 -314 z "},"Ɗ":{"ha":1567,"x_min":29,"x_max":1510,"o":"m 299 1042 l 903 1042 q 1221 976 1085 1042 q 1433 794 1357 911 q 1510 521 1510 678 q 1433 248 1510 365 q 1221 65 1357 131 q 903 0 1085 0 l 407 0 l 407 931 l 476 843 l 343 843 q 262 820 292 843 q 232 739 232 797 q 241 665 232 701 q 261 599 250 629 l 82 599 q 46 692 63 639 q 29 804 29 744 q 96 978 29 915 q 299 1042 163 1042 m 643 93 l 524 208 l 919 208 q 1106 247 1026 208 q 1228 357 1185 286 q 1271 521 1271 428 q 1228 685 1271 615 q 1106 794 1185 756 q 919 833 1026 833 l 550 833 l 643 931 l 643 93 z "},"Ḏ":{"ha":1265,"x_min":107,"x_max":1210,"o":"m 601 1042 q 920 976 783 1042 q 1133 794 1057 911 q 1210 521 1210 678 q 1133 248 1210 365 q 920 65 1057 131 q 601 0 783 0 l 107 0 l 107 1042 l 601 1042 m 342 93 l 222 208 l 619 208 q 805 247 725 208 q 928 357 885 286 q 971 521 971 428 q 928 685 971 615 q 805 794 885 756 q 619 833 725 833 l 222 833 l 342 949 l 342 93 m 296 -237 l 296 -93 l 935 -93 l 935 -237 l 296 -237 z "},"ǲ":{"ha":2192,"x_min":107,"x_max":2139,"o":"m 601 1042 q 920 976 783 1042 q 1133 794 1057 911 q 1210 521 1210 678 q 1133 248 1210 365 q 920 65 1057 131 q 601 0 783 0 l 107 0 l 107 1042 l 601 1042 m 342 93 l 222 208 l 619 208 q 805 247 725 208 q 928 357 885 286 q 971 521 971 428 q 928 685 971 615 q 805 794 885 756 q 619 833 725 833 l 222 833 l 342 949 l 342 93 m 1311 0 l 1311 164 l 1892 660 l 2047 618 l 1315 618 l 1315 790 l 2136 790 l 2136 626 l 1556 131 l 1422 171 l 2139 171 l 2139 0 l 1311 0 z "},"ǅ":{"ha":2192,"x_min":107,"x_max":2139,"o":"m 603 1042 q 920 976 783 1042 q 1133 794 1057 911 q 1210 521 1210 678 q 1133 248 1210 365 q 920 65 1057 131 q 603 0 783 0 l 107 0 l 107 1042 l 603 1042 m 342 93 l 222 208 l 619 208 q 806 247 726 208 q 928 357 885 286 q 971 521 971 428 q 928 685 971 615 q 806 794 885 756 q 619 833 726 833 l 222 833 l 342 949 l 342 93 m 1311 0 l 1311 164 l 1892 660 l 2047 618 l 1315 618 l 1315 790 l 2136 790 l 2136 626 l 1556 131 l 1424 171 l 2139 171 l 2139 0 l 1311 0 m 1847 871 l 1604 871 l 1406 1121 l 1594 1121 l 1778 933 l 1674 933 l 1856 1121 l 2046 1121 l 1847 871 z "},"E":{"ha":1083,"x_min":74,"x_max":1011,"o":"m 968 611 l 968 431 l 222 431 l 222 611 l 968 611 m 381 521 l 311 79 l 208 196 l 1011 196 l 1011 0 l 74 0 l 154 521 l 74 1042 l 1004 1042 l 1004 846 l 208 846 l 311 963 l 381 521 z "},"É":{"ha":1083,"x_min":74,"x_max":1011,"o":"m 968 611 l 968 431 l 222 431 l 222 611 l 968 611 m 381 521 l 311 79 l 208 196 l 1011 196 l 1011 0 l 74 0 l 154 521 l 74 1042 l 1004 1042 l 1004 846 l 208 846 l 311 963 l 381 521 m 601 1346 l 869 1346 l 635 1122 l 397 1122 l 601 1346 z "},"Ĕ":{"ha":1083,"x_min":74,"x_max":1011,"o":"m 968 611 l 968 431 l 222 431 l 222 611 l 968 611 m 381 521 l 311 79 l 208 196 l 1011 196 l 1011 0 l 74 0 l 154 521 l 74 1042 l 1004 1042 l 1004 846 l 208 846 l 311 963 l 381 521 m 219 1350 l 400 1350 q 454 1283 418 1306 q 546 1260 490 1260 q 638 1283 601 1260 q 692 1350 674 1306 l 872 1350 q 756 1173 842 1232 q 546 1114 669 1114 q 337 1173 424 1114 q 219 1350 250 1232 z "},"Ě":{"ha":1083,"x_min":74,"x_max":1011,"o":"m 968 611 l 968 431 l 222 431 l 222 611 l 968 611 m 381 521 l 311 79 l 208 196 l 1011 196 l 1011 0 l 74 0 l 154 521 l 74 1042 l 1004 1042 l 1004 846 l 208 846 l 311 963 l 381 521 m 672 1122 l 421 1122 l 213 1344 l 411 1344 l 599 1200 l 494 1200 l 682 1344 l 879 1344 l 672 1122 z "},"Ȩ":{"ha":1083,"x_min":74,"x_max":1011,"o":"m 968 611 l 968 431 l 222 431 l 222 611 l 968 611 m 381 521 l 311 79 l 208 196 l 1011 196 l 1011 0 l 74 0 l 154 521 l 74 1042 l 1004 1042 l 1004 846 l 208 846 l 311 963 l 381 521 m 519 22 l 640 22 l 569 -99 l 510 -94 q 578 -67 543 -76 q 658 -57 613 -57 q 797 -92 749 -57 q 846 -189 846 -128 q 783 -296 846 -254 q 600 -337 719 -337 q 423 -299 494 -337 q 331 -193 351 -261 l 489 -193 q 528 -224 501 -212 q 600 -235 554 -235 q 670 -220 647 -235 q 693 -183 693 -206 q 674 -151 693 -164 q 614 -139 654 -139 q 567 -142 589 -139 q 529 -153 546 -146 l 408 -153 l 519 22 z "},"Ḝ":{"ha":1083,"x_min":74,"x_max":1011,"o":"m 968 611 l 968 431 l 222 431 l 222 611 l 968 611 m 381 521 l 311 79 l 208 196 l 1011 196 l 1011 0 l 74 0 l 154 521 l 74 1042 l 1004 1042 l 1004 846 l 208 846 l 311 963 l 381 521 m 519 22 l 640 22 l 569 -99 l 510 -94 q 578 -67 543 -76 q 658 -57 613 -57 q 797 -92 749 -57 q 846 -189 846 -128 q 783 -296 846 -254 q 600 -337 719 -337 q 423 -299 494 -337 q 331 -193 351 -261 l 489 -193 q 528 -224 501 -212 q 600 -235 554 -235 q 670 -220 647 -235 q 693 -183 693 -206 q 674 -151 693 -164 q 614 -139 654 -139 q 567 -142 589 -139 q 529 -153 546 -146 l 408 -153 l 519 22 m 219 1350 l 400 1350 q 454 1283 418 1306 q 546 1260 490 1260 q 638 1283 601 1260 q 692 1350 674 1306 l 872 1350 q 756 1173 842 1232 q 546 1114 669 1114 q 337 1173 424 1114 q 219 1350 250 1232 z "},"Ê":{"ha":1083,"x_min":74,"x_max":1011,"o":"m 968 611 l 968 431 l 222 431 l 222 611 l 968 611 m 381 521 l 311 79 l 208 196 l 1011 196 l 1011 0 l 74 0 l 154 521 l 74 1042 l 1004 1042 l 1004 846 l 208 846 l 311 963 l 381 521 m 419 1346 l 671 1346 l 879 1122 l 681 1122 l 493 1267 l 597 1267 l 410 1122 l 213 1122 l 419 1346 z "},"Ế":{"ha":1083,"x_min":74,"x_max":1092,"o":"m 968 611 l 968 431 l 222 431 l 222 611 l 968 611 m 381 521 l 311 79 l 208 196 l 1011 196 l 1011 0 l 74 0 l 154 521 l 74 1042 l 1004 1042 l 1004 846 l 208 846 l 311 963 l 381 521 m 876 1507 l 1092 1507 l 936 1301 l 754 1301 l 876 1507 m 422 1346 l 672 1346 l 882 1122 l 682 1122 l 494 1267 l 600 1267 l 413 1122 l 214 1122 l 422 1346 z "},"Ḙ":{"ha":1083,"x_min":74,"x_max":1011,"o":"m 968 611 l 968 431 l 222 431 l 222 611 l 968 611 m 381 521 l 311 79 l 208 196 l 1011 196 l 1011 0 l 74 0 l 154 521 l 74 1042 l 1004 1042 l 1004 846 l 208 846 l 311 963 l 381 521 m 450 -58 l 693 -58 l 892 -308 l 703 -308 l 519 -121 l 624 -121 l 442 -308 l 251 -308 l 450 -58 z "},"Ệ":{"ha":1083,"x_min":74,"x_max":1011,"o":"m 968 611 l 968 431 l 222 431 l 222 611 l 968 611 m 381 521 l 311 79 l 208 196 l 1011 196 l 1011 0 l 74 0 l 154 521 l 74 1042 l 1004 1042 l 1004 846 l 208 846 l 311 963 l 381 521 m 571 -314 q 469 -281 508 -314 q 429 -194 429 -249 q 469 -106 429 -139 q 571 -74 508 -74 q 674 -106 635 -74 q 713 -194 713 -139 q 674 -281 713 -249 q 571 -314 635 -314 m 419 1346 l 671 1346 l 879 1122 l 681 1122 l 493 1267 l 597 1267 l 410 1122 l 213 1122 l 419 1346 z "},"Ề":{"ha":1083,"x_min":74,"x_max":1011,"o":"m 968 611 l 968 431 l 222 431 l 222 611 l 968 611 m 381 521 l 311 79 l 208 196 l 1011 196 l 1011 0 l 74 0 l 154 521 l 74 1042 l 1004 1042 l 1004 846 l 208 846 l 311 963 l 381 521 m 843 1507 l 965 1301 l 783 1301 l 628 1507 l 843 1507 m 422 1346 l 672 1346 l 882 1122 l 682 1122 l 494 1267 l 600 1267 l 413 1122 l 214 1122 l 422 1346 z "},"Ể":{"ha":1083,"x_min":74,"x_max":1044,"o":"m 968 611 l 968 431 l 222 431 l 222 611 l 968 611 m 381 521 l 311 79 l 208 196 l 1011 196 l 1011 0 l 74 0 l 154 521 l 74 1042 l 1004 1042 l 1004 846 l 208 846 l 311 963 l 381 521 m 818 1271 l 774 1336 q 838 1367 818 1350 q 857 1401 857 1383 q 775 1444 857 1444 q 733 1442 756 1444 q 689 1433 711 1439 l 689 1557 q 751 1571 713 1565 q 833 1576 789 1576 q 990 1541 933 1576 q 1046 1443 1046 1506 q 990 1340 1046 1383 q 818 1271 933 1297 m 422 1346 l 672 1346 l 882 1122 l 682 1122 l 494 1267 l 600 1267 l 413 1122 l 214 1122 l 422 1346 z "},"Ễ":{"ha":1083,"x_min":74,"x_max":1011,"o":"m 968 611 l 968 431 l 222 431 l 222 611 l 968 611 m 381 521 l 311 79 l 208 196 l 1011 196 l 1011 0 l 74 0 l 154 521 l 74 1042 l 1004 1042 l 1004 846 l 208 846 l 311 963 l 381 521 m 238 1394 q 289 1551 243 1492 q 415 1611 335 1611 q 487 1601 456 1611 q 543 1576 518 1590 q 590 1551 568 1561 q 633 1540 613 1540 q 674 1558 658 1540 q 696 1610 690 1576 l 840 1610 q 789 1452 835 1510 q 661 1394 743 1394 q 590 1406 622 1394 q 533 1430 558 1417 q 486 1454 508 1443 q 443 1465 464 1465 q 402 1447 418 1465 q 381 1394 386 1429 l 238 1394 m 419 1346 l 671 1346 l 879 1122 l 681 1122 l 493 1267 l 597 1267 l 410 1122 l 213 1122 l 419 1346 z "},"Ȅ":{"ha":1083,"x_min":74,"x_max":1011,"o":"m 968 611 l 968 431 l 222 431 l 222 611 l 968 611 m 381 521 l 311 79 l 208 196 l 1011 196 l 1011 0 l 74 0 l 154 521 l 74 1042 l 1004 1042 l 1004 846 l 208 846 l 311 963 l 381 521 m 647 1346 l 817 1122 l 608 1122 l 421 1346 l 647 1346 m 313 1346 l 481 1122 l 274 1122 l 85 1346 l 313 1346 z "},"Ë":{"ha":1083,"x_min":74,"x_max":1011,"o":"m 968 611 l 968 431 l 222 431 l 222 611 l 968 611 m 381 521 l 311 79 l 208 196 l 1011 196 l 1011 0 l 74 0 l 154 521 l 74 1042 l 1004 1042 l 1004 846 l 208 846 l 311 963 l 381 521 m 336 1132 q 240 1164 276 1132 q 204 1249 204 1196 q 240 1331 204 1300 q 336 1363 276 1363 q 433 1331 397 1363 q 469 1249 469 1300 q 433 1164 469 1196 q 336 1132 397 1132 m 757 1132 q 660 1164 697 1132 q 624 1249 624 1196 q 660 1331 624 1300 q 757 1363 697 1363 q 853 1331 817 1363 q 890 1249 890 1300 q 853 1164 890 1196 q 757 1132 817 1132 z "},"Ė":{"ha":1083,"x_min":74,"x_max":1011,"o":"m 968 611 l 968 431 l 222 431 l 222 611 l 968 611 m 381 521 l 311 79 l 208 196 l 1011 196 l 1011 0 l 74 0 l 154 521 l 74 1042 l 1004 1042 l 1004 846 l 208 846 l 311 963 l 381 521 m 546 1132 q 444 1165 483 1132 q 404 1253 404 1197 q 444 1340 404 1307 q 546 1374 483 1374 q 649 1340 610 1374 q 688 1253 688 1307 q 649 1165 688 1197 q 546 1132 610 1132 z "},"Ẹ":{"ha":1083,"x_min":74,"x_max":1011,"o":"m 968 611 l 968 431 l 222 431 l 222 611 l 968 611 m 381 521 l 311 79 l 208 196 l 1011 196 l 1011 0 l 74 0 l 154 521 l 74 1042 l 1004 1042 l 1004 846 l 208 846 l 311 963 l 381 521 m 571 -314 q 469 -281 508 -314 q 429 -194 429 -249 q 469 -106 429 -139 q 571 -74 508 -74 q 674 -106 635 -74 q 713 -194 713 -139 q 674 -281 713 -249 q 571 -314 635 -314 z "},"È":{"ha":1083,"x_min":74,"x_max":1011,"o":"m 968 611 l 968 431 l 222 431 l 222 611 l 968 611 m 381 521 l 311 79 l 208 196 l 1011 196 l 1011 0 l 74 0 l 154 521 l 74 1042 l 1004 1042 l 1004 846 l 208 846 l 311 963 l 381 521 m 474 1346 l 678 1122 l 440 1122 l 206 1346 l 474 1346 z "},"Ẻ":{"ha":1083,"x_min":74,"x_max":1011,"o":"m 968 611 l 968 431 l 222 431 l 222 611 l 968 611 m 381 521 l 311 79 l 208 196 l 1011 196 l 1011 0 l 74 0 l 154 521 l 74 1042 l 1004 1042 l 1004 846 l 208 846 l 311 963 l 381 521 m 492 1103 l 444 1182 q 540 1209 511 1193 q 568 1244 568 1225 q 546 1271 568 1263 q 481 1279 524 1279 q 419 1275 447 1279 q 361 1265 392 1271 l 361 1390 q 435 1406 389 1399 q 532 1413 482 1413 q 706 1380 646 1413 q 767 1276 767 1347 q 703 1169 767 1213 q 492 1103 639 1126 z "},"Ȇ":{"ha":1083,"x_min":74,"x_max":1011,"o":"m 968 611 l 968 431 l 222 431 l 222 611 l 968 611 m 381 521 l 311 79 l 208 196 l 1011 196 l 1011 0 l 74 0 l 154 521 l 74 1042 l 1004 1042 l 1004 846 l 208 846 l 311 963 l 381 521 m 872 1118 l 692 1118 q 638 1185 674 1161 q 547 1208 601 1208 q 455 1185 492 1208 q 400 1118 418 1161 l 219 1118 q 337 1295 250 1236 q 547 1354 424 1354 q 757 1295 671 1354 q 872 1118 843 1236 z "},"Ē":{"ha":1083,"x_min":74,"x_max":1011,"o":"m 968 611 l 968 431 l 222 431 l 222 611 l 968 611 m 381 521 l 311 79 l 208 196 l 1011 196 l 1011 0 l 74 0 l 154 521 l 74 1042 l 1004 1042 l 1004 846 l 208 846 l 311 963 l 381 521 m 226 1157 l 226 1301 l 865 1301 l 865 1157 l 226 1157 z "},"Ḗ":{"ha":1083,"x_min":74,"x_max":1011,"o":"m 968 611 l 968 431 l 222 431 l 222 611 l 968 611 m 381 521 l 311 79 l 208 196 l 1011 196 l 1011 0 l 74 0 l 154 521 l 74 1042 l 1004 1042 l 1004 846 l 208 846 l 311 963 l 381 521 m 226 1157 l 226 1301 l 865 1301 l 865 1157 l 226 1157 m 601 1607 l 869 1607 l 635 1383 l 397 1383 l 601 1607 z "},"Ḕ":{"ha":1083,"x_min":74,"x_max":1011,"o":"m 968 611 l 968 431 l 222 431 l 222 611 l 968 611 m 381 521 l 311 79 l 208 196 l 1011 196 l 1011 0 l 74 0 l 154 521 l 74 1042 l 1004 1042 l 1004 846 l 208 846 l 311 963 l 381 521 m 228 1157 l 228 1301 l 865 1301 l 865 1157 l 228 1157 m 474 1606 l 678 1383 l 440 1383 l 206 1606 l 474 1606 z "},"Ę":{"ha":1083,"x_min":74,"x_max":1011,"o":"m 968 611 l 968 431 l 222 431 l 222 611 l 968 611 m 381 521 l 311 79 l 208 196 l 1011 196 l 1011 0 l 74 0 l 154 521 l 74 1042 l 1004 1042 l 1004 846 l 208 846 l 311 963 l 381 521 m 893 25 l 981 18 l 981 0 l 1011 0 q 924 -31 961 -14 q 865 -66 886 -49 q 843 -103 843 -83 q 928 -142 843 -142 q 972 -140 951 -142 q 1011 -133 993 -137 l 1011 -265 q 953 -278 993 -272 q 872 -283 914 -283 q 725 -247 781 -283 q 669 -151 669 -211 q 724 -49 669 -92 q 893 25 779 -6 z "},"Ɛ":{"ha":1126,"x_min":61,"x_max":1092,"o":"m 1063 713 l 826 713 q 745 834 814 792 q 556 876 676 876 q 380 842 438 876 q 322 743 322 807 q 373 650 322 686 q 543 614 424 614 l 728 614 l 728 449 l 543 449 q 399 434 453 449 q 322 390 344 419 q 300 318 300 361 q 367 206 300 246 q 564 165 435 165 q 772 210 700 165 q 856 338 844 254 l 1092 338 q 1020 149 1086 229 q 838 24 954 68 q 564 -21 721 -21 q 292 21 404 -21 q 120 135 179 63 q 61 301 61 208 q 112 444 61 388 q 258 528 163 501 q 483 549 353 556 l 483 522 q 258 555 346 521 q 127 647 169 589 q 85 775 85 704 q 141 926 85 863 q 301 1026 197 990 q 543 1063 404 1063 q 818 1016 706 1063 q 993 890 931 969 q 1063 713 1056 811 z "},"Ǝ":{"ha":1083,"x_min":72,"x_max":1010,"o":"m 115 611 l 860 611 l 860 431 l 115 431 l 115 611 m 701 521 l 772 963 l 875 846 l 79 846 l 79 1042 l 1010 1042 l 929 521 l 1010 0 l 72 0 l 72 196 l 875 196 l 772 79 l 701 521 z "},"Ʃ":{"ha":1065,"x_min":53,"x_max":1015,"o":"m 53 0 l 53 175 l 519 557 l 519 486 l 67 868 l 67 1042 l 997 1042 l 997 850 l 157 850 l 242 978 l 689 601 l 689 440 l 269 99 l 168 192 l 1015 192 l 1015 0 l 53 0 z "},"Ɇ":{"ha":1083,"x_min":74,"x_max":1011,"o":"m 760 1211 l 950 1211 l 492 -169 l 303 -169 l 760 1211 m 968 611 l 968 431 l 222 431 l 222 611 l 968 611 m 381 521 l 311 79 l 208 196 l 1011 196 l 1011 0 l 74 0 l 154 521 l 74 1042 l 1004 1042 l 1004 846 l 208 846 l 311 963 l 381 521 z "},"Ẽ":{"ha":1083,"x_min":74,"x_max":1011,"o":"m 968 611 l 968 431 l 222 431 l 222 611 l 968 611 m 381 521 l 311 79 l 208 196 l 1011 196 l 1011 0 l 74 0 l 154 521 l 74 1042 l 1004 1042 l 1004 846 l 208 846 l 311 963 l 381 521 m 192 1131 q 258 1291 204 1232 q 411 1350 311 1350 q 485 1339 450 1350 q 554 1315 521 1328 q 617 1290 588 1301 q 671 1279 646 1279 q 721 1296 701 1279 q 744 1344 740 1313 l 900 1344 q 833 1185 888 1244 q 679 1125 779 1125 q 606 1136 642 1125 q 537 1161 569 1147 q 474 1186 504 1175 q 421 1197 444 1197 q 371 1180 390 1197 q 347 1131 351 1163 l 192 1131 z "},"Ḛ":{"ha":1083,"x_min":74,"x_max":1011,"o":"m 968 611 l 968 431 l 222 431 l 222 611 l 968 611 m 381 521 l 311 79 l 208 196 l 1011 196 l 1011 0 l 74 0 l 154 521 l 74 1042 l 1004 1042 l 1004 846 l 208 846 l 311 963 l 381 521 m 240 -294 q 294 -119 247 -185 q 435 -54 342 -54 q 506 -66 471 -54 q 572 -92 540 -78 q 631 -119 603 -107 q 682 -131 658 -131 q 731 -111 711 -131 q 757 -57 751 -92 l 903 -57 q 850 -230 897 -164 q 710 -296 803 -296 q 638 -284 672 -296 q 572 -258 603 -272 q 513 -231 540 -243 q 463 -219 486 -219 q 414 -239 433 -219 q 388 -294 394 -258 l 240 -294 z "},"Ə":{"ha":1281,"x_min":54,"x_max":1224,"o":"m 635 1063 q 885 1021 776 1063 q 1070 905 994 979 q 1185 732 1146 831 q 1224 519 1224 633 q 1149 236 1224 357 q 943 47 1075 115 q 638 -21 811 -21 q 388 24 496 -21 q 205 150 279 69 q 92 340 131 231 q 54 579 54 450 l 1015 579 l 1015 414 l 210 414 l 297 472 q 347 318 304 385 q 462 213 389 251 q 636 175 535 175 q 821 215 743 175 q 942 332 899 256 q 985 517 985 408 q 942 703 985 626 q 822 822 900 781 q 635 864 743 864 q 474 838 542 864 q 364 765 407 811 q 301 660 321 719 l 65 660 q 163 870 88 779 q 359 1012 239 961 q 635 1063 479 1063 z "},"Ʒ":{"ha":1113,"x_min":25,"x_max":1056,"o":"m 88 1042 l 1006 1042 l 1006 868 l 550 543 l 521 614 l 622 614 q 867 578 772 614 q 1009 476 963 543 q 1056 318 1056 410 q 998 143 1056 219 q 828 23 940 67 q 553 -21 717 -21 q 280 24 396 -21 q 98 149 164 68 q 25 338 32 229 l 261 338 q 345 210 274 254 q 553 165 417 165 q 749 208 682 165 q 817 329 817 250 q 792 408 817 375 q 713 460 768 442 q 563 478 657 478 l 406 478 l 406 639 l 876 974 l 914 854 l 88 854 l 88 1042 z "},"Ǯ":{"ha":1113,"x_min":25,"x_max":1056,"o":"m 88 1042 l 1006 1042 l 1006 868 l 550 543 l 521 614 l 622 614 q 867 578 772 614 q 1009 476 963 543 q 1056 318 1056 410 q 998 143 1056 219 q 828 23 940 67 q 553 -21 717 -21 q 280 24 396 -21 q 98 149 164 68 q 25 338 32 229 l 261 338 q 345 210 274 254 q 553 165 417 165 q 749 208 682 165 q 817 329 817 250 q 792 408 817 375 q 713 460 768 442 q 563 478 657 478 l 406 478 l 406 639 l 876 974 l 914 854 l 88 854 l 88 1042 m 658 1122 l 407 1122 l 199 1344 l 399 1344 l 585 1200 l 481 1200 l 668 1344 l 867 1344 l 658 1122 z "},"Ƹ":{"ha":1113,"x_min":57,"x_max":1088,"o":"m 1025 1042 l 1025 854 l 199 854 l 236 974 l 707 639 l 707 478 l 550 478 q 401 460 457 478 q 320 408 344 442 q 296 329 296 375 q 363 208 296 250 q 560 165 431 165 q 767 210 696 165 q 851 338 839 254 l 1088 338 q 1015 149 1081 229 q 833 24 949 68 q 560 -21 717 -21 q 284 23 396 -21 q 115 143 172 67 q 57 318 57 219 q 103 476 57 410 q 246 578 150 543 q 490 614 342 614 l 592 614 l 563 543 l 107 868 l 107 1042 l 1025 1042 z "},"F":{"ha":1049,"x_min":107,"x_max":997,"o":"m 221 600 l 974 600 l 974 399 l 221 399 l 221 600 m 997 1042 l 997 839 l 224 839 l 343 960 l 343 0 l 107 0 l 107 1042 l 997 1042 z "},"Ḟ":{"ha":1049,"x_min":107,"x_max":997,"o":"m 221 600 l 974 600 l 974 399 l 221 399 l 221 600 m 997 1042 l 997 839 l 224 839 l 343 960 l 343 0 l 107 0 l 107 1042 l 997 1042 m 540 1132 q 438 1165 478 1132 q 399 1253 399 1197 q 438 1340 399 1307 q 540 1374 478 1374 q 643 1340 604 1374 q 682 1253 682 1307 q 643 1165 682 1197 q 540 1132 604 1132 z "},"Ƒ":{"ha":1049,"x_min":-165,"x_max":997,"o":"m 221 600 l 974 600 l 974 399 l 221 399 l 221 600 m 343 75 q 261 -165 343 -81 q 17 -250 179 -250 q -78 -243 -31 -250 q -165 -221 -126 -236 l -165 -42 q -108 -58 -140 -51 q -37 -65 -76 -65 q 72 -25 36 -65 q 107 96 107 15 l 107 1042 l 997 1042 l 997 839 l 224 839 l 343 960 l 343 75 z "},"G":{"ha":1326,"x_min":57,"x_max":1244,"o":"m 1161 451 q 1124 272 1160 357 q 1024 120 1089 186 q 863 17 958 54 q 640 -21 767 -21 q 412 16 518 -21 q 226 122 306 53 q 101 292 146 192 q 57 521 57 393 q 102 749 57 649 q 228 919 147 850 q 417 1026 308 989 q 653 1063 525 1063 q 942 1010 819 1063 q 1140 867 1064 958 q 1233 657 1215 775 l 996 657 q 935 767 982 721 q 817 838 889 813 q 653 863 746 863 q 463 823 543 863 q 340 707 383 783 q 296 521 296 631 q 342 333 296 411 q 472 215 388 256 q 672 174 557 174 q 869 209 785 174 q 1003 309 954 244 q 1060 463 1053 374 l 1161 451 m 704 356 l 704 526 l 1244 526 l 1244 0 l 1075 0 l 1043 422 l 1092 356 l 704 356 z "},"Ǵ":{"ha":1326,"x_min":57,"x_max":1244,"o":"m 1161 451 q 1124 272 1160 357 q 1024 120 1089 186 q 863 17 958 54 q 640 -21 767 -21 q 412 16 518 -21 q 226 122 306 53 q 101 292 146 192 q 57 521 57 393 q 102 749 57 649 q 228 919 147 850 q 417 1026 308 989 q 653 1063 525 1063 q 942 1010 819 1063 q 1140 867 1064 958 q 1233 657 1215 775 l 996 657 q 935 767 982 721 q 817 838 889 813 q 653 863 746 863 q 463 823 543 863 q 340 707 383 783 q 296 521 296 631 q 342 333 296 411 q 472 215 388 256 q 672 174 557 174 q 869 209 785 174 q 1003 309 954 244 q 1060 463 1053 374 l 1161 451 m 704 356 l 704 526 l 1244 526 l 1244 0 l 1075 0 l 1043 422 l 1092 356 l 704 356 m 708 1346 l 976 1346 l 742 1122 l 504 1122 l 708 1346 z "},"Ğ":{"ha":1326,"x_min":57,"x_max":1244,"o":"m 1161 451 q 1124 272 1160 357 q 1024 120 1089 186 q 863 17 958 54 q 640 -21 767 -21 q 412 16 518 -21 q 226 122 306 53 q 101 292 146 192 q 57 521 57 393 q 102 749 57 649 q 228 919 147 850 q 417 1026 308 989 q 653 1063 525 1063 q 942 1010 819 1063 q 1140 867 1064 958 q 1233 657 1215 775 l 996 657 q 935 767 982 721 q 817 838 889 813 q 653 863 746 863 q 463 823 543 863 q 340 707 383 783 q 296 521 296 631 q 342 333 296 411 q 472 215 388 256 q 672 174 557 174 q 869 209 785 174 q 1003 309 954 244 q 1060 463 1053 374 l 1161 451 m 704 356 l 704 526 l 1244 526 l 1244 0 l 1075 0 l 1043 422 l 1092 356 l 704 356 m 326 1350 l 507 1350 q 561 1283 525 1306 q 653 1260 597 1260 q 744 1283 708 1260 q 799 1350 781 1306 l 979 1350 q 863 1173 949 1232 q 653 1114 776 1114 q 444 1173 531 1114 q 326 1350 357 1232 z "},"Ǧ":{"ha":1326,"x_min":57,"x_max":1244,"o":"m 1161 451 q 1124 272 1160 357 q 1024 120 1089 186 q 863 17 958 54 q 640 -21 767 -21 q 412 16 518 -21 q 226 122 306 53 q 101 292 146 192 q 57 521 57 393 q 102 749 57 649 q 228 919 147 850 q 417 1026 308 989 q 653 1063 525 1063 q 942 1010 819 1063 q 1140 867 1064 958 q 1233 657 1215 775 l 996 657 q 935 767 982 721 q 817 838 889 813 q 653 863 746 863 q 463 823 543 863 q 340 707 383 783 q 296 521 296 631 q 342 333 296 411 q 472 215 388 256 q 672 174 557 174 q 869 209 785 174 q 1003 309 954 244 q 1060 463 1053 374 l 1161 451 m 704 356 l 704 526 l 1244 526 l 1244 0 l 1075 0 l 1043 422 l 1092 356 l 704 356 m 779 1122 l 528 1122 l 319 1344 l 518 1344 l 706 1200 l 601 1200 l 789 1344 l 986 1344 l 779 1122 z "},"Ĝ":{"ha":1326,"x_min":57,"x_max":1244,"o":"m 1161 451 q 1124 272 1160 357 q 1024 120 1089 186 q 863 17 958 54 q 640 -21 767 -21 q 412 16 518 -21 q 226 122 306 53 q 101 292 146 192 q 57 521 57 393 q 102 749 57 649 q 228 919 147 850 q 417 1026 308 989 q 653 1063 525 1063 q 942 1010 819 1063 q 1140 867 1064 958 q 1233 657 1215 775 l 996 657 q 935 767 982 721 q 817 838 889 813 q 653 863 746 863 q 463 823 543 863 q 340 707 383 783 q 296 521 296 631 q 342 333 296 411 q 472 215 388 256 q 672 174 557 174 q 869 209 785 174 q 1003 309 954 244 q 1060 463 1053 374 l 1161 451 m 704 356 l 704 526 l 1244 526 l 1244 0 l 1075 0 l 1043 422 l 1092 356 l 704 356 m 526 1346 l 778 1346 l 986 1122 l 788 1122 l 600 1267 l 704 1267 l 517 1122 l 319 1122 l 526 1346 z "},"Ģ":{"ha":1326,"x_min":57,"x_max":1244,"o":"m 1161 451 q 1124 272 1160 357 q 1024 120 1089 186 q 863 17 958 54 q 640 -21 767 -21 q 412 16 518 -21 q 226 122 306 53 q 101 292 146 192 q 57 521 57 393 q 102 749 57 649 q 228 919 147 850 q 417 1026 308 989 q 653 1063 525 1063 q 942 1010 819 1063 q 1140 867 1064 958 q 1233 657 1215 775 l 996 657 q 935 767 982 721 q 817 838 889 813 q 653 863 746 863 q 463 823 543 863 q 340 707 383 783 q 296 521 296 631 q 342 333 296 411 q 472 215 388 256 q 672 174 557 174 q 869 209 785 174 q 1003 309 954 244 q 1060 463 1053 374 l 1161 451 m 704 356 l 704 526 l 1244 526 l 1244 0 l 1075 0 l 1043 422 l 1092 356 l 704 356 m 540 -397 l 653 -206 l 663 -269 q 568 -241 604 -269 q 532 -167 532 -212 q 567 -92 532 -119 q 663 -64 603 -64 q 758 -92 722 -64 q 793 -169 793 -121 q 777 -231 793 -203 q 721 -312 761 -258 l 656 -397 l 540 -397 z "},"Ġ":{"ha":1326,"x_min":57,"x_max":1244,"o":"m 1161 451 q 1124 272 1160 357 q 1024 120 1089 186 q 863 17 958 54 q 640 -21 767 -21 q 412 16 518 -21 q 226 122 306 53 q 101 292 146 192 q 57 521 57 393 q 102 749 57 649 q 228 919 147 850 q 417 1026 308 989 q 653 1063 525 1063 q 942 1010 819 1063 q 1140 867 1064 958 q 1233 657 1215 775 l 996 657 q 935 767 982 721 q 817 838 889 813 q 653 863 746 863 q 463 823 543 863 q 340 707 383 783 q 296 521 296 631 q 342 333 296 411 q 472 215 388 256 q 672 174 557 174 q 869 209 785 174 q 1003 309 954 244 q 1060 463 1053 374 l 1161 451 m 704 356 l 704 526 l 1244 526 l 1244 0 l 1075 0 l 1043 422 l 1092 356 l 704 356 m 654 1132 q 552 1165 592 1132 q 513 1253 513 1197 q 552 1340 513 1307 q 654 1374 592 1374 q 757 1340 718 1374 q 796 1253 796 1307 q 757 1165 796 1197 q 654 1132 718 1132 z "},"Ɠ":{"ha":1349,"x_min":60,"x_max":1400,"o":"m 643 -21 q 413 16 519 -21 q 228 122 307 53 q 104 292 149 192 q 60 521 60 393 q 105 751 60 650 q 231 921 150 851 q 417 1026 311 990 q 646 1063 524 1063 q 925 1001 817 1063 q 1103 811 1033 939 l 1046 818 q 985 924 1013 868 q 958 1040 958 979 q 987 1149 958 1100 q 1075 1225 1015 1197 q 1225 1253 1135 1253 q 1319 1245 1275 1253 q 1400 1224 1363 1238 l 1400 1044 q 1342 1060 1371 1054 q 1279 1067 1313 1067 q 1180 1037 1211 1067 q 1149 958 1149 1007 q 1161 886 1149 926 q 1192 796 1174 846 q 1215 728 1203 764 q 1235 657 1228 692 l 997 657 q 936 767 982 721 q 819 838 890 813 q 656 863 747 863 q 465 823 546 863 q 341 707 385 783 q 297 521 297 631 q 343 333 297 410 q 474 215 389 256 q 675 174 560 174 q 871 208 786 174 q 1006 308 956 243 q 1061 463 1056 374 l 1164 451 q 1126 272 1161 357 q 1025 120 1090 186 q 864 17 960 54 q 643 -21 768 -21 m 707 368 l 707 526 l 1246 526 l 1246 0 l 1076 0 l 1044 422 l 1093 368 l 707 368 z "},"Ɂ":{"ha":1015,"x_min":14,"x_max":993,"o":"m 532 1063 q 787 1022 685 1063 q 941 910 889 981 q 993 746 993 839 q 977 644 993 689 q 924 558 961 599 q 822 471 886 518 l 735 406 q 660 338 686 371 q 623 265 633 306 q 613 165 613 224 l 613 0 l 378 0 l 378 201 q 394 335 378 279 q 447 434 411 390 q 538 518 482 478 l 632 588 q 706 647 679 624 q 744 691 733 669 q 754 742 754 713 q 694 842 754 807 q 521 876 633 876 q 331 833 399 876 q 249 708 264 790 l 14 708 q 84 888 22 807 q 258 1015 146 968 q 532 1063 371 1063 z "},"Ḡ":{"ha":1326,"x_min":57,"x_max":1244,"o":"m 1161 451 q 1124 272 1160 357 q 1024 120 1089 186 q 863 17 958 54 q 640 -21 767 -21 q 412 16 518 -21 q 226 122 306 53 q 101 292 146 192 q 57 521 57 393 q 102 749 57 649 q 228 919 147 850 q 417 1026 308 989 q 653 1063 525 1063 q 942 1010 819 1063 q 1140 867 1064 958 q 1233 657 1215 775 l 996 657 q 935 767 982 721 q 817 838 889 813 q 653 863 746 863 q 463 823 543 863 q 340 707 383 783 q 296 521 296 631 q 342 333 296 411 q 472 215 388 256 q 672 174 557 174 q 869 209 785 174 q 1003 309 954 244 q 1060 463 1053 374 l 1161 451 m 704 356 l 704 526 l 1244 526 l 1244 0 l 1075 0 l 1043 422 l 1092 356 l 704 356 m 335 1157 l 335 1301 l 974 1301 l 974 1157 l 335 1157 z "},"Ɡ":{"ha":1297,"x_min":57,"x_max":1196,"o":"m 961 301 l 961 471 l 971 508 l 971 721 l 961 757 l 961 1042 l 1196 1042 l 1196 321 q 1153 70 1196 178 q 1031 -108 1110 -37 q 842 -215 951 -179 q 601 -250 732 -250 q 361 -215 472 -250 q 154 -112 250 -179 l 154 100 q 376 -17 264 17 q 585 -50 488 -50 q 789 -10 704 -50 q 917 109 874 31 q 961 301 961 188 m 514 142 q 333 174 417 142 q 188 267 250 207 q 92 413 126 328 q 57 601 57 499 q 92 792 57 707 q 188 937 126 876 q 333 1030 250 997 q 514 1063 417 1063 q 699 1031 615 1063 q 848 949 783 1000 q 958 835 913 897 q 1026 711 1003 772 q 1050 600 1050 650 q 1026 484 1050 546 q 958 361 1003 422 q 848 251 913 300 q 699 172 783 201 q 514 142 615 142 m 586 335 q 803 400 707 335 q 971 601 900 465 q 803 804 901 739 q 586 869 704 869 q 431 836 496 869 q 331 742 365 803 q 296 601 296 682 q 331 463 296 524 q 431 369 365 403 q 586 335 496 335 z "},"Ǥ":{"ha":1368,"x_min":57,"x_max":1367,"o":"m 658 381 l 1367 381 l 1367 249 l 658 249 l 658 381 m 722 575 l 1244 575 l 1244 497 l 1168 497 q 1135 288 1168 383 q 1038 124 1103 193 q 874 17 972 54 q 646 -21 776 -21 q 340 46 472 -21 q 132 234 207 113 q 57 521 57 356 q 102 749 57 649 q 228 919 147 850 q 417 1026 308 989 q 653 1063 525 1063 q 935 1013 817 1063 q 1126 878 1053 964 q 1228 682 1200 793 l 981 682 q 924 774 967 733 q 813 840 881 815 q 658 864 746 864 q 467 824 549 864 q 340 707 385 783 q 296 521 296 631 q 338 338 296 417 q 463 215 381 260 q 669 171 546 171 q 878 203 793 171 q 1009 296 964 236 q 1054 440 1054 356 l 1054 485 l 1094 424 l 722 424 l 722 575 m 1064 542 l 1244 542 l 1244 1 l 1090 1 l 1064 542 z "},"Ȝ":{"ha":1113,"x_min":25,"x_max":1056,"o":"m 88 1042 l 1006 1042 l 1006 868 l 550 543 l 521 614 l 622 614 q 867 578 772 614 q 1009 476 963 543 q 1056 318 1056 410 q 998 143 1056 219 q 828 23 940 67 q 553 -21 717 -21 q 280 24 396 -21 q 98 149 164 68 q 25 338 32 229 l 261 338 q 345 210 274 254 q 553 165 417 165 q 749 208 682 165 q 817 329 817 250 q 792 408 817 375 q 713 460 768 442 q 563 478 657 478 l 406 478 l 406 639 l 876 974 l 914 854 l 88 854 l 88 1042 z "},"H":{"ha":1283,"x_min":107,"x_max":1176,"o":"m 107 1042 l 343 1042 l 343 0 l 107 0 l 107 1042 m 940 1042 l 1176 1042 l 1176 0 l 940 0 l 940 1042 m 236 631 l 1044 631 l 1044 424 l 236 424 l 236 631 z "},"Ħ":{"ha":1329,"x_min":32,"x_max":1297,"o":"m 129 1042 l 365 1042 l 365 0 l 129 0 l 129 1042 m 964 1042 l 1200 1042 l 1200 0 l 964 0 l 964 1042 m 243 604 l 1051 604 l 1051 404 l 243 404 l 243 604 m 32 926 l 1297 926 l 1297 763 l 32 763 l 32 926 z "},"Ḫ":{"ha":1283,"x_min":107,"x_max":1176,"o":"m 107 1042 l 343 1042 l 343 0 l 107 0 l 107 1042 m 940 1042 l 1176 1042 l 1176 0 l 940 0 l 940 1042 m 236 631 l 1044 631 l 1044 424 l 236 424 l 236 631 m 339 -58 l 515 -58 q 562 -142 525 -112 q 654 -172 599 -172 q 746 -142 710 -172 q 794 -58 782 -112 l 968 -58 q 870 -248 951 -179 q 654 -317 789 -317 q 440 -248 521 -317 q 339 -58 358 -179 z "},"Ȟ":{"ha":1283,"x_min":107,"x_max":1176,"o":"m 107 1042 l 343 1042 l 343 0 l 107 0 l 107 1042 m 940 1042 l 1176 1042 l 1176 0 l 940 0 l 940 1042 m 236 631 l 1044 631 l 1044 424 l 236 424 l 236 631 m 767 1122 l 517 1122 l 307 1344 l 507 1344 l 693 1200 l 589 1200 l 776 1344 l 975 1344 l 767 1122 z "},"Ḩ":{"ha":1283,"x_min":-15,"x_max":1176,"o":"m 107 1042 l 343 1042 l 343 0 l 107 0 l 107 1042 m 940 1042 l 1176 1042 l 1176 0 l 940 0 l 940 1042 m 236 631 l 1044 631 l 1044 424 l 236 424 l 236 631 m 172 22 l 293 22 l 222 -99 l 163 -94 q 231 -67 196 -76 q 311 -57 265 -57 q 450 -92 401 -57 q 499 -189 499 -128 q 435 -296 499 -254 q 253 -337 372 -337 q 76 -299 147 -337 q -17 -193 4 -261 l 142 -193 q 181 -224 154 -212 q 253 -235 207 -235 q 323 -220 300 -235 q 346 -183 346 -206 q 326 -151 346 -164 q 267 -139 307 -139 q 220 -142 242 -139 q 182 -153 199 -146 l 61 -153 l 172 22 z "},"Ĥ":{"ha":1283,"x_min":107,"x_max":1176,"o":"m 107 1042 l 343 1042 l 343 0 l 107 0 l 107 1042 m 940 1042 l 1176 1042 l 1176 0 l 940 0 l 940 1042 m 236 631 l 1044 631 l 1044 424 l 236 424 l 236 631 m 515 1346 l 767 1346 l 975 1122 l 776 1122 l 589 1267 l 693 1267 l 506 1122 l 308 1122 l 515 1346 z "},"Ḧ":{"ha":1283,"x_min":107,"x_max":1176,"o":"m 107 1042 l 343 1042 l 343 0 l 107 0 l 107 1042 m 940 1042 l 1176 1042 l 1176 0 l 940 0 l 940 1042 m 236 631 l 1044 631 l 1044 424 l 236 424 l 236 631 m 431 1132 q 335 1164 371 1132 q 299 1249 299 1196 q 335 1331 299 1300 q 431 1363 371 1363 q 528 1331 492 1363 q 564 1249 564 1300 q 528 1164 564 1196 q 431 1132 492 1132 m 851 1132 q 755 1164 792 1132 q 718 1249 718 1196 q 755 1331 718 1300 q 851 1363 792 1363 q 948 1331 911 1363 q 985 1249 985 1300 q 948 1164 985 1196 q 851 1132 911 1132 z "},"Ḣ":{"ha":1283,"x_min":107,"x_max":1176,"o":"m 107 1042 l 343 1042 l 343 0 l 107 0 l 107 1042 m 940 1042 l 1176 1042 l 1176 0 l 940 0 l 940 1042 m 236 631 l 1044 631 l 1044 424 l 236 424 l 236 631 m 642 1132 q 540 1165 579 1132 q 500 1253 500 1197 q 540 1340 500 1307 q 642 1374 579 1374 q 744 1340 706 1374 q 783 1253 783 1307 q 744 1165 783 1197 q 642 1132 706 1132 z "},"Ḥ":{"ha":1283,"x_min":107,"x_max":1176,"o":"m 107 1042 l 343 1042 l 343 0 l 107 0 l 107 1042 m 940 1042 l 1176 1042 l 1176 0 l 940 0 l 940 1042 m 236 631 l 1044 631 l 1044 424 l 236 424 l 236 631 m 642 -314 q 540 -281 579 -314 q 500 -194 500 -249 q 540 -106 500 -139 q 642 -74 579 -74 q 744 -106 706 -74 q 783 -194 783 -139 q 744 -281 783 -249 q 642 -314 706 -314 z "},"Ꜧ":{"ha":1283,"x_min":107,"x_max":1176,"o":"m 107 1042 l 343 1042 l 343 0 l 107 0 l 107 1042 m 236 631 l 1044 631 l 1044 424 l 236 424 l 236 631 m 940 1042 l 1176 1042 l 1176 58 q 1140 -104 1176 -35 q 1026 -212 1103 -174 q 824 -250 949 -250 q 690 -237 753 -250 q 589 -208 628 -224 l 589 -26 q 681 -56 631 -46 q 786 -67 732 -67 q 906 -31 872 -67 q 940 92 940 4 l 940 1042 z "},"Ɦ":{"ha":1583,"x_min":29,"x_max":1476,"o":"m 642 1042 l 642 0 l 407 0 l 407 949 l 500 843 l 343 843 q 263 820 292 843 q 233 739 233 797 q 242 665 233 701 q 261 599 250 629 l 82 599 q 44 692 60 639 q 29 804 29 744 q 96 978 29 915 q 299 1042 163 1042 l 642 1042 m 1240 1042 l 1476 1042 l 1476 0 l 1240 0 l 1240 1042 m 536 631 l 1343 631 l 1343 424 l 536 424 l 536 631 z "},"Ɥ":{"ha":1171,"x_min":82,"x_max":1064,"o":"m 82 1042 l 317 1042 l 317 422 l 82 422 l 82 1042 m 828 1042 l 1064 1042 l 1064 0 l 828 0 l 828 1042 m 213 631 l 931 631 l 931 422 l 213 422 l 213 631 z "},"I":{"ha":449,"x_min":107,"x_max":343,"o":"m 107 1042 l 343 1042 l 343 0 l 107 0 l 107 1042 z "},"Ĳ":{"ha":1157,"x_min":82,"x_max":1063,"o":"m 82 1042 l 318 1042 l 318 571 l 82 571 l 82 1042 m 85 478 l 317 478 l 317 438 q 376 249 317 315 q 571 182 435 182 q 766 245 706 182 q 826 421 826 308 l 826 1042 l 1063 1042 l 1063 410 q 1001 175 1063 271 q 828 29 939 79 q 571 -21 717 -21 q 316 31 425 -21 q 147 181 207 82 q 85 421 88 279 l 85 478 z "},"Í":{"ha":449,"x_min":75,"x_max":547,"o":"m 107 1042 l 343 1042 l 343 0 l 107 0 l 107 1042 m 279 1346 l 547 1346 l 313 1122 l 75 1122 l 279 1346 z "},"Ĭ":{"ha":449,"x_min":-44,"x_max":493,"o":"m -44 1346 l 121 1346 q 153 1273 128 1299 q 225 1247 179 1247 q 295 1273 269 1247 q 329 1346 321 1299 l 493 1346 q 411 1176 482 1239 q 225 1114 340 1114 q 38 1176 110 1114 q -44 1346 -33 1239 m 107 1042 l 343 1042 l 343 0 l 107 0 l 107 1042 z "},"Ǐ":{"ha":449,"x_min":-110,"x_max":557,"o":"m 107 1042 l 343 1042 l 343 0 l 107 0 l 107 1042 m 350 1122 l 99 1122 l -110 1344 l 89 1344 l 276 1200 l 172 1200 l 360 1344 l 557 1344 l 350 1122 z "},"Î":{"ha":449,"x_min":-50,"x_max":500,"o":"m 103 1346 l 346 1346 l 500 1122 l 329 1122 l 196 1265 l 253 1265 l 119 1122 l -50 1122 l 103 1346 m 107 1042 l 343 1042 l 343 0 l 107 0 l 107 1042 z "},"Ȉ":{"ha":449,"x_min":-112,"x_max":486,"o":"m 360 1346 l 486 1122 l 304 1122 l 167 1346 l 360 1346 m 79 1346 l 206 1122 l 24 1122 l -112 1346 l 79 1346 m 107 1042 l 343 1042 l 343 0 l 107 0 l 107 1042 z "},"Ï":{"ha":449,"x_min":-32,"x_max":482,"o":"m 81 1132 q -2 1163 28 1132 q -32 1247 -32 1194 q -2 1331 -32 1300 q 81 1363 28 1363 q 163 1331 132 1363 q 193 1247 193 1300 q 163 1163 193 1194 q 81 1132 132 1132 m 369 1132 q 288 1163 318 1132 q 257 1247 257 1194 q 288 1331 257 1300 q 369 1363 318 1363 q 451 1331 421 1363 q 482 1247 482 1300 q 451 1163 482 1194 q 369 1132 421 1132 m 107 1042 l 343 1042 l 343 0 l 107 0 l 107 1042 z "},"Ḯ":{"ha":449,"x_min":-32,"x_max":547,"o":"m 81 1132 q -2 1163 28 1132 q -32 1247 -32 1194 q -2 1331 -32 1300 q 81 1363 28 1363 q 163 1331 132 1363 q 193 1247 193 1300 q 163 1163 193 1194 q 81 1132 132 1132 m 369 1132 q 288 1163 318 1132 q 257 1247 257 1194 q 288 1331 257 1300 q 369 1363 318 1363 q 451 1331 421 1363 q 482 1247 482 1300 q 451 1163 482 1194 q 369 1132 421 1132 m 107 1042 l 343 1042 l 343 0 l 107 0 l 107 1042 m 279 1647 l 547 1647 l 313 1424 l 76 1424 l 279 1647 z "},"İ":{"ha":449,"x_min":83,"x_max":367,"o":"m 107 1042 l 343 1042 l 343 0 l 107 0 l 107 1042 m 225 1132 q 123 1165 163 1132 q 83 1253 83 1197 q 123 1340 83 1307 q 225 1374 163 1374 q 328 1340 289 1374 q 367 1253 367 1307 q 328 1165 367 1197 q 225 1132 289 1132 z "},"Ị":{"ha":449,"x_min":83,"x_max":367,"o":"m 107 1042 l 343 1042 l 343 0 l 107 0 l 107 1042 m 225 -314 q 123 -281 163 -314 q 83 -194 83 -249 q 123 -106 83 -139 q 225 -74 163 -74 q 328 -106 289 -74 q 367 -194 367 -139 q 328 -281 367 -249 q 225 -314 289 -314 z "},"Ì":{"ha":449,"x_min":-117,"x_max":356,"o":"m 107 1042 l 343 1042 l 343 0 l 107 0 l 107 1042 m 151 1346 l 356 1122 l 118 1122 l -117 1346 l 151 1346 z "},"Ỉ":{"ha":449,"x_min":39,"x_max":446,"o":"m 107 1042 l 343 1042 l 343 0 l 107 0 l 107 1042 m 171 1103 l 124 1182 q 219 1209 190 1193 q 247 1244 247 1225 q 225 1271 247 1263 q 160 1279 203 1279 q 99 1275 126 1279 q 40 1265 71 1271 l 40 1390 q 115 1406 68 1399 q 211 1413 161 1413 q 385 1380 325 1413 q 446 1276 446 1347 q 382 1169 446 1213 q 171 1103 318 1126 z "},"Ȋ":{"ha":449,"x_min":-101,"x_max":550,"o":"m 107 1042 l 343 1042 l 343 0 l 107 0 l 107 1042 m 550 1118 l 369 1118 q 315 1185 351 1161 q 225 1208 279 1208 q 133 1185 169 1208 q 78 1118 96 1161 l -101 1118 q 15 1295 -71 1236 q 225 1354 101 1354 q 435 1295 349 1354 q 550 1118 521 1236 z "},"Ī":{"ha":449,"x_min":-22,"x_max":472,"o":"m -22 1156 l -22 1301 l 472 1301 l 472 1156 l -22 1156 m 107 1042 l 343 1042 l 343 0 l 107 0 l 107 1042 z "},"Į":{"ha":449,"x_min":38,"x_max":375,"o":"m 226 18 l 311 18 l 311 0 l 343 0 q 252 -48 286 -24 q 218 -103 218 -72 q 294 -142 218 -142 q 335 -140 313 -142 q 375 -133 357 -137 l 375 -265 q 318 -278 357 -272 q 239 -283 279 -283 q 93 -249 149 -283 q 38 -154 38 -214 q 87 -55 38 -97 q 226 18 136 -12 m 107 1042 l 343 1042 l 343 0 l 107 0 l 107 1042 z "},"Ɩ":{"ha":558,"x_min":101,"x_max":531,"o":"m 101 1042 l 338 1042 l 338 290 q 360 194 338 225 q 442 164 383 164 q 486 169 464 164 q 531 179 508 174 l 531 0 q 462 -15 500 -8 q 378 -21 424 -21 q 168 56 235 -21 q 101 278 101 133 l 101 1042 z "},"Ɨ":{"ha":535,"x_min":26,"x_max":508,"o":"m 26 454 l 26 619 l 508 619 l 508 454 l 26 454 m 150 1042 l 385 1042 l 385 0 l 150 0 l 150 1042 z "},"Ĩ":{"ha":449,"x_min":-37,"x_max":486,"o":"m -37 1129 q 10 1285 -31 1228 q 126 1343 50 1343 q 184 1332 160 1343 q 228 1306 208 1321 q 266 1279 247 1290 q 306 1268 285 1268 q 345 1288 331 1268 q 365 1342 360 1307 l 486 1342 q 440 1186 481 1244 q 324 1128 399 1128 q 266 1139 290 1128 q 222 1165 242 1150 q 183 1192 201 1181 q 143 1203 164 1203 q 106 1184 121 1203 q 85 1129 90 1165 l -37 1129 m 107 1042 l 343 1042 l 343 0 l 107 0 l 107 1042 z "},"Ḭ":{"ha":449,"x_min":-37,"x_max":486,"o":"m -37 -269 q 10 -113 -31 -171 q 126 -56 50 -56 q 184 -67 160 -56 q 228 -93 208 -78 q 266 -119 247 -108 q 306 -131 285 -131 q 345 -112 331 -131 q 365 -57 360 -93 l 486 -57 q 440 -212 481 -154 q 324 -271 399 -271 q 266 -260 290 -271 q 222 -233 242 -249 q 183 -207 201 -218 q 143 -196 164 -196 q 106 -215 121 -196 q 85 -269 90 -235 l -37 -269 m 107 1042 l 343 1042 l 343 0 l 107 0 l 107 1042 z "},"J":{"ha":1100,"x_min":29,"x_max":1007,"o":"m 29 506 l 261 506 l 261 465 q 320 258 261 331 q 515 185 379 185 q 710 255 650 185 q 771 449 771 325 l 771 1042 l 1007 1042 l 1007 438 q 945 188 1007 290 q 772 32 883 85 q 515 -21 661 -21 q 261 33 371 -21 q 91 192 151 88 q 31 449 31 297 l 29 506 z "},"Ĵ":{"ha":1100,"x_min":29,"x_max":1164,"o":"m 767 1346 l 1010 1346 l 1164 1122 l 993 1122 l 860 1265 l 917 1265 l 783 1122 l 614 1122 l 767 1346 m 29 506 l 261 506 l 261 465 q 320 258 261 331 q 515 185 379 185 q 710 255 650 185 q 771 449 771 325 l 771 1042 l 1007 1042 l 1007 438 q 945 188 1007 290 q 772 32 883 85 q 515 -21 661 -21 q 261 33 371 -21 q 91 192 151 88 q 31 449 31 297 l 29 506 z "},"Ʝ":{"ha":1183,"x_min":21,"x_max":1126,"o":"m 1015 438 q 957 195 1015 299 q 781 35 899 92 q 488 -21 664 -21 q 232 20 336 -21 q 74 128 128 61 q 21 278 21 196 q 51 394 21 342 q 142 485 82 447 q 290 544 201 524 q 496 565 379 565 q 740 533 622 565 q 956 449 857 500 q 1126 342 1056 399 l 1126 136 q 1001 232 1072 186 q 847 313 929 278 q 675 369 764 349 q 497 389 586 389 q 315 357 375 389 q 256 278 256 325 q 281 226 256 250 q 356 187 306 201 q 482 172 406 172 q 708 239 636 172 q 779 432 779 306 l 779 1042 l 1015 1042 l 1015 438 z "},"Ɉ":{"ha":1161,"x_min":29,"x_max":1131,"o":"m 517 696 l 1131 696 l 1131 529 l 517 529 l 517 696 m 29 506 l 261 506 l 261 465 q 320 258 261 331 q 515 185 379 185 q 710 255 650 185 q 771 449 771 325 l 771 1042 l 1007 1042 l 1007 438 q 945 188 1007 290 q 772 32 883 85 q 515 -21 661 -21 q 261 33 371 -21 q 91 192 151 88 q 31 449 31 297 l 29 506 z "},"K":{"ha":1182,"x_min":107,"x_max":1186,"o":"m 107 0 l 107 1042 l 342 1042 l 342 192 l 275 239 l 919 1042 l 1171 1042 l 319 0 l 107 0 m 604 510 l 774 661 l 1186 0 l 917 0 l 604 510 z "},"Ḱ":{"ha":1182,"x_min":107,"x_max":1186,"o":"m 107 0 l 107 1042 l 342 1042 l 342 192 l 275 239 l 919 1042 l 1171 1042 l 319 0 l 107 0 m 604 510 l 774 661 l 1186 0 l 917 0 l 604 510 m 682 1346 l 950 1346 l 715 1122 l 478 1122 l 682 1346 z "},"Ǩ":{"ha":1182,"x_min":107,"x_max":1186,"o":"m 107 0 l 107 1042 l 342 1042 l 342 192 l 275 239 l 919 1042 l 1171 1042 l 319 0 l 107 0 m 604 510 l 774 661 l 1186 0 l 917 0 l 604 510 m 753 1122 l 501 1122 l 293 1344 l 492 1344 l 679 1200 l 575 1200 l 761 1344 l 960 1344 l 753 1122 z "},"Ķ":{"ha":1182,"x_min":107,"x_max":1186,"o":"m 107 0 l 107 1042 l 342 1042 l 342 192 l 275 239 l 919 1042 l 1171 1042 l 319 0 l 107 0 m 604 510 l 774 661 l 1186 0 l 917 0 l 604 510 m 497 -397 l 610 -206 l 619 -269 q 525 -241 561 -269 q 489 -167 489 -212 q 524 -92 489 -119 q 619 -64 560 -64 q 715 -92 679 -64 q 750 -169 750 -121 q 734 -231 750 -203 q 678 -312 718 -258 l 613 -397 l 497 -397 z "},"Ḳ":{"ha":1182,"x_min":107,"x_max":1186,"o":"m 107 0 l 107 1042 l 342 1042 l 342 192 l 275 239 l 919 1042 l 1171 1042 l 319 0 l 107 0 m 604 510 l 774 661 l 1186 0 l 917 0 l 604 510 m 619 -314 q 517 -281 557 -314 q 478 -194 478 -249 q 517 -106 478 -139 q 619 -74 557 -74 q 722 -106 683 -74 q 761 -194 761 -139 q 722 -281 761 -249 q 619 -314 683 -314 z "},"Ƙ":{"ha":1207,"x_min":107,"x_max":1188,"o":"m 590 518 l 758 668 l 1188 0 l 917 0 l 590 518 m 107 0 l 107 1042 l 342 1042 l 342 192 l 274 239 l 797 935 q 859 1001 826 972 q 935 1047 892 1031 q 1038 1063 978 1063 q 1116 1056 1081 1063 q 1179 1042 1151 1050 l 1179 863 q 1123 874 1147 871 q 1074 878 1099 878 q 997 857 1025 878 q 943 806 968 836 l 319 0 l 107 0 z "},"Ḵ":{"ha":1182,"x_min":107,"x_max":1186,"o":"m 107 0 l 107 1042 l 342 1042 l 342 192 l 275 239 l 919 1042 l 1171 1042 l 319 0 l 107 0 m 604 510 l 774 661 l 1186 0 l 917 0 l 604 510 m 308 -237 l 308 -93 l 947 -93 l 947 -237 l 308 -237 z "},"L":{"ha":1043,"x_min":107,"x_max":1018,"o":"m 343 1042 l 343 104 l 236 208 l 1018 208 l 1018 0 l 107 0 l 107 1042 l 343 1042 z "},"Ǉ":{"ha":2143,"x_min":107,"x_max":2050,"o":"m 343 1042 l 343 104 l 236 208 l 1018 208 l 1018 0 l 107 0 l 107 1042 l 343 1042 m 1072 506 l 1304 506 l 1304 465 q 1363 258 1304 331 q 1558 185 1422 185 q 1753 255 1693 185 q 1814 449 1814 325 l 1814 1042 l 2050 1042 l 2050 438 q 1988 188 2050 290 q 1815 32 1926 85 q 1558 -21 1704 -21 q 1304 33 1414 -21 q 1134 192 1194 88 q 1074 449 1074 297 l 1072 506 z "},"Ĺ":{"ha":1043,"x_min":75,"x_max":1018,"o":"m 343 1042 l 343 104 l 236 208 l 1018 208 l 1018 0 l 107 0 l 107 1042 l 343 1042 m 279 1346 l 547 1346 l 313 1122 l 75 1122 l 279 1346 z "},"Ƚ":{"ha":1088,"x_min":28,"x_max":1063,"o":"m 28 661 l 733 661 l 733 496 l 28 496 l 28 661 m 386 1042 l 386 104 l 281 208 l 1063 208 l 1063 0 l 150 0 l 150 1042 l 386 1042 z "},"Ɬ":{"ha":1267,"x_min":13,"x_max":1243,"o":"m 219 778 q 348 745 296 778 q 428 656 400 713 q 456 526 456 599 l 456 360 l 361 360 l 361 518 q 326 619 361 588 q 244 650 290 650 q 191 634 210 650 q 172 592 172 618 q 198 542 172 563 q 286 522 224 522 q 349 528 317 522 q 417 540 381 533 l 504 567 q 658 626 578 586 q 828 724 738 665 l 828 560 q 671 476 753 514 q 508 417 589 439 l 428 397 q 354 386 393 390 q 279 382 315 382 q 83 437 153 382 q 13 588 13 492 q 66 724 13 669 q 219 778 119 778 m 567 1042 l 567 104 l 461 208 l 1243 208 l 1243 0 l 331 0 l 331 1042 l 567 1042 z "},"Ľ":{"ha":1044,"x_min":107,"x_max":1018,"o":"m 343 1042 l 343 104 l 236 208 l 1018 208 l 1018 0 l 107 0 l 107 1042 l 343 1042 m 565 1042 l 771 1042 l 690 719 l 526 719 l 565 1042 z "},"Ḽ":{"ha":1043,"x_min":107,"x_max":1018,"o":"m 343 1042 l 343 104 l 236 208 l 1018 208 l 1018 0 l 107 0 l 107 1042 l 343 1042 m 464 -58 l 707 -58 l 906 -308 l 717 -308 l 533 -121 l 638 -121 l 456 -308 l 265 -308 l 464 -58 z "},"Ļ":{"ha":1043,"x_min":107,"x_max":1018,"o":"m 343 1042 l 343 104 l 236 208 l 1018 208 l 1018 0 l 107 0 l 107 1042 l 343 1042 m 464 -397 l 576 -206 l 586 -269 q 492 -241 528 -269 q 456 -167 456 -212 q 491 -92 456 -119 q 586 -64 526 -64 q 681 -92 646 -64 q 717 -169 717 -121 q 701 -231 717 -203 q 644 -312 685 -258 l 579 -397 l 464 -397 z "},"Ŀ":{"ha":1044,"x_min":107,"x_max":1018,"o":"m 343 1042 l 343 104 l 236 208 l 1018 208 l 1018 0 l 107 0 l 107 1042 l 343 1042 m 746 489 q 673 508 706 489 q 622 559 640 526 q 603 632 603 592 q 622 705 603 672 q 673 756 640 738 q 746 775 706 775 q 819 756 786 775 q 870 705 851 738 q 889 632 889 672 q 870 559 889 592 q 819 508 851 526 q 746 489 786 489 z "},"Ḷ":{"ha":1043,"x_min":107,"x_max":1018,"o":"m 343 1042 l 343 104 l 236 208 l 1018 208 l 1018 0 l 107 0 l 107 1042 l 343 1042 m 586 -314 q 484 -281 524 -314 q 444 -194 444 -249 q 484 -106 444 -139 q 586 -74 524 -74 q 689 -106 650 -74 q 728 -194 728 -139 q 689 -281 728 -249 q 586 -314 650 -314 z "},"Ḹ":{"ha":1043,"x_min":-94,"x_max":1018,"o":"m 343 1042 l 343 104 l 236 208 l 1018 208 l 1018 0 l 107 0 l 107 1042 l 343 1042 m 586 -314 q 484 -281 524 -314 q 444 -194 444 -249 q 484 -106 444 -139 q 586 -74 524 -74 q 689 -106 650 -74 q 728 -194 728 -139 q 689 -281 728 -249 q 586 -314 650 -314 m -96 1157 l -96 1301 l 543 1301 l 543 1157 l -96 1157 z "},"ǈ":{"ha":1439,"x_min":107,"x_max":1378,"o":"m 343 1042 l 343 104 l 236 208 l 1018 208 l 1018 0 l 107 0 l 107 1042 l 343 1042 m 1121 799 l 1236 776 l 1353 799 l 1353 -229 l 1121 -229 l 1121 799 m 1236 881 q 1134 913 1174 881 q 1094 1000 1094 946 q 1134 1088 1094 1056 q 1236 1121 1174 1121 q 1339 1088 1300 1121 q 1378 1000 1378 1056 q 1339 913 1378 946 q 1236 881 1300 881 z "},"Ḻ":{"ha":1043,"x_min":107,"x_max":1018,"o":"m 343 1042 l 343 104 l 236 208 l 1018 208 l 1018 0 l 107 0 l 107 1042 l 343 1042 m 275 -237 l 275 -93 l 914 -93 l 914 -237 l 275 -237 z "},"Ł":{"ha":1097,"x_min":50,"x_max":1072,"o":"m 50 593 l 733 774 l 733 610 l 50 428 l 50 593 m 396 1042 l 396 104 l 290 208 l 1072 208 l 1072 0 l 160 0 l 160 1042 l 396 1042 z "},"M":{"ha":1675,"x_min":107,"x_max":1569,"o":"m 1569 1042 l 1569 0 l 1344 0 l 1344 963 l 1404 958 l 960 0 l 717 0 l 272 956 l 331 961 l 331 0 l 107 0 l 107 1042 l 469 1042 l 889 114 l 788 114 l 1207 1042 l 1569 1042 z "},"Ḿ":{"ha":1675,"x_min":107,"x_max":1569,"o":"m 1569 1042 l 1569 0 l 1344 0 l 1344 963 l 1404 958 l 960 0 l 717 0 l 272 956 l 331 961 l 331 0 l 107 0 l 107 1042 l 469 1042 l 889 114 l 788 114 l 1207 1042 l 1569 1042 m 893 1346 l 1161 1346 l 926 1122 l 689 1122 l 893 1346 z "},"Ṁ":{"ha":1675,"x_min":107,"x_max":1569,"o":"m 1569 1042 l 1569 0 l 1344 0 l 1344 963 l 1404 958 l 960 0 l 717 0 l 272 956 l 331 961 l 331 0 l 107 0 l 107 1042 l 469 1042 l 889 114 l 788 114 l 1207 1042 l 1569 1042 m 838 1132 q 735 1165 775 1132 q 696 1253 696 1197 q 735 1340 696 1307 q 838 1374 775 1374 q 940 1340 901 1374 q 979 1253 979 1307 q 940 1165 979 1197 q 838 1132 901 1132 z "},"Ṃ":{"ha":1675,"x_min":107,"x_max":1569,"o":"m 1569 1042 l 1569 0 l 1344 0 l 1344 963 l 1404 958 l 960 0 l 717 0 l 272 956 l 331 961 l 331 0 l 107 0 l 107 1042 l 469 1042 l 889 114 l 788 114 l 1207 1042 l 1569 1042 m 838 -314 q 735 -281 775 -314 q 696 -194 696 -249 q 735 -106 696 -139 q 838 -74 775 -74 q 940 -106 901 -74 q 979 -194 979 -139 q 940 -281 979 -249 q 838 -314 901 -314 z "},"Ɱ":{"ha":1675,"x_min":107,"x_max":1569,"o":"m 1344 96 l 1344 963 l 1404 958 l 960 0 l 717 0 l 272 956 l 331 961 l 331 0 l 107 0 l 107 1042 l 469 1042 l 889 114 l 788 114 l 1207 1042 l 1569 1042 l 1569 75 q 1493 -165 1569 -81 q 1254 -250 1417 -250 q 1160 -243 1208 -250 q 1072 -221 1111 -236 l 1072 -42 q 1129 -58 1097 -51 q 1200 -65 1161 -65 q 1309 -25 1274 -65 q 1344 96 1344 15 z "},"Ɯ":{"ha":1682,"x_min":99,"x_max":1615,"o":"m 1615 0 l 1379 0 l 1329 304 l 1329 1042 l 1565 1042 l 1565 265 l 1615 0 m 1047 -21 q 867 25 942 -21 q 753 155 793 71 q 714 354 714 239 l 714 1042 l 950 1042 l 950 389 q 996 235 950 289 q 1128 181 1042 181 q 1235 209 1190 181 q 1305 290 1281 238 q 1329 411 1329 342 l 1406 371 q 1342 158 1392 246 q 1216 25 1292 71 q 1047 -21 1140 -21 m 436 -21 q 253 24 329 -21 q 138 153 178 69 q 99 350 99 236 l 99 1042 l 335 1042 l 335 389 q 381 235 335 289 q 513 181 426 181 q 620 209 575 181 q 690 290 665 238 q 714 411 714 342 l 794 371 q 731 158 781 246 q 604 25 681 71 q 436 -21 528 -21 z "},"N":{"ha":1325,"x_min":107,"x_max":1219,"o":"m 1072 156 l 990 143 l 990 1042 l 1219 1042 l 1219 0 l 921 0 l 254 899 l 335 911 l 335 0 l 107 0 l 107 1042 l 413 1042 l 1072 156 z "},"Ǌ":{"ha":2428,"x_min":107,"x_max":2333,"o":"m 1072 156 l 990 143 l 990 1042 l 1219 1042 l 1219 0 l 921 0 l 254 899 l 335 911 l 335 0 l 107 0 l 107 1042 l 413 1042 l 1072 156 m 1356 506 l 1588 506 l 1588 465 q 1647 258 1588 331 q 1842 185 1706 185 q 2037 255 1976 185 q 2097 449 2097 325 l 2097 1042 l 2333 1042 l 2333 438 q 2272 188 2333 290 q 2099 32 2210 85 q 1842 -21 1988 -21 q 1588 33 1697 -21 q 1417 192 1478 88 q 1357 449 1357 297 l 1356 506 z "},"Ń":{"ha":1325,"x_min":107,"x_max":1219,"o":"m 1072 156 l 990 143 l 990 1042 l 1219 1042 l 1219 0 l 921 0 l 254 899 l 335 911 l 335 0 l 107 0 l 107 1042 l 413 1042 l 1072 156 m 736 1346 l 1004 1346 l 769 1122 l 532 1122 l 736 1346 z "},"Ň":{"ha":1325,"x_min":107,"x_max":1219,"o":"m 1072 156 l 990 143 l 990 1042 l 1219 1042 l 1219 0 l 921 0 l 254 899 l 335 911 l 335 0 l 107 0 l 107 1042 l 413 1042 l 1072 156 m 807 1122 l 556 1122 l 347 1344 l 546 1344 l 733 1200 l 629 1200 l 815 1344 l 1014 1344 l 807 1122 z "},"Ṋ":{"ha":1325,"x_min":107,"x_max":1219,"o":"m 1072 156 l 990 143 l 990 1042 l 1219 1042 l 1219 0 l 921 0 l 254 899 l 335 911 l 335 0 l 107 0 l 107 1042 l 413 1042 l 1072 156 m 542 -58 l 785 -58 l 983 -308 l 794 -308 l 611 -121 l 715 -121 l 533 -308 l 343 -308 l 542 -58 z "},"Ņ":{"ha":1325,"x_min":107,"x_max":1219,"o":"m 1072 156 l 990 143 l 990 1042 l 1219 1042 l 1219 0 l 921 0 l 254 899 l 335 911 l 335 0 l 107 0 l 107 1042 l 413 1042 l 1072 156 m 542 -397 l 654 -206 l 664 -269 q 569 -241 606 -269 q 533 -167 533 -212 q 569 -92 533 -119 q 664 -64 604 -64 q 759 -92 724 -64 q 794 -169 794 -121 q 778 -231 794 -203 q 722 -312 763 -258 l 657 -397 l 542 -397 z "},"Ṅ":{"ha":1325,"x_min":107,"x_max":1219,"o":"m 1072 156 l 990 143 l 990 1042 l 1219 1042 l 1219 0 l 921 0 l 254 899 l 335 911 l 335 0 l 107 0 l 107 1042 l 413 1042 l 1072 156 m 681 1132 q 578 1165 618 1132 q 539 1253 539 1197 q 578 1340 539 1307 q 681 1374 618 1374 q 783 1340 744 1374 q 822 1253 822 1307 q 783 1165 822 1197 q 681 1132 744 1132 z "},"Ṇ":{"ha":1325,"x_min":107,"x_max":1219,"o":"m 1072 156 l 990 143 l 990 1042 l 1219 1042 l 1219 0 l 921 0 l 254 899 l 335 911 l 335 0 l 107 0 l 107 1042 l 413 1042 l 1072 156 m 664 -314 q 562 -281 601 -314 q 522 -194 522 -249 q 562 -106 522 -139 q 664 -74 601 -74 q 767 -106 728 -74 q 806 -194 806 -139 q 767 -281 806 -249 q 664 -314 728 -314 z "},"Ǹ":{"ha":1325,"x_min":107,"x_max":1219,"o":"m 1072 156 l 990 143 l 990 1042 l 1219 1042 l 1219 0 l 921 0 l 254 899 l 335 911 l 335 0 l 107 0 l 107 1042 l 413 1042 l 1072 156 m 608 1346 l 813 1122 l 575 1122 l 340 1346 l 608 1346 z "},"Ɲ":{"ha":1325,"x_min":-165,"x_max":1219,"o":"m 107 1042 l 413 1042 l 1071 156 l 990 143 l 990 1042 l 1219 1042 l 1219 0 l 921 0 l 256 899 l 335 911 l 335 83 q 253 -165 335 -79 q 6 -250 172 -250 q -83 -243 -40 -250 q -165 -225 -126 -236 l -165 -46 q -108 -58 -139 -53 q -44 -64 -78 -64 q 72 -24 36 -64 q 107 97 107 17 l 107 1042 z "},"ǋ":{"ha":1721,"x_min":107,"x_max":1658,"o":"m 1072 156 l 990 143 l 990 1042 l 1219 1042 l 1219 0 l 921 0 l 254 899 l 335 911 l 335 0 l 107 0 l 107 1042 l 413 1042 l 1072 156 m 1401 799 l 1517 776 l 1633 799 l 1633 -229 l 1401 -229 l 1401 799 m 1517 881 q 1415 913 1454 881 q 1375 1000 1375 946 q 1415 1088 1375 1056 q 1517 1121 1454 1121 q 1619 1088 1581 1121 q 1658 1000 1658 1056 q 1619 913 1658 946 q 1517 881 1581 881 z "},"Ṉ":{"ha":1325,"x_min":107,"x_max":1219,"o":"m 1072 156 l 990 143 l 990 1042 l 1219 1042 l 1219 0 l 921 0 l 254 899 l 335 911 l 335 0 l 107 0 l 107 1042 l 413 1042 l 1072 156 m 351 -237 l 351 -93 l 990 -93 l 990 -237 l 351 -237 z "},"Ƞ":{"ha":1224,"x_min":107,"x_max":1128,"o":"m 107 1042 l 343 1042 l 343 0 l 107 0 l 107 1042 m 715 1063 q 937 1013 844 1063 q 1078 870 1029 963 q 1128 650 1128 778 l 1128 -229 l 892 -229 l 892 594 q 824 785 892 719 q 631 851 757 851 q 476 819 540 851 q 378 729 413 788 q 343 592 343 671 l 264 631 q 346 877 285 782 q 501 1017 407 972 q 715 1063 596 1063 z "},"Ñ":{"ha":1325,"x_min":107,"x_max":1219,"o":"m 1072 156 l 990 143 l 990 1042 l 1219 1042 l 1219 0 l 921 0 l 254 899 l 335 911 l 335 0 l 107 0 l 107 1042 l 413 1042 l 1072 156 m 326 1131 q 392 1291 339 1232 q 546 1350 446 1350 q 620 1339 585 1350 q 689 1315 656 1328 q 751 1290 722 1301 q 806 1279 781 1279 q 856 1296 836 1279 q 879 1344 875 1313 l 1035 1344 q 968 1185 1022 1244 q 814 1125 914 1125 q 740 1136 776 1125 q 672 1161 704 1147 q 609 1186 639 1175 q 556 1197 579 1197 q 506 1180 525 1197 q 482 1131 486 1163 l 326 1131 z "},"Ŋ":{"ha":1267,"x_min":107,"x_max":1169,"o":"m 107 1042 l 343 1042 l 343 0 l 107 0 l 107 1042 m 1169 656 l 1169 58 q 1132 -104 1169 -35 q 1016 -212 1094 -174 q 813 -250 938 -250 q 678 -237 740 -250 q 578 -208 617 -224 l 578 -26 q 669 -56 618 -46 q 776 -67 721 -67 q 897 -33 861 -67 q 933 82 933 1 l 933 601 q 862 788 933 724 q 651 853 790 853 q 486 819 556 853 q 380 726 417 786 q 343 582 343 665 l 260 631 q 349 877 283 782 q 515 1017 415 972 q 738 1063 615 1063 q 969 1013 872 1063 q 1118 873 1067 964 q 1169 656 1169 782 z "},"O":{"ha":1328,"x_min":56,"x_max":1272,"o":"m 664 -21 q 345 47 482 -21 q 132 237 208 115 q 56 521 56 358 q 132 805 56 683 q 345 994 208 926 q 664 1063 482 1063 q 983 994 846 1063 q 1196 805 1119 926 q 1272 521 1272 683 q 1196 237 1272 358 q 983 47 1119 115 q 664 -21 846 -21 m 664 189 q 860 229 778 189 q 988 344 943 269 q 1033 521 1033 419 q 988 697 1033 622 q 860 813 943 772 q 664 853 778 853 q 468 813 551 853 q 340 697 385 772 q 294 521 294 622 q 340 344 294 419 q 468 229 385 269 q 664 189 551 189 z "},"Ó":{"ha":1328,"x_min":56,"x_max":1272,"o":"m 664 -21 q 345 47 482 -21 q 132 237 208 115 q 56 521 56 358 q 132 805 56 683 q 345 994 208 926 q 664 1063 482 1063 q 983 994 846 1063 q 1196 805 1119 926 q 1272 521 1272 683 q 1196 237 1272 358 q 983 47 1119 115 q 664 -21 846 -21 m 664 189 q 860 229 778 189 q 988 344 943 269 q 1033 521 1033 419 q 988 697 1033 622 q 860 813 943 772 q 664 853 778 853 q 468 813 551 853 q 340 697 385 772 q 294 521 294 622 q 340 344 294 419 q 468 229 385 269 q 664 189 551 189 m 719 1346 l 988 1346 l 753 1122 l 515 1122 l 719 1346 z "},"Ŏ":{"ha":1328,"x_min":56,"x_max":1272,"o":"m 664 -21 q 345 47 482 -21 q 132 237 208 115 q 56 521 56 358 q 132 805 56 683 q 345 994 208 926 q 664 1063 482 1063 q 983 994 846 1063 q 1196 805 1119 926 q 1272 521 1272 683 q 1196 237 1272 358 q 983 47 1119 115 q 664 -21 846 -21 m 664 189 q 860 229 778 189 q 988 344 943 269 q 1033 521 1033 419 q 988 697 1033 622 q 860 813 943 772 q 664 853 778 853 q 468 813 551 853 q 340 697 385 772 q 294 521 294 622 q 340 344 294 419 q 468 229 385 269 q 664 189 551 189 m 338 1350 l 518 1350 q 572 1283 536 1306 q 664 1260 608 1260 q 756 1283 719 1260 q 810 1350 792 1306 l 990 1350 q 874 1173 960 1232 q 664 1114 788 1114 q 455 1173 542 1114 q 338 1350 368 1232 z "},"Ǒ":{"ha":1328,"x_min":56,"x_max":1272,"o":"m 664 -21 q 345 47 482 -21 q 132 237 208 115 q 56 521 56 358 q 132 805 56 683 q 345 994 208 926 q 664 1063 482 1063 q 983 994 846 1063 q 1196 805 1119 926 q 1272 521 1272 683 q 1196 237 1272 358 q 983 47 1119 115 q 664 -21 846 -21 m 664 189 q 860 229 778 189 q 988 344 943 269 q 1033 521 1033 419 q 988 697 1033 622 q 860 813 943 772 q 664 853 778 853 q 468 813 551 853 q 340 697 385 772 q 294 521 294 622 q 340 344 294 419 q 468 229 385 269 q 664 189 551 189 m 790 1122 l 539 1122 l 331 1344 l 529 1344 l 717 1200 l 613 1200 l 799 1344 l 997 1344 l 790 1122 z "},"Ɵ":{"ha":1328,"x_min":56,"x_max":1272,"o":"m 126 614 l 1174 614 l 1174 428 l 126 428 l 126 614 m 664 -21 q 345 47 482 -21 q 132 237 208 115 q 56 521 56 358 q 132 805 56 683 q 345 994 208 926 q 664 1063 482 1063 q 983 994 846 1063 q 1196 805 1119 926 q 1272 521 1272 683 q 1196 237 1272 358 q 983 47 1119 115 q 664 -21 846 -21 m 664 182 q 863 223 779 182 q 992 340 946 264 q 1038 521 1038 417 q 992 701 1038 625 q 863 819 946 778 q 664 860 779 860 q 466 819 550 860 q 336 701 382 778 q 290 521 290 625 q 336 340 290 417 q 466 223 382 264 q 664 182 550 182 z "},"Ô":{"ha":1328,"x_min":56,"x_max":1272,"o":"m 664 -21 q 345 47 482 -21 q 132 237 208 115 q 56 521 56 358 q 132 805 56 683 q 345 994 208 926 q 664 1063 482 1063 q 983 994 846 1063 q 1196 805 1119 926 q 1272 521 1272 683 q 1196 237 1272 358 q 983 47 1119 115 q 664 -21 846 -21 m 664 189 q 860 229 778 189 q 988 344 943 269 q 1033 521 1033 419 q 988 697 1033 622 q 860 813 943 772 q 664 853 778 853 q 468 813 551 853 q 340 697 385 772 q 294 521 294 622 q 340 344 294 419 q 468 229 385 269 q 664 189 551 189 m 538 1346 l 789 1346 l 997 1122 l 799 1122 l 611 1267 l 715 1267 l 528 1122 l 331 1122 l 538 1346 z "},"Ố":{"ha":1328,"x_min":56,"x_max":1272,"o":"m 664 -21 q 345 47 482 -21 q 132 237 208 115 q 56 521 56 358 q 132 805 56 683 q 345 994 208 926 q 664 1063 482 1063 q 983 994 846 1063 q 1196 805 1119 926 q 1272 521 1272 683 q 1196 237 1272 358 q 983 47 1119 115 q 664 -21 846 -21 m 664 189 q 860 229 778 189 q 988 344 943 269 q 1033 521 1033 419 q 988 697 1033 622 q 860 813 943 772 q 664 853 778 853 q 468 813 551 853 q 340 697 385 772 q 294 521 294 622 q 340 344 294 419 q 468 229 385 269 q 664 189 551 189 m 993 1507 l 1208 1507 l 1053 1301 l 871 1301 l 993 1507 m 539 1346 l 789 1346 l 999 1122 l 799 1122 l 611 1267 l 717 1267 l 529 1122 l 331 1122 l 539 1346 z "},"Ộ":{"ha":1328,"x_min":56,"x_max":1272,"o":"m 664 -21 q 345 47 482 -21 q 132 237 208 115 q 56 521 56 358 q 132 805 56 683 q 345 994 208 926 q 664 1063 482 1063 q 983 994 846 1063 q 1196 805 1119 926 q 1272 521 1272 683 q 1196 237 1272 358 q 983 47 1119 115 q 664 -21 846 -21 m 664 189 q 860 229 778 189 q 988 344 943 269 q 1033 521 1033 419 q 988 697 1033 622 q 860 813 943 772 q 664 853 778 853 q 468 813 551 853 q 340 697 385 772 q 294 521 294 622 q 340 344 294 419 q 468 229 385 269 q 664 189 551 189 m 664 -314 q 562 -281 601 -314 q 522 -194 522 -249 q 562 -106 522 -139 q 664 -74 601 -74 q 767 -106 728 -74 q 806 -194 806 -139 q 767 -281 806 -249 q 664 -314 728 -314 m 538 1346 l 789 1346 l 997 1122 l 799 1122 l 611 1267 l 715 1267 l 528 1122 l 331 1122 l 538 1346 z "},"Ồ":{"ha":1328,"x_min":56,"x_max":1272,"o":"m 664 -21 q 345 47 482 -21 q 132 237 208 115 q 56 521 56 358 q 132 805 56 683 q 345 994 208 926 q 664 1063 482 1063 q 983 994 846 1063 q 1196 805 1119 926 q 1272 521 1272 683 q 1196 237 1272 358 q 983 47 1119 115 q 664 -21 846 -21 m 664 189 q 860 229 778 189 q 988 344 943 269 q 1033 521 1033 419 q 988 697 1033 622 q 860 813 943 772 q 664 853 778 853 q 468 813 551 853 q 340 697 385 772 q 294 521 294 622 q 340 344 294 419 q 468 229 385 269 q 664 189 551 189 m 960 1507 l 1082 1301 l 900 1301 l 744 1507 l 960 1507 m 539 1346 l 789 1346 l 999 1122 l 799 1122 l 611 1267 l 717 1267 l 529 1122 l 331 1122 l 539 1346 z "},"Ổ":{"ha":1328,"x_min":56,"x_max":1272,"o":"m 664 -21 q 345 47 482 -21 q 132 237 208 115 q 56 521 56 358 q 132 805 56 683 q 345 994 208 926 q 664 1063 482 1063 q 983 994 846 1063 q 1196 805 1119 926 q 1272 521 1272 683 q 1196 237 1272 358 q 983 47 1119 115 q 664 -21 846 -21 m 664 189 q 860 229 778 189 q 988 344 943 269 q 1033 521 1033 419 q 988 697 1033 622 q 860 813 943 772 q 664 853 778 853 q 468 813 551 853 q 340 697 385 772 q 294 521 294 622 q 340 344 294 419 q 468 229 385 269 q 664 189 551 189 m 935 1271 l 890 1336 q 954 1367 935 1350 q 974 1401 974 1383 q 892 1444 974 1444 q 850 1442 872 1444 q 806 1433 828 1439 l 806 1557 q 867 1571 829 1565 q 950 1576 906 1576 q 1106 1541 1050 1576 q 1163 1443 1163 1506 q 1106 1340 1163 1383 q 935 1271 1050 1297 m 539 1346 l 789 1346 l 999 1122 l 799 1122 l 611 1267 l 717 1267 l 529 1122 l 331 1122 l 539 1346 z "},"Ỗ":{"ha":1328,"x_min":56,"x_max":1272,"o":"m 664 -21 q 345 47 482 -21 q 132 237 208 115 q 56 521 56 358 q 132 805 56 683 q 345 994 208 926 q 664 1063 482 1063 q 983 994 846 1063 q 1196 805 1119 926 q 1272 521 1272 683 q 1196 237 1272 358 q 983 47 1119 115 q 664 -21 846 -21 m 664 189 q 860 229 778 189 q 988 344 943 269 q 1033 521 1033 419 q 988 697 1033 622 q 860 813 943 772 q 664 853 778 853 q 468 813 551 853 q 340 697 385 772 q 294 521 294 622 q 340 344 294 419 q 468 229 385 269 q 664 189 551 189 m 356 1394 q 407 1551 361 1492 q 533 1611 453 1611 q 605 1601 574 1611 q 661 1576 636 1590 q 708 1551 686 1561 q 751 1540 731 1540 q 792 1558 776 1540 q 814 1610 808 1576 l 958 1610 q 907 1452 953 1510 q 779 1394 861 1394 q 708 1406 740 1394 q 651 1430 676 1417 q 604 1454 626 1443 q 561 1465 582 1465 q 520 1447 536 1465 q 499 1394 504 1429 l 356 1394 m 538 1346 l 789 1346 l 997 1122 l 799 1122 l 611 1267 l 715 1267 l 528 1122 l 331 1122 l 538 1346 z "},"Ȍ":{"ha":1328,"x_min":56,"x_max":1272,"o":"m 664 -21 q 345 47 482 -21 q 132 237 208 115 q 56 521 56 358 q 132 805 56 683 q 345 994 208 926 q 664 1063 482 1063 q 983 994 846 1063 q 1196 805 1119 926 q 1272 521 1272 683 q 1196 237 1272 358 q 983 47 1119 115 q 664 -21 846 -21 m 664 189 q 860 229 778 189 q 988 344 943 269 q 1033 521 1033 419 q 988 697 1033 622 q 860 813 943 772 q 664 853 778 853 q 468 813 551 853 q 340 697 385 772 q 294 521 294 622 q 340 344 294 419 q 468 229 385 269 q 664 189 551 189 m 764 1346 l 935 1122 l 726 1122 l 538 1346 l 764 1346 m 431 1346 l 599 1122 l 390 1122 l 203 1346 l 431 1346 z "},"Ö":{"ha":1328,"x_min":56,"x_max":1272,"o":"m 664 -21 q 345 47 482 -21 q 132 237 208 115 q 56 521 56 358 q 132 805 56 683 q 345 994 208 926 q 664 1063 482 1063 q 983 994 846 1063 q 1196 805 1119 926 q 1272 521 1272 683 q 1196 237 1272 358 q 983 47 1119 115 q 664 -21 846 -21 m 664 189 q 860 229 778 189 q 988 344 943 269 q 1033 521 1033 419 q 988 697 1033 622 q 860 813 943 772 q 664 853 778 853 q 468 813 551 853 q 340 697 385 772 q 294 521 294 622 q 340 344 294 419 q 468 229 385 269 q 664 189 551 189 m 453 1132 q 357 1164 393 1132 q 321 1249 321 1196 q 357 1331 321 1300 q 453 1363 393 1363 q 550 1331 514 1363 q 586 1249 586 1300 q 550 1164 586 1196 q 453 1132 514 1132 m 874 1132 q 777 1164 814 1132 q 740 1249 740 1196 q 777 1331 740 1300 q 874 1363 814 1363 q 970 1331 933 1363 q 1007 1249 1007 1300 q 970 1164 1007 1196 q 874 1132 933 1132 z "},"Ȫ":{"ha":1328,"x_min":56,"x_max":1272,"o":"m 664 -21 q 345 47 482 -21 q 132 237 208 115 q 56 521 56 358 q 132 805 56 683 q 345 994 208 926 q 664 1063 482 1063 q 983 994 846 1063 q 1196 805 1119 926 q 1272 521 1272 683 q 1196 237 1272 358 q 983 47 1119 115 q 664 -21 846 -21 m 664 189 q 860 229 778 189 q 988 344 943 269 q 1033 521 1033 419 q 988 697 1033 622 q 860 813 943 772 q 664 853 778 853 q 468 813 551 853 q 340 697 385 772 q 294 521 294 622 q 340 344 294 419 q 468 229 385 269 q 664 189 551 189 m 454 1132 q 358 1164 394 1132 q 322 1249 322 1196 q 358 1331 322 1300 q 454 1363 394 1363 q 551 1331 515 1363 q 588 1249 588 1300 q 551 1164 588 1196 q 454 1132 515 1132 m 875 1132 q 778 1164 815 1132 q 742 1249 742 1196 q 778 1331 742 1300 q 875 1363 815 1363 q 972 1331 935 1363 q 1008 1249 1008 1300 q 972 1164 1008 1196 q 875 1132 935 1132 m 346 1435 l 346 1579 l 985 1579 l 985 1435 l 346 1435 z "},"Ȯ":{"ha":1328,"x_min":56,"x_max":1272,"o":"m 664 -21 q 345 47 482 -21 q 132 237 208 115 q 56 521 56 358 q 132 805 56 683 q 345 994 208 926 q 664 1063 482 1063 q 983 994 846 1063 q 1196 805 1119 926 q 1272 521 1272 683 q 1196 237 1272 358 q 983 47 1119 115 q 664 -21 846 -21 m 664 189 q 860 229 778 189 q 988 344 943 269 q 1033 521 1033 419 q 988 697 1033 622 q 860 813 943 772 q 664 853 778 853 q 468 813 551 853 q 340 697 385 772 q 294 521 294 622 q 340 344 294 419 q 468 229 385 269 q 664 189 551 189 m 664 1132 q 562 1165 601 1132 q 522 1253 522 1197 q 562 1340 522 1307 q 664 1374 601 1374 q 767 1340 728 1374 q 806 1253 806 1307 q 767 1165 806 1197 q 664 1132 728 1132 z "},"Ȱ":{"ha":1328,"x_min":56,"x_max":1272,"o":"m 664 -21 q 345 47 482 -21 q 132 237 208 115 q 56 521 56 358 q 132 805 56 683 q 345 994 208 926 q 664 1063 482 1063 q 983 994 846 1063 q 1196 805 1119 926 q 1272 521 1272 683 q 1196 237 1272 358 q 983 47 1119 115 q 664 -21 846 -21 m 664 189 q 860 229 778 189 q 988 344 943 269 q 1033 521 1033 419 q 988 697 1033 622 q 860 813 943 772 q 664 853 778 853 q 468 813 551 853 q 340 697 385 772 q 294 521 294 622 q 340 344 294 419 q 468 229 385 269 q 664 189 551 189 m 665 1132 q 563 1165 603 1132 q 524 1253 524 1197 q 563 1340 524 1307 q 665 1374 603 1374 q 768 1340 729 1374 q 807 1253 807 1307 q 768 1165 807 1197 q 665 1132 729 1132 m 344 1435 l 344 1579 l 983 1579 l 983 1435 l 344 1435 z "},"Ọ":{"ha":1328,"x_min":56,"x_max":1272,"o":"m 664 -21 q 345 47 482 -21 q 132 237 208 115 q 56 521 56 358 q 132 805 56 683 q 345 994 208 926 q 664 1063 482 1063 q 983 994 846 1063 q 1196 805 1119 926 q 1272 521 1272 683 q 1196 237 1272 358 q 983 47 1119 115 q 664 -21 846 -21 m 664 189 q 860 229 778 189 q 988 344 943 269 q 1033 521 1033 419 q 988 697 1033 622 q 860 813 943 772 q 664 853 778 853 q 468 813 551 853 q 340 697 385 772 q 294 521 294 622 q 340 344 294 419 q 468 229 385 269 q 664 189 551 189 m 664 -314 q 562 -281 601 -314 q 522 -194 522 -249 q 562 -106 522 -139 q 664 -74 601 -74 q 767 -106 728 -74 q 806 -194 806 -139 q 767 -281 806 -249 q 664 -314 728 -314 z "},"Ò":{"ha":1328,"x_min":56,"x_max":1272,"o":"m 664 -21 q 345 47 482 -21 q 132 237 208 115 q 56 521 56 358 q 132 805 56 683 q 345 994 208 926 q 664 1063 482 1063 q 983 994 846 1063 q 1196 805 1119 926 q 1272 521 1272 683 q 1196 237 1272 358 q 983 47 1119 115 q 664 -21 846 -21 m 664 189 q 860 229 778 189 q 988 344 943 269 q 1033 521 1033 419 q 988 697 1033 622 q 860 813 943 772 q 664 853 778 853 q 468 813 551 853 q 340 697 385 772 q 294 521 294 622 q 340 344 294 419 q 468 229 385 269 q 664 189 551 189 m 592 1346 l 794 1122 l 558 1122 l 324 1346 l 592 1346 z "},"Ỏ":{"ha":1328,"x_min":56,"x_max":1272,"o":"m 664 -21 q 345 47 482 -21 q 132 237 208 115 q 56 521 56 358 q 132 805 56 683 q 345 994 208 926 q 664 1063 482 1063 q 983 994 846 1063 q 1196 805 1119 926 q 1272 521 1272 683 q 1196 237 1272 358 q 983 47 1119 115 q 664 -21 846 -21 m 664 189 q 860 229 778 189 q 988 344 943 269 q 1033 521 1033 419 q 988 697 1033 622 q 860 813 943 772 q 664 853 778 853 q 468 813 551 853 q 340 697 385 772 q 294 521 294 622 q 340 344 294 419 q 468 229 385 269 q 664 189 551 189 m 610 1103 l 563 1182 q 658 1209 629 1193 q 686 1244 686 1225 q 664 1271 686 1263 q 599 1279 642 1279 q 538 1275 565 1279 q 479 1265 510 1271 l 479 1390 q 553 1406 507 1399 q 650 1413 600 1413 q 824 1380 764 1413 q 885 1276 885 1347 q 821 1169 885 1213 q 610 1103 757 1126 z "},"Ơ":{"ha":1329,"x_min":56,"x_max":1290,"o":"m 663 -21 q 345 47 482 -21 q 132 237 208 115 q 56 521 56 358 q 132 805 56 683 q 345 994 208 926 q 663 1063 482 1063 q 761 1058 718 1063 q 840 1044 804 1053 q 903 1033 872 1038 q 965 1028 933 1028 q 1068 1055 1038 1028 q 1099 1121 1099 1082 q 1090 1171 1099 1144 q 1061 1224 1081 1197 l 1250 1224 q 1280 1157 1269 1192 q 1290 1089 1290 1122 q 1242 972 1290 1019 q 1101 908 1194 924 q 1226 740 1182 839 q 1271 521 1271 642 q 1194 237 1271 358 q 981 47 1118 115 q 663 -21 844 -21 m 663 189 q 860 229 778 189 q 987 344 942 269 q 1032 521 1032 419 q 987 697 1032 622 q 860 813 942 772 q 663 853 778 853 q 467 813 550 853 q 340 697 385 772 q 294 521 294 622 q 340 344 294 419 q 467 229 385 269 q 663 189 550 189 z "},"Ớ":{"ha":1329,"x_min":56,"x_max":1290,"o":"m 663 -21 q 345 47 482 -21 q 132 237 208 115 q 56 521 56 358 q 132 805 56 683 q 345 994 208 926 q 663 1063 482 1063 q 761 1058 718 1063 q 840 1044 804 1053 q 903 1033 872 1038 q 965 1028 933 1028 q 1068 1055 1038 1028 q 1099 1121 1099 1082 q 1090 1171 1099 1144 q 1061 1224 1081 1197 l 1250 1224 q 1280 1157 1269 1192 q 1290 1089 1290 1122 q 1242 972 1290 1019 q 1101 908 1194 924 q 1226 740 1182 839 q 1271 521 1271 642 q 1194 237 1271 358 q 981 47 1118 115 q 663 -21 844 -21 m 663 189 q 860 229 778 189 q 987 344 942 269 q 1032 521 1032 419 q 987 697 1032 622 q 860 813 942 772 q 663 853 778 853 q 467 813 550 853 q 340 697 385 772 q 294 521 294 622 q 340 344 294 419 q 467 229 385 269 q 663 189 550 189 m 711 1346 l 979 1346 l 744 1122 l 507 1122 l 711 1346 z "},"Ợ":{"ha":1329,"x_min":56,"x_max":1290,"o":"m 663 -21 q 345 47 482 -21 q 132 237 208 115 q 56 521 56 358 q 132 805 56 683 q 345 994 208 926 q 663 1063 482 1063 q 761 1058 718 1063 q 840 1044 804 1053 q 903 1033 872 1038 q 965 1028 933 1028 q 1068 1055 1038 1028 q 1099 1121 1099 1082 q 1090 1171 1099 1144 q 1061 1224 1081 1197 l 1250 1224 q 1280 1157 1269 1192 q 1290 1089 1290 1122 q 1242 972 1290 1019 q 1101 908 1194 924 q 1226 740 1182 839 q 1271 521 1271 642 q 1194 237 1271 358 q 981 47 1118 115 q 663 -21 844 -21 m 663 189 q 860 229 778 189 q 987 344 942 269 q 1032 521 1032 419 q 987 697 1032 622 q 860 813 942 772 q 663 853 778 853 q 467 813 550 853 q 340 697 385 772 q 294 521 294 622 q 340 344 294 419 q 467 229 385 269 q 663 189 550 189 m 657 -314 q 555 -281 594 -314 q 515 -194 515 -249 q 555 -106 515 -139 q 657 -74 594 -74 q 760 -106 721 -74 q 799 -194 799 -139 q 760 -281 799 -249 q 657 -314 721 -314 z "},"Ờ":{"ha":1329,"x_min":56,"x_max":1290,"o":"m 663 -21 q 345 47 482 -21 q 132 237 208 115 q 56 521 56 358 q 132 805 56 683 q 345 994 208 926 q 663 1063 482 1063 q 761 1058 718 1063 q 840 1044 804 1053 q 903 1033 872 1038 q 965 1028 933 1028 q 1068 1055 1038 1028 q 1099 1121 1099 1082 q 1090 1171 1099 1144 q 1061 1224 1081 1197 l 1250 1224 q 1280 1157 1269 1192 q 1290 1089 1290 1122 q 1242 972 1290 1019 q 1101 908 1194 924 q 1226 740 1182 839 q 1271 521 1271 642 q 1194 237 1271 358 q 981 47 1118 115 q 663 -21 844 -21 m 663 189 q 860 229 778 189 q 987 344 942 269 q 1032 521 1032 419 q 987 697 1032 622 q 860 813 942 772 q 663 853 778 853 q 467 813 550 853 q 340 697 385 772 q 294 521 294 622 q 340 344 294 419 q 467 229 385 269 q 663 189 550 189 m 585 1346 l 788 1122 l 551 1122 l 317 1346 l 585 1346 z "},"Ở":{"ha":1329,"x_min":56,"x_max":1290,"o":"m 663 -21 q 345 47 482 -21 q 132 237 208 115 q 56 521 56 358 q 132 805 56 683 q 345 994 208 926 q 663 1063 482 1063 q 761 1058 718 1063 q 840 1044 804 1053 q 903 1033 872 1038 q 965 1028 933 1028 q 1068 1055 1038 1028 q 1099 1121 1099 1082 q 1090 1171 1099 1144 q 1061 1224 1081 1197 l 1250 1224 q 1280 1157 1269 1192 q 1290 1089 1290 1122 q 1242 972 1290 1019 q 1101 908 1194 924 q 1226 740 1182 839 q 1271 521 1271 642 q 1194 237 1271 358 q 981 47 1118 115 q 663 -21 844 -21 m 663 189 q 860 229 778 189 q 987 344 942 269 q 1032 521 1032 419 q 987 697 1032 622 q 860 813 942 772 q 663 853 778 853 q 467 813 550 853 q 340 697 385 772 q 294 521 294 622 q 340 344 294 419 q 467 229 385 269 q 663 189 550 189 m 603 1103 l 556 1182 q 651 1209 622 1193 q 679 1244 679 1225 q 657 1271 679 1263 q 592 1279 635 1279 q 531 1275 558 1279 q 472 1265 503 1271 l 472 1390 q 547 1406 500 1399 q 643 1413 593 1413 q 817 1380 757 1413 q 878 1276 878 1347 q 814 1169 878 1213 q 603 1103 750 1126 z "},"Ỡ":{"ha":1329,"x_min":56,"x_max":1290,"o":"m 663 -21 q 345 47 482 -21 q 132 237 208 115 q 56 521 56 358 q 132 805 56 683 q 345 994 208 926 q 663 1063 482 1063 q 761 1058 718 1063 q 840 1044 804 1053 q 903 1033 872 1038 q 965 1028 933 1028 q 1068 1055 1038 1028 q 1099 1121 1099 1082 q 1090 1171 1099 1144 q 1061 1224 1081 1197 l 1250 1224 q 1280 1157 1269 1192 q 1290 1089 1290 1122 q 1242 972 1290 1019 q 1101 908 1194 924 q 1226 740 1182 839 q 1271 521 1271 642 q 1194 237 1271 358 q 981 47 1118 115 q 663 -21 844 -21 m 663 189 q 860 229 778 189 q 987 344 942 269 q 1032 521 1032 419 q 987 697 1032 622 q 860 813 942 772 q 663 853 778 853 q 467 813 550 853 q 340 697 385 772 q 294 521 294 622 q 340 344 294 419 q 467 229 385 269 q 663 189 550 189 m 303 1131 q 369 1291 315 1232 q 522 1350 422 1350 q 597 1339 561 1350 q 665 1315 632 1328 q 728 1290 699 1301 q 782 1279 757 1279 q 832 1296 813 1279 q 856 1344 851 1313 l 1011 1344 q 944 1185 999 1244 q 790 1125 890 1125 q 717 1136 753 1125 q 648 1161 681 1147 q 585 1186 615 1175 q 532 1197 556 1197 q 482 1180 501 1197 q 458 1131 463 1163 l 303 1131 z "},"Ő":{"ha":1328,"x_min":56,"x_max":1272,"o":"m 664 -21 q 345 47 482 -21 q 132 237 208 115 q 56 521 56 358 q 132 805 56 683 q 345 994 208 926 q 664 1063 482 1063 q 983 994 846 1063 q 1196 805 1119 926 q 1272 521 1272 683 q 1196 237 1272 358 q 983 47 1119 115 q 664 -21 846 -21 m 664 189 q 860 229 778 189 q 988 344 943 269 q 1033 521 1033 419 q 988 697 1033 622 q 860 813 943 772 q 664 853 778 853 q 468 813 551 853 q 340 697 385 772 q 294 521 294 622 q 340 344 294 419 q 468 229 385 269 q 664 189 551 189 m 567 1346 l 794 1346 l 606 1122 l 397 1122 l 567 1346 m 901 1346 l 1129 1346 l 940 1122 l 733 1122 l 901 1346 z "},"Ȏ":{"ha":1328,"x_min":56,"x_max":1272,"o":"m 664 -21 q 345 47 482 -21 q 132 237 208 115 q 56 521 56 358 q 132 805 56 683 q 345 994 208 926 q 664 1063 482 1063 q 983 994 846 1063 q 1196 805 1119 926 q 1272 521 1272 683 q 1196 237 1272 358 q 983 47 1119 115 q 664 -21 846 -21 m 664 189 q 860 229 778 189 q 988 344 943 269 q 1033 521 1033 419 q 988 697 1033 622 q 860 813 943 772 q 664 853 778 853 q 468 813 551 853 q 340 697 385 772 q 294 521 294 622 q 340 344 294 419 q 468 229 385 269 q 664 189 551 189 m 990 1118 l 810 1118 q 756 1185 792 1161 q 664 1208 719 1208 q 572 1185 608 1208 q 518 1118 536 1161 l 338 1118 q 455 1295 368 1236 q 664 1354 542 1354 q 874 1295 788 1354 q 990 1118 961 1236 z "},"Ō":{"ha":1328,"x_min":56,"x_max":1272,"o":"m 664 -21 q 345 47 482 -21 q 132 237 208 115 q 56 521 56 358 q 132 805 56 683 q 345 994 208 926 q 664 1063 482 1063 q 983 994 846 1063 q 1196 805 1119 926 q 1272 521 1272 683 q 1196 237 1272 358 q 983 47 1119 115 q 664 -21 846 -21 m 664 189 q 860 229 778 189 q 988 344 943 269 q 1033 521 1033 419 q 988 697 1033 622 q 860 813 943 772 q 664 853 778 853 q 468 813 551 853 q 340 697 385 772 q 294 521 294 622 q 340 344 294 419 q 468 229 385 269 q 664 189 551 189 m 344 1157 l 344 1301 l 983 1301 l 983 1157 l 344 1157 z "},"Ṓ":{"ha":1328,"x_min":56,"x_max":1272,"o":"m 664 -21 q 345 47 482 -21 q 132 237 208 115 q 56 521 56 358 q 132 805 56 683 q 345 994 208 926 q 664 1063 482 1063 q 983 994 846 1063 q 1196 805 1119 926 q 1272 521 1272 683 q 1196 237 1272 358 q 983 47 1119 115 q 664 -21 846 -21 m 664 189 q 860 229 778 189 q 988 344 943 269 q 1033 521 1033 419 q 988 697 1033 622 q 860 813 943 772 q 664 853 778 853 q 468 813 551 853 q 340 697 385 772 q 294 521 294 622 q 340 344 294 419 q 468 229 385 269 q 664 189 551 189 m 344 1157 l 344 1301 l 983 1301 l 983 1157 l 344 1157 m 719 1607 l 988 1607 l 753 1383 l 515 1383 l 719 1607 z "},"Ṑ":{"ha":1328,"x_min":56,"x_max":1272,"o":"m 664 -21 q 345 47 482 -21 q 132 237 208 115 q 56 521 56 358 q 132 805 56 683 q 345 994 208 926 q 664 1063 482 1063 q 983 994 846 1063 q 1196 805 1119 926 q 1272 521 1272 683 q 1196 237 1272 358 q 983 47 1119 115 q 664 -21 846 -21 m 664 189 q 860 229 778 189 q 988 344 943 269 q 1033 521 1033 419 q 988 697 1033 622 q 860 813 943 772 q 664 853 778 853 q 468 813 551 853 q 340 697 385 772 q 294 521 294 622 q 340 344 294 419 q 468 229 385 269 q 664 189 551 189 m 344 1157 l 344 1301 l 983 1301 l 983 1157 l 344 1157 m 592 1606 l 794 1383 l 558 1383 l 324 1606 l 592 1606 z "},"Ꞷ":{"ha":1590,"x_min":61,"x_max":1529,"o":"m 61 504 q 121 782 61 661 q 294 974 181 903 q 568 1050 408 1044 l 568 840 q 422 790 482 831 q 331 678 361 750 q 300 504 300 606 q 356 268 300 351 q 510 185 413 185 q 612 216 571 185 q 674 313 653 247 q 694 485 694 379 l 694 671 l 896 671 l 896 485 q 917 313 896 379 q 978 216 938 247 q 1081 185 1019 185 q 1234 268 1178 185 q 1290 504 1290 351 q 1260 678 1290 606 q 1169 790 1229 750 q 1022 840 1110 831 l 1022 1050 q 1297 974 1183 1044 q 1469 782 1410 903 q 1529 504 1529 661 q 1478 228 1529 346 q 1335 44 1428 110 q 1119 -21 1243 -21 q 855 97 944 -21 q 778 425 765 214 l 813 425 q 736 97 826 214 q 471 -21 646 -21 q 256 44 349 -21 q 113 228 164 110 q 61 504 61 346 z "},"Ǫ":{"ha":1328,"x_min":56,"x_max":1272,"o":"m 850 -265 q 792 -278 832 -272 q 711 -283 753 -283 q 564 -248 619 -283 q 508 -153 508 -212 q 556 -60 508 -100 q 701 10 603 -21 l 686 -21 q 430 14 546 -24 q 231 124 314 51 q 101 297 147 196 q 56 521 56 399 q 132 805 56 683 q 345 994 208 926 q 664 1063 482 1063 q 983 994 846 1063 q 1196 805 1119 926 q 1272 521 1272 683 q 1220 283 1272 389 q 1073 104 1168 176 q 849 0 978 32 q 723 -47 764 -21 q 682 -101 682 -74 q 767 -142 682 -142 q 810 -140 789 -142 q 850 -133 832 -137 l 850 -265 m 294 521 q 340 344 294 419 q 468 229 385 269 q 664 189 551 189 q 860 229 778 189 q 988 344 943 269 q 1033 521 1033 419 q 988 697 1033 622 q 860 813 943 772 q 664 853 778 853 q 468 813 551 853 q 340 697 385 772 q 294 521 294 622 z "},"Ǭ":{"ha":1328,"x_min":56,"x_max":1272,"o":"m 850 -265 q 792 -278 832 -272 q 711 -283 753 -283 q 564 -248 619 -283 q 508 -153 508 -212 q 556 -60 508 -100 q 701 10 603 -21 l 686 -21 q 430 14 546 -24 q 231 124 314 51 q 101 297 147 196 q 56 521 56 399 q 132 805 56 683 q 345 994 208 926 q 664 1063 482 1063 q 983 994 846 1063 q 1196 805 1119 926 q 1272 521 1272 683 q 1220 283 1272 389 q 1073 104 1168 176 q 849 0 978 32 q 723 -47 764 -21 q 682 -101 682 -74 q 767 -142 682 -142 q 810 -140 789 -142 q 850 -133 832 -137 l 850 -265 m 294 521 q 340 344 294 419 q 468 229 385 269 q 664 189 551 189 q 860 229 778 189 q 988 344 943 269 q 1033 521 1033 419 q 988 697 1033 622 q 860 813 943 772 q 664 853 778 853 q 468 813 551 853 q 340 697 385 772 q 294 521 294 622 m 344 1157 l 344 1301 l 983 1301 l 983 1157 l 344 1157 z "},"Ɔ":{"ha":1282,"x_min":47,"x_max":1225,"o":"m 47 424 l 285 424 q 344 295 299 349 q 463 213 390 242 q 631 185 535 185 q 820 226 740 185 q 943 342 900 267 q 986 521 986 418 q 943 699 986 624 q 820 816 900 775 q 631 857 740 857 q 463 828 535 857 q 344 745 390 799 q 285 618 299 692 l 47 618 q 140 851 63 751 q 342 1007 217 951 q 629 1063 468 1063 q 942 994 808 1063 q 1150 805 1075 926 q 1225 521 1225 683 q 1150 237 1225 358 q 942 47 1075 115 q 629 -21 808 -21 q 342 35 468 -21 q 140 191 217 90 q 47 424 63 292 z "},"Ø":{"ha":1328,"x_min":56,"x_max":1271,"o":"m 1022 1064 l 1243 1064 l 306 -22 l 83 -22 l 1022 1064 m 663 -21 q 345 47 482 -21 q 132 237 208 115 q 56 521 56 358 q 132 805 56 683 q 345 994 208 926 q 663 1063 482 1063 q 907 1024 796 1063 q 1099 913 1018 985 q 1226 742 1181 842 q 1271 521 1271 643 q 1194 237 1271 358 q 981 47 1118 115 q 663 -21 844 -21 m 663 182 q 861 223 778 182 q 991 340 944 264 q 1038 521 1038 417 q 991 701 1038 625 q 861 819 944 778 q 663 860 778 860 q 465 819 549 860 q 336 701 382 778 q 290 521 290 625 q 336 340 290 417 q 465 223 382 264 q 663 182 549 182 z "},"Ǿ":{"ha":1328,"x_min":56,"x_max":1271,"o":"m 1022 1064 l 1243 1064 l 306 -22 l 83 -22 l 1022 1064 m 663 -21 q 345 47 482 -21 q 132 237 208 115 q 56 521 56 358 q 132 805 56 683 q 345 994 208 926 q 663 1063 482 1063 q 907 1024 796 1063 q 1099 913 1018 985 q 1226 742 1181 842 q 1271 521 1271 643 q 1194 237 1271 358 q 981 47 1118 115 q 663 -21 844 -21 m 663 182 q 861 223 778 182 q 991 340 944 264 q 1038 521 1038 417 q 991 701 1038 625 q 861 819 944 778 q 663 860 778 860 q 465 819 549 860 q 336 701 382 778 q 290 521 290 625 q 336 340 290 417 q 465 223 382 264 q 663 182 549 182 m 718 1346 l 986 1346 l 751 1122 l 514 1122 l 718 1346 z "},"Õ":{"ha":1328,"x_min":56,"x_max":1272,"o":"m 664 -21 q 345 47 482 -21 q 132 237 208 115 q 56 521 56 358 q 132 805 56 683 q 345 994 208 926 q 664 1063 482 1063 q 983 994 846 1063 q 1196 805 1119 926 q 1272 521 1272 683 q 1196 237 1272 358 q 983 47 1119 115 q 664 -21 846 -21 m 664 189 q 860 229 778 189 q 988 344 943 269 q 1033 521 1033 419 q 988 697 1033 622 q 860 813 943 772 q 664 853 778 853 q 468 813 551 853 q 340 697 385 772 q 294 521 294 622 q 340 344 294 419 q 468 229 385 269 q 664 189 551 189 m 310 1131 q 376 1291 322 1232 q 529 1350 429 1350 q 603 1339 568 1350 q 672 1315 639 1328 q 735 1290 706 1301 q 789 1279 764 1279 q 839 1296 819 1279 q 863 1344 858 1313 l 1018 1344 q 951 1185 1006 1244 q 797 1125 897 1125 q 724 1136 760 1125 q 655 1161 688 1147 q 592 1186 622 1175 q 539 1197 563 1197 q 489 1180 508 1197 q 465 1131 469 1163 l 310 1131 z "},"Ṍ":{"ha":1328,"x_min":56,"x_max":1272,"o":"m 664 -21 q 345 47 482 -21 q 132 237 208 115 q 56 521 56 358 q 132 805 56 683 q 345 994 208 926 q 664 1063 482 1063 q 983 994 846 1063 q 1196 805 1119 926 q 1272 521 1272 683 q 1196 237 1272 358 q 983 47 1119 115 q 664 -21 846 -21 m 664 189 q 860 229 778 189 q 988 344 943 269 q 1033 521 1033 419 q 988 697 1033 622 q 860 813 943 772 q 664 853 778 853 q 468 813 551 853 q 340 697 385 772 q 294 521 294 622 q 340 344 294 419 q 468 229 385 269 q 664 189 551 189 m 310 1131 q 376 1291 322 1232 q 529 1350 429 1350 q 603 1339 568 1350 q 672 1315 639 1328 q 735 1290 706 1301 q 789 1279 764 1279 q 839 1296 819 1279 q 863 1344 858 1313 l 1018 1344 q 951 1185 1006 1244 q 797 1125 897 1125 q 724 1136 760 1125 q 655 1161 688 1147 q 592 1186 622 1175 q 539 1197 563 1197 q 489 1180 508 1197 q 465 1131 469 1163 l 310 1131 m 719 1614 l 988 1614 l 753 1390 l 515 1390 l 719 1614 z "},"Ṏ":{"ha":1328,"x_min":56,"x_max":1272,"o":"m 664 -21 q 345 47 482 -21 q 132 237 208 115 q 56 521 56 358 q 132 805 56 683 q 345 994 208 926 q 664 1063 482 1063 q 983 994 846 1063 q 1196 805 1119 926 q 1272 521 1272 683 q 1196 237 1272 358 q 983 47 1119 115 q 664 -21 846 -21 m 664 189 q 860 229 778 189 q 988 344 943 269 q 1033 521 1033 419 q 988 697 1033 622 q 860 813 943 772 q 664 853 778 853 q 468 813 551 853 q 340 697 385 772 q 294 521 294 622 q 340 344 294 419 q 468 229 385 269 q 664 189 551 189 m 310 1131 q 376 1291 322 1232 q 529 1350 429 1350 q 603 1339 568 1350 q 672 1315 639 1328 q 735 1290 706 1301 q 789 1279 764 1279 q 839 1296 819 1279 q 863 1344 858 1313 l 1018 1344 q 951 1185 1006 1244 q 797 1125 897 1125 q 724 1136 760 1125 q 655 1161 688 1147 q 592 1186 622 1175 q 539 1197 563 1197 q 489 1180 508 1197 q 465 1131 469 1163 l 310 1131 m 453 1400 q 357 1432 393 1400 q 321 1517 321 1464 q 357 1599 321 1568 q 453 1631 393 1631 q 550 1599 514 1631 q 586 1517 586 1568 q 550 1432 586 1464 q 453 1400 514 1400 m 874 1400 q 777 1432 814 1400 q 740 1517 740 1464 q 777 1599 740 1568 q 874 1631 814 1631 q 970 1599 933 1631 q 1007 1517 1007 1568 q 970 1432 1007 1464 q 874 1400 933 1400 z "},"Ȭ":{"ha":1328,"x_min":56,"x_max":1272,"o":"m 664 -21 q 345 47 482 -21 q 132 237 208 115 q 56 521 56 358 q 132 805 56 683 q 345 994 208 926 q 664 1063 482 1063 q 983 994 846 1063 q 1196 805 1119 926 q 1272 521 1272 683 q 1196 237 1272 358 q 983 47 1119 115 q 664 -21 846 -21 m 664 189 q 860 229 778 189 q 988 344 943 269 q 1033 521 1033 419 q 988 697 1033 622 q 860 813 943 772 q 664 853 778 853 q 468 813 551 853 q 340 697 385 772 q 294 521 294 622 q 340 344 294 419 q 468 229 385 269 q 664 189 551 189 m 310 1131 q 376 1291 322 1232 q 529 1350 429 1350 q 603 1339 568 1350 q 672 1315 639 1328 q 735 1290 706 1301 q 789 1279 764 1279 q 839 1296 819 1279 q 863 1344 858 1313 l 1018 1344 q 951 1185 1006 1244 q 797 1125 897 1125 q 724 1136 760 1125 q 655 1161 688 1147 q 592 1186 622 1175 q 539 1197 563 1197 q 489 1180 508 1197 q 465 1131 469 1163 l 310 1131 m 344 1425 l 344 1569 l 983 1569 l 983 1425 l 344 1425 z "},"Œ":{"ha":1861,"x_min":56,"x_max":1789,"o":"m 663 0 q 345 65 482 0 q 132 248 208 131 q 56 521 56 365 q 131 794 56 678 q 341 976 206 911 q 657 1042 476 1042 l 1782 1042 l 1782 846 l 1136 846 l 1136 613 l 1744 613 l 1744 432 l 1136 432 l 1136 196 l 1789 196 l 1789 0 l 663 0 m 649 208 l 907 208 l 907 833 l 649 833 q 462 794 542 833 q 338 685 382 756 q 294 521 294 615 q 338 357 294 428 q 462 247 382 286 q 649 208 542 208 z "},"P":{"ha":1106,"x_min":107,"x_max":1075,"o":"m 675 1042 q 889 999 799 1042 q 1027 878 979 956 q 1075 697 1075 800 q 1027 517 1075 594 q 889 397 979 440 q 675 353 799 353 l 215 353 l 215 547 l 663 547 q 791 588 744 547 q 838 697 838 628 q 791 808 838 768 q 663 847 744 847 l 236 847 l 343 960 l 343 0 l 107 0 l 107 1042 l 675 1042 z "},"Ṕ":{"ha":1106,"x_min":107,"x_max":1075,"o":"m 675 1042 q 889 999 799 1042 q 1027 878 979 956 q 1075 697 1075 800 q 1027 517 1075 594 q 889 397 979 440 q 675 353 799 353 l 215 353 l 215 547 l 663 547 q 791 588 744 547 q 838 697 838 628 q 791 808 838 768 q 663 847 744 847 l 236 847 l 343 960 l 343 0 l 107 0 l 107 1042 l 675 1042 m 619 1346 l 888 1346 l 653 1122 l 415 1122 l 619 1346 z "},"Ṗ":{"ha":1106,"x_min":107,"x_max":1075,"o":"m 675 1042 q 889 999 799 1042 q 1027 878 979 956 q 1075 697 1075 800 q 1027 517 1075 594 q 889 397 979 440 q 675 353 799 353 l 215 353 l 215 547 l 663 547 q 791 588 744 547 q 838 697 838 628 q 791 808 838 768 q 663 847 744 847 l 236 847 l 343 960 l 343 0 l 107 0 l 107 1042 l 675 1042 m 565 1132 q 463 1165 503 1132 q 424 1253 424 1197 q 463 1340 424 1307 q 565 1374 503 1374 q 668 1340 629 1374 q 707 1253 707 1307 q 668 1165 707 1197 q 565 1132 629 1132 z "},"Ƥ":{"ha":1406,"x_min":29,"x_max":1375,"o":"m 299 1042 l 975 1042 q 1189 999 1099 1042 q 1327 878 1279 956 q 1375 697 1375 800 q 1327 517 1375 594 q 1189 397 1279 440 q 975 353 1099 353 l 515 353 l 515 547 l 963 547 q 1091 588 1044 547 q 1138 697 1138 628 q 1091 808 1138 768 q 963 847 1044 847 l 536 847 l 642 960 l 642 0 l 407 0 l 407 947 l 507 843 l 343 843 q 262 820 292 843 q 232 739 232 797 q 241 665 232 701 q 261 599 250 629 l 82 599 q 46 692 63 639 q 29 804 29 744 q 96 978 29 915 q 299 1042 163 1042 z "},"Þ":{"ha":1126,"x_min":107,"x_max":1075,"o":"m 107 1042 l 343 1042 l 343 0 l 107 0 l 107 1042 m 675 183 l 263 183 l 263 376 l 661 376 q 791 417 744 376 q 838 528 838 457 q 791 638 838 597 q 661 679 744 679 l 264 679 l 264 871 l 675 871 q 889 828 799 871 q 1027 708 979 786 q 1075 528 1075 631 q 1027 346 1075 424 q 889 226 979 268 q 675 183 799 183 z "},"Ᵽ":{"ha":1154,"x_min":31,"x_max":1124,"o":"m 31 769 l 654 769 l 654 618 l 31 618 l 31 769 m 722 1042 q 937 998 847 1042 q 1075 876 1026 954 q 1124 693 1124 797 q 1075 510 1124 589 q 937 388 1026 432 q 722 344 847 344 l 263 344 l 263 540 l 710 540 q 838 581 792 540 q 885 693 885 622 q 838 806 885 765 q 710 847 792 847 l 285 847 l 390 960 l 390 0 l 154 0 l 154 1042 l 722 1042 z "},"Q":{"ha":1329,"x_min":56,"x_max":1272,"o":"m 508 411 l 792 411 l 1250 -75 l 960 -75 l 508 411 m 664 -21 q 345 47 482 -21 q 132 237 208 115 q 56 521 56 358 q 132 805 56 683 q 345 994 208 926 q 664 1063 482 1063 q 983 994 846 1063 q 1196 805 1119 926 q 1272 521 1272 683 q 1196 237 1272 358 q 983 47 1119 115 q 664 -21 846 -21 m 664 189 q 860 229 778 189 q 988 344 943 269 q 1033 521 1033 419 q 988 697 1033 622 q 860 813 943 772 q 664 853 778 853 q 468 813 551 853 q 340 697 385 772 q 294 521 294 622 q 340 344 294 419 q 468 229 385 269 q 664 189 551 189 z "},"Ɋ":{"ha":1343,"x_min":60,"x_max":1501,"o":"m 1374 -65 q 1443 -58 1411 -65 q 1501 -42 1475 -51 l 1501 -217 q 1413 -242 1461 -233 q 1318 -250 1365 -250 q 1081 -165 1157 -250 q 1004 75 1004 -81 l 1004 385 l 1043 522 l 1004 657 l 1004 1042 l 1238 1042 l 1238 96 q 1269 -25 1238 15 q 1374 -65 1300 -65 m 1103 522 q 1001 236 1074 358 q 818 47 928 114 q 567 -21 708 -21 q 301 47 415 -21 q 123 237 186 115 q 60 521 60 358 q 123 805 60 683 q 301 994 186 926 q 567 1063 415 1063 q 818 997 708 1063 q 1001 809 928 931 q 1103 522 1075 688 m 297 522 q 339 349 297 425 q 453 229 381 272 q 624 186 526 186 q 790 229 714 186 q 924 349 865 272 q 1014 522 982 425 q 924 694 982 619 q 790 813 865 769 q 624 856 714 856 q 454 813 528 856 q 339 694 381 769 q 297 522 297 619 z "},"R":{"ha":1153,"x_min":107,"x_max":1114,"o":"m 271 579 l 672 579 q 798 616 751 579 q 844 718 844 653 q 798 819 844 783 q 672 856 751 856 l 236 856 l 343 976 l 343 0 l 107 0 l 107 1042 l 700 1042 q 900 1001 814 1042 q 1035 888 986 960 q 1083 718 1083 815 q 1035 550 1083 622 q 900 437 986 478 q 700 396 814 396 l 271 396 l 271 579 m 451 488 l 721 488 l 1114 0 l 838 0 l 451 488 z "},"Ŕ":{"ha":1153,"x_min":107,"x_max":1114,"o":"m 271 579 l 672 579 q 798 616 751 579 q 844 718 844 653 q 798 819 844 783 q 672 856 751 856 l 236 856 l 343 976 l 343 0 l 107 0 l 107 1042 l 700 1042 q 900 1001 814 1042 q 1035 888 986 960 q 1083 718 1083 815 q 1035 550 1083 622 q 900 437 986 478 q 700 396 814 396 l 271 396 l 271 579 m 451 488 l 721 488 l 1114 0 l 838 0 l 451 488 m 619 1346 l 888 1346 l 653 1122 l 415 1122 l 619 1346 z "},"Ř":{"ha":1153,"x_min":107,"x_max":1114,"o":"m 271 579 l 672 579 q 798 616 751 579 q 844 718 844 653 q 798 819 844 783 q 672 856 751 856 l 236 856 l 343 976 l 343 0 l 107 0 l 107 1042 l 700 1042 q 900 1001 814 1042 q 1035 888 986 960 q 1083 718 1083 815 q 1035 550 1083 622 q 900 437 986 478 q 700 396 814 396 l 271 396 l 271 579 m 451 488 l 721 488 l 1114 0 l 838 0 l 451 488 m 690 1122 l 439 1122 l 231 1344 l 429 1344 l 617 1200 l 513 1200 l 700 1344 l 897 1344 l 690 1122 z "},"Ŗ":{"ha":1153,"x_min":107,"x_max":1114,"o":"m 271 579 l 672 579 q 798 616 751 579 q 844 718 844 653 q 798 819 844 783 q 672 856 751 856 l 236 856 l 343 976 l 343 0 l 107 0 l 107 1042 l 700 1042 q 900 1001 814 1042 q 1035 888 986 960 q 1083 718 1083 815 q 1035 550 1083 622 q 900 437 986 478 q 700 396 814 396 l 271 396 l 271 579 m 451 488 l 721 488 l 1114 0 l 838 0 l 451 488 m 463 -397 l 575 -206 l 585 -269 q 490 -241 526 -269 q 454 -167 454 -212 q 490 -92 454 -119 q 585 -64 525 -64 q 680 -92 644 -64 q 715 -169 715 -121 q 699 -231 715 -203 q 643 -312 683 -258 l 578 -397 l 463 -397 z "},"Ȑ":{"ha":1153,"x_min":103,"x_max":1114,"o":"m 271 579 l 672 579 q 798 616 751 579 q 844 718 844 653 q 798 819 844 783 q 672 856 751 856 l 236 856 l 343 976 l 343 0 l 107 0 l 107 1042 l 700 1042 q 900 1001 814 1042 q 1035 888 986 960 q 1083 718 1083 815 q 1035 550 1083 622 q 900 437 986 478 q 700 396 814 396 l 271 396 l 271 579 m 451 488 l 721 488 l 1114 0 l 838 0 l 451 488 m 665 1346 l 835 1122 l 626 1122 l 439 1346 l 665 1346 m 331 1346 l 500 1122 l 292 1122 l 103 1346 l 331 1346 z "},"Ṙ":{"ha":1153,"x_min":107,"x_max":1114,"o":"m 271 579 l 672 579 q 798 616 751 579 q 844 718 844 653 q 798 819 844 783 q 672 856 751 856 l 236 856 l 343 976 l 343 0 l 107 0 l 107 1042 l 700 1042 q 900 1001 814 1042 q 1035 888 986 960 q 1083 718 1083 815 q 1035 550 1083 622 q 900 437 986 478 q 700 396 814 396 l 271 396 l 271 579 m 451 488 l 721 488 l 1114 0 l 838 0 l 451 488 m 565 1132 q 463 1165 503 1132 q 424 1253 424 1197 q 463 1340 424 1307 q 565 1374 503 1374 q 668 1340 629 1374 q 707 1253 707 1307 q 668 1165 707 1197 q 565 1132 629 1132 z "},"Ṛ":{"ha":1153,"x_min":107,"x_max":1114,"o":"m 271 579 l 672 579 q 798 616 751 579 q 844 718 844 653 q 798 819 844 783 q 672 856 751 856 l 236 856 l 343 976 l 343 0 l 107 0 l 107 1042 l 700 1042 q 900 1001 814 1042 q 1035 888 986 960 q 1083 718 1083 815 q 1035 550 1083 622 q 900 437 986 478 q 700 396 814 396 l 271 396 l 271 579 m 451 488 l 721 488 l 1114 0 l 838 0 l 451 488 m 585 -314 q 483 -281 522 -314 q 443 -194 443 -249 q 483 -106 443 -139 q 585 -74 522 -74 q 688 -106 649 -74 q 726 -194 726 -139 q 688 -281 726 -249 q 585 -314 649 -314 z "},"Ṝ":{"ha":1153,"x_min":107,"x_max":1114,"o":"m 271 579 l 672 579 q 798 616 751 579 q 844 718 844 653 q 798 819 844 783 q 672 856 751 856 l 236 856 l 343 976 l 343 0 l 107 0 l 107 1042 l 700 1042 q 900 1001 814 1042 q 1035 888 986 960 q 1083 718 1083 815 q 1035 550 1083 622 q 900 437 986 478 q 700 396 814 396 l 271 396 l 271 579 m 451 488 l 721 488 l 1114 0 l 838 0 l 451 488 m 585 -314 q 483 -281 522 -314 q 443 -194 443 -249 q 483 -106 443 -139 q 585 -74 522 -74 q 688 -106 649 -74 q 726 -194 726 -139 q 688 -281 726 -249 q 585 -314 649 -314 m 246 1157 l 246 1301 l 885 1301 l 885 1157 l 246 1157 z "},"Ȓ":{"ha":1153,"x_min":107,"x_max":1114,"o":"m 271 579 l 672 579 q 798 616 751 579 q 844 718 844 653 q 798 819 844 783 q 672 856 751 856 l 236 856 l 343 976 l 343 0 l 107 0 l 107 1042 l 700 1042 q 900 1001 814 1042 q 1035 888 986 960 q 1083 718 1083 815 q 1035 550 1083 622 q 900 437 986 478 q 700 396 814 396 l 271 396 l 271 579 m 451 488 l 721 488 l 1114 0 l 838 0 l 451 488 m 890 1118 l 710 1118 q 656 1185 692 1161 q 565 1208 619 1208 q 473 1185 510 1208 q 418 1118 436 1161 l 239 1118 q 356 1295 269 1236 q 565 1354 442 1354 q 775 1295 689 1354 q 890 1118 861 1236 z "},"Ṟ":{"ha":1153,"x_min":107,"x_max":1114,"o":"m 271 579 l 672 579 q 798 616 751 579 q 844 718 844 653 q 798 819 844 783 q 672 856 751 856 l 236 856 l 343 976 l 343 0 l 107 0 l 107 1042 l 700 1042 q 900 1001 814 1042 q 1035 888 986 960 q 1083 718 1083 815 q 1035 550 1083 622 q 900 437 986 478 q 700 396 814 396 l 271 396 l 271 579 m 451 488 l 721 488 l 1114 0 l 838 0 l 451 488 m 274 -237 l 274 -93 l 913 -93 l 913 -237 l 274 -237 z "},"Ɍ":{"ha":1207,"x_min":28,"x_max":1167,"o":"m 28 565 l 397 565 l 397 399 l 28 399 l 28 565 m 324 579 l 725 579 q 851 616 806 579 q 897 718 897 653 q 851 819 897 783 q 725 856 806 856 l 290 856 l 396 976 l 396 0 l 160 0 l 160 1042 l 753 1042 q 954 1001 868 1042 q 1088 888 1040 960 q 1136 718 1136 815 q 1088 550 1136 622 q 954 437 1040 478 q 753 396 868 396 l 324 396 l 324 579 m 504 488 l 774 488 l 1167 0 l 890 0 l 504 488 z "},"Ɽ":{"ha":1153,"x_min":107,"x_max":1114,"o":"m 450 488 l 721 488 l 1114 0 l 836 0 l 450 488 m 107 1042 l 700 1042 q 900 1001 814 1042 q 1035 888 986 960 q 1083 718 1083 815 q 1035 550 1083 622 q 900 437 986 478 q 700 396 814 396 l 343 396 l 343 96 q 374 -25 343 15 q 481 -65 406 -65 q 550 -58 518 -65 q 607 -42 582 -51 l 607 -221 q 520 -243 568 -236 q 425 -250 472 -250 q 185 -165 264 -250 q 107 75 107 -81 l 107 1042 m 343 579 l 672 579 q 798 616 751 579 q 844 718 844 653 q 798 819 844 782 q 672 856 751 856 l 343 856 l 343 579 z "},"S":{"ha":1143,"x_min":51,"x_max":1092,"o":"m 51 340 l 290 340 q 337 248 299 288 q 440 187 375 208 q 589 165 504 165 q 784 201 713 165 q 856 300 856 236 q 815 377 856 350 q 663 417 774 404 l 453 440 q 159 535 250 463 q 68 739 68 608 q 128 914 68 842 q 299 1024 189 986 q 557 1063 408 1063 q 814 1020 701 1063 q 993 902 926 978 q 1065 725 1060 826 l 826 725 q 785 805 819 771 q 692 858 751 839 q 551 876 632 876 q 372 843 439 876 q 306 749 306 810 q 345 676 306 701 q 485 638 385 650 l 703 611 q 933 562 847 596 q 1055 471 1018 528 q 1092 326 1092 414 q 1028 144 1092 222 q 851 22 965 65 q 585 -21 738 -21 q 311 24 429 -21 q 125 151 193 69 q 51 340 57 232 z "},"Ś":{"ha":1143,"x_min":51,"x_max":1092,"o":"m 51 340 l 290 340 q 337 248 299 288 q 440 187 375 208 q 589 165 504 165 q 784 201 713 165 q 856 300 856 236 q 815 377 856 350 q 663 417 774 404 l 453 440 q 159 535 250 463 q 68 739 68 608 q 128 914 68 842 q 299 1024 189 986 q 557 1063 408 1063 q 814 1020 701 1063 q 993 902 926 978 q 1065 725 1060 826 l 826 725 q 785 805 819 771 q 692 858 751 839 q 551 876 632 876 q 372 843 439 876 q 306 749 306 810 q 345 676 306 701 q 485 638 385 650 l 703 611 q 933 562 847 596 q 1055 471 1018 528 q 1092 326 1092 414 q 1028 144 1092 222 q 851 22 965 65 q 585 -21 738 -21 q 311 24 429 -21 q 125 151 193 69 q 51 340 57 232 m 626 1346 l 894 1346 l 660 1122 l 422 1122 l 626 1346 z "},"Ṥ":{"ha":1143,"x_min":51,"x_max":1092,"o":"m 51 340 l 290 340 q 337 248 299 288 q 440 187 375 208 q 589 165 504 165 q 784 201 713 165 q 856 300 856 236 q 815 377 856 350 q 663 417 774 404 l 453 440 q 159 535 250 463 q 68 739 68 608 q 128 914 68 842 q 299 1024 189 986 q 557 1063 408 1063 q 814 1020 701 1063 q 993 902 926 978 q 1065 725 1060 826 l 826 725 q 785 805 819 771 q 692 858 751 839 q 551 876 632 876 q 372 843 439 876 q 306 749 306 810 q 345 676 306 701 q 485 638 385 650 l 703 611 q 933 562 847 596 q 1055 471 1018 528 q 1092 326 1092 414 q 1028 144 1092 222 q 851 22 965 65 q 585 -21 738 -21 q 311 24 429 -21 q 125 151 193 69 q 51 340 57 232 m 626 1346 l 894 1346 l 660 1122 l 422 1122 l 626 1346 m 588 1386 q 485 1419 525 1386 q 446 1507 446 1451 q 485 1594 446 1561 q 588 1628 525 1628 q 690 1594 651 1628 q 729 1507 729 1561 q 690 1419 729 1451 q 588 1386 651 1386 z "},"Ꞌ":{"ha":408,"x_min":83,"x_max":325,"o":"m 83 1042 l 325 1042 l 289 361 l 118 361 l 83 1042 z "},"Š":{"ha":1143,"x_min":51,"x_max":1092,"o":"m 51 340 l 290 340 q 337 248 299 288 q 440 187 375 208 q 589 165 504 165 q 784 201 713 165 q 856 300 856 236 q 815 377 856 350 q 663 417 774 404 l 453 440 q 159 535 250 463 q 68 739 68 608 q 128 914 68 842 q 299 1024 189 986 q 557 1063 408 1063 q 814 1020 701 1063 q 993 902 926 978 q 1065 725 1060 826 l 826 725 q 785 805 819 771 q 692 858 751 839 q 551 876 632 876 q 372 843 439 876 q 306 749 306 810 q 345 676 306 701 q 485 638 385 650 l 703 611 q 933 562 847 596 q 1055 471 1018 528 q 1092 326 1092 414 q 1028 144 1092 222 q 851 22 965 65 q 585 -21 738 -21 q 311 24 429 -21 q 125 151 193 69 q 51 340 57 232 m 697 1122 l 446 1122 l 238 1344 l 436 1344 l 624 1200 l 519 1200 l 706 1344 l 904 1344 l 697 1122 z "},"Ṧ":{"ha":1143,"x_min":51,"x_max":1092,"o":"m 51 340 l 290 340 q 337 248 299 288 q 440 187 375 208 q 589 165 504 165 q 784 201 713 165 q 856 300 856 236 q 815 377 856 350 q 663 417 774 404 l 453 440 q 159 535 250 463 q 68 739 68 608 q 128 914 68 842 q 299 1024 189 986 q 557 1063 408 1063 q 814 1020 701 1063 q 993 902 926 978 q 1065 725 1060 826 l 826 725 q 785 805 819 771 q 692 858 751 839 q 551 876 632 876 q 372 843 439 876 q 306 749 306 810 q 345 676 306 701 q 485 638 385 650 l 703 611 q 933 562 847 596 q 1055 471 1018 528 q 1092 326 1092 414 q 1028 144 1092 222 q 851 22 965 65 q 585 -21 738 -21 q 311 24 429 -21 q 125 151 193 69 q 51 340 57 232 m 697 1122 l 446 1122 l 238 1344 l 436 1344 l 624 1200 l 519 1200 l 706 1344 l 904 1344 l 697 1122 m 571 1393 q 469 1426 508 1393 q 429 1513 429 1458 q 469 1601 429 1568 q 571 1635 508 1635 q 674 1601 635 1635 q 713 1513 713 1568 q 674 1426 713 1458 q 571 1393 635 1393 z "},"Ş":{"ha":1143,"x_min":51,"x_max":1092,"o":"m 51 340 l 290 340 q 337 248 299 288 q 440 187 375 208 q 589 165 504 165 q 784 201 713 165 q 856 300 856 236 q 815 377 856 350 q 663 417 774 404 l 453 440 q 159 535 250 463 q 68 739 68 608 q 128 914 68 842 q 299 1024 189 986 q 557 1063 408 1063 q 814 1020 701 1063 q 993 902 926 978 q 1065 725 1060 826 l 826 725 q 785 805 819 771 q 692 858 751 839 q 551 876 632 876 q 372 843 439 876 q 306 749 306 810 q 345 676 306 701 q 485 638 385 650 l 703 611 q 933 562 847 596 q 1055 471 1018 528 q 1092 326 1092 414 q 1028 144 1092 222 q 851 22 965 65 q 585 -21 738 -21 q 311 24 429 -21 q 125 151 193 69 q 51 340 57 232 m 519 22 l 640 22 l 569 -99 l 510 -94 q 578 -67 543 -76 q 658 -57 613 -57 q 797 -92 749 -57 q 846 -189 846 -128 q 783 -296 846 -254 q 600 -337 719 -337 q 423 -299 494 -337 q 331 -193 351 -261 l 489 -193 q 528 -224 501 -212 q 600 -235 554 -235 q 670 -220 647 -235 q 693 -183 693 -206 q 674 -151 693 -164 q 614 -139 654 -139 q 567 -142 589 -139 q 529 -153 546 -146 l 408 -153 l 519 22 z "},"Ŝ":{"ha":1143,"x_min":51,"x_max":1092,"o":"m 51 340 l 290 340 q 337 248 299 288 q 440 187 375 208 q 589 165 504 165 q 784 201 713 165 q 856 300 856 236 q 815 377 856 350 q 663 417 774 404 l 453 440 q 159 535 250 463 q 68 739 68 608 q 128 914 68 842 q 299 1024 189 986 q 557 1063 408 1063 q 814 1020 701 1063 q 993 902 926 978 q 1065 725 1060 826 l 826 725 q 785 805 819 771 q 692 858 751 839 q 551 876 632 876 q 372 843 439 876 q 306 749 306 810 q 345 676 306 701 q 485 638 385 650 l 703 611 q 933 562 847 596 q 1055 471 1018 528 q 1092 326 1092 414 q 1028 144 1092 222 q 851 22 965 65 q 585 -21 738 -21 q 311 24 429 -21 q 125 151 193 69 q 51 340 57 232 m 444 1346 l 696 1346 l 904 1122 l 706 1122 l 518 1267 l 622 1267 l 435 1122 l 238 1122 l 444 1346 z "},"Ș":{"ha":1143,"x_min":51,"x_max":1092,"o":"m 51 340 l 290 340 q 337 248 299 288 q 440 187 375 208 q 589 165 504 165 q 784 201 713 165 q 856 300 856 236 q 815 377 856 350 q 663 417 774 404 l 453 440 q 159 535 250 463 q 68 739 68 608 q 128 914 68 842 q 299 1024 189 986 q 557 1063 408 1063 q 814 1020 701 1063 q 993 902 926 978 q 1065 725 1060 826 l 826 725 q 785 805 819 771 q 692 858 751 839 q 551 876 632 876 q 372 843 439 876 q 306 749 306 810 q 345 676 306 701 q 485 638 385 650 l 703 611 q 933 562 847 596 q 1055 471 1018 528 q 1092 326 1092 414 q 1028 144 1092 222 q 851 22 965 65 q 585 -21 738 -21 q 311 24 429 -21 q 125 151 193 69 q 51 340 57 232 m 449 -397 l 561 -206 l 571 -269 q 476 -241 513 -269 q 440 -167 440 -212 q 476 -92 440 -119 q 571 -64 511 -64 q 666 -92 631 -64 q 701 -169 701 -121 q 685 -231 701 -203 q 629 -312 669 -258 l 564 -397 l 449 -397 z "},"Ṡ":{"ha":1143,"x_min":51,"x_max":1092,"o":"m 51 340 l 290 340 q 337 248 299 288 q 440 187 375 208 q 589 165 504 165 q 784 201 713 165 q 856 300 856 236 q 815 377 856 350 q 663 417 774 404 l 453 440 q 159 535 250 463 q 68 739 68 608 q 128 914 68 842 q 299 1024 189 986 q 557 1063 408 1063 q 814 1020 701 1063 q 993 902 926 978 q 1065 725 1060 826 l 826 725 q 785 805 819 771 q 692 858 751 839 q 551 876 632 876 q 372 843 439 876 q 306 749 306 810 q 345 676 306 701 q 485 638 385 650 l 703 611 q 933 562 847 596 q 1055 471 1018 528 q 1092 326 1092 414 q 1028 144 1092 222 q 851 22 965 65 q 585 -21 738 -21 q 311 24 429 -21 q 125 151 193 69 q 51 340 57 232 m 571 1132 q 469 1165 508 1132 q 429 1253 429 1197 q 469 1340 429 1307 q 571 1374 508 1374 q 674 1340 635 1374 q 713 1253 713 1307 q 674 1165 713 1197 q 571 1132 635 1132 z "},"Ṣ":{"ha":1143,"x_min":51,"x_max":1092,"o":"m 51 340 l 290 340 q 337 248 299 288 q 440 187 375 208 q 589 165 504 165 q 784 201 713 165 q 856 300 856 236 q 815 377 856 350 q 663 417 774 404 l 453 440 q 159 535 250 463 q 68 739 68 608 q 128 914 68 842 q 299 1024 189 986 q 557 1063 408 1063 q 814 1020 701 1063 q 993 902 926 978 q 1065 725 1060 826 l 826 725 q 785 805 819 771 q 692 858 751 839 q 551 876 632 876 q 372 843 439 876 q 306 749 306 810 q 345 676 306 701 q 485 638 385 650 l 703 611 q 933 562 847 596 q 1055 471 1018 528 q 1092 326 1092 414 q 1028 144 1092 222 q 851 22 965 65 q 585 -21 738 -21 q 311 24 429 -21 q 125 151 193 69 q 51 340 57 232 m 571 -314 q 469 -281 508 -314 q 429 -194 429 -249 q 469 -106 429 -139 q 571 -74 508 -74 q 674 -106 635 -74 q 713 -194 713 -139 q 674 -281 713 -249 q 571 -314 635 -314 z "},"Ṩ":{"ha":1143,"x_min":51,"x_max":1092,"o":"m 51 340 l 290 340 q 337 248 299 288 q 440 187 375 208 q 589 165 504 165 q 784 201 713 165 q 856 300 856 236 q 815 377 856 350 q 663 417 774 404 l 453 440 q 159 535 250 463 q 68 739 68 608 q 128 914 68 842 q 299 1024 189 986 q 557 1063 408 1063 q 814 1020 701 1063 q 993 902 926 978 q 1065 725 1060 826 l 826 725 q 785 805 819 771 q 692 858 751 839 q 551 876 632 876 q 372 843 439 876 q 306 749 306 810 q 345 676 306 701 q 485 638 385 650 l 703 611 q 933 562 847 596 q 1055 471 1018 528 q 1092 326 1092 414 q 1028 144 1092 222 q 851 22 965 65 q 585 -21 738 -21 q 311 24 429 -21 q 125 151 193 69 q 51 340 57 232 m 571 -314 q 469 -281 508 -314 q 429 -194 429 -249 q 469 -106 429 -139 q 571 -74 508 -74 q 674 -106 635 -74 q 713 -194 713 -139 q 674 -281 713 -249 q 571 -314 635 -314 m 571 1132 q 469 1165 508 1132 q 429 1253 429 1197 q 469 1340 429 1307 q 571 1374 508 1374 q 674 1340 635 1374 q 713 1253 713 1307 q 674 1165 713 1197 q 571 1132 635 1132 z "},"ẞ":{"ha":1256,"x_min":94,"x_max":1203,"o":"m 758 -21 q 644 -15 697 -21 q 541 3 592 -8 q 435 32 490 15 l 435 221 q 596 176 526 190 q 736 163 665 163 q 858 176 807 163 q 938 220 910 190 q 967 299 967 250 q 944 366 967 339 q 862 410 921 393 q 694 440 803 426 l 622 449 l 622 613 l 992 929 l 996 800 q 822 852 908 836 q 649 868 736 868 q 408 801 488 868 q 329 606 329 735 l 329 0 l 94 0 l 94 596 q 155 842 94 738 q 339 1005 215 947 q 650 1063 463 1063 q 911 1036 789 1063 q 1119 968 1033 1010 l 1119 804 l 785 522 l 690 607 l 771 599 q 982 560 899 586 q 1114 498 1065 535 q 1183 413 1163 461 q 1203 304 1203 365 q 1148 125 1203 197 q 992 16 1093 53 q 758 -21 892 -21 z "},"T":{"ha":1113,"x_min":24,"x_max":1088,"o":"m 439 936 l 674 936 l 674 0 l 439 0 l 439 936 m 24 1042 l 1088 1042 l 1088 833 l 24 833 l 24 1042 z "},"Ŧ":{"ha":1132,"x_min":35,"x_max":1097,"o":"m 172 556 l 960 556 l 960 389 l 172 389 l 172 556 m 449 936 l 683 936 l 683 0 l 449 0 l 449 936 m 35 1042 l 1097 1042 l 1097 833 l 35 833 l 35 1042 z "},"Ť":{"ha":1113,"x_min":24,"x_max":1088,"o":"m 439 936 l 674 936 l 674 0 l 439 0 l 439 936 m 24 1042 l 1088 1042 l 1088 833 l 24 833 l 24 1042 m 682 1122 l 431 1122 l 222 1344 l 421 1344 l 608 1200 l 504 1200 l 692 1344 l 889 1344 l 682 1122 z "},"Ţ":{"ha":1113,"x_min":24,"x_max":1088,"o":"m 439 936 l 674 936 l 674 0 l 439 0 l 439 936 m 24 1042 l 1088 1042 l 1088 833 l 24 833 l 24 1042 m 504 22 l 625 22 l 554 -99 l 494 -94 q 563 -67 528 -76 q 643 -57 597 -57 q 782 -92 733 -57 q 831 -189 831 -128 q 767 -296 831 -254 q 585 -337 704 -337 q 408 -299 479 -337 q 315 -193 336 -261 l 474 -193 q 513 -224 486 -212 q 585 -235 539 -235 q 655 -220 632 -235 q 678 -183 678 -206 q 658 -151 678 -164 q 599 -139 639 -139 q 552 -142 574 -139 q 514 -153 531 -146 l 393 -153 l 504 22 z "},"Ṱ":{"ha":1113,"x_min":24,"x_max":1088,"o":"m 439 936 l 674 936 l 674 0 l 439 0 l 439 936 m 24 1042 l 1088 1042 l 1088 833 l 24 833 l 24 1042 m 435 -58 l 678 -58 l 876 -308 l 688 -308 l 504 -121 l 608 -121 l 426 -308 l 236 -308 l 435 -58 z "},"Ț":{"ha":1113,"x_min":24,"x_max":1088,"o":"m 439 936 l 674 936 l 674 0 l 439 0 l 439 936 m 24 1042 l 1088 1042 l 1088 833 l 24 833 l 24 1042 m 433 -397 l 546 -206 l 556 -269 q 461 -241 497 -269 q 425 -167 425 -212 q 460 -92 425 -119 q 556 -64 496 -64 q 651 -92 615 -64 q 686 -169 686 -121 q 670 -231 686 -203 q 614 -312 654 -258 l 549 -397 l 433 -397 z "},"Ⱦ":{"ha":1132,"x_min":24,"x_max":1182,"o":"m 988 1211 l 1182 1211 l 443 -169 l 249 -169 l 988 1211 m 439 936 l 674 936 l 674 0 l 439 0 l 439 936 m 24 1042 l 1088 1042 l 1088 833 l 24 833 l 24 1042 z "},"Ṫ":{"ha":1113,"x_min":24,"x_max":1088,"o":"m 439 936 l 674 936 l 674 0 l 439 0 l 439 936 m 24 1042 l 1088 1042 l 1088 833 l 24 833 l 24 1042 m 556 1132 q 453 1165 493 1132 q 414 1253 414 1197 q 453 1340 414 1307 q 556 1374 493 1374 q 658 1340 619 1374 q 697 1253 697 1307 q 658 1165 697 1197 q 556 1132 619 1132 z "},"Ṭ":{"ha":1113,"x_min":24,"x_max":1088,"o":"m 439 936 l 674 936 l 674 0 l 439 0 l 439 936 m 24 1042 l 1088 1042 l 1088 833 l 24 833 l 24 1042 m 556 -314 q 453 -281 493 -314 q 414 -194 414 -249 q 453 -106 414 -139 q 556 -74 493 -74 q 658 -106 619 -74 q 697 -194 697 -139 q 658 -281 697 -249 q 556 -314 619 -314 z "},"Ƭ":{"ha":1228,"x_min":28,"x_max":1203,"o":"m 554 936 l 789 936 l 789 0 l 554 0 l 554 936 m 1203 1042 l 1203 833 l 347 833 q 262 809 292 833 q 232 729 232 785 q 240 662 232 694 q 261 599 249 629 l 81 599 q 44 692 61 639 q 28 804 28 744 q 94 978 28 915 q 297 1042 161 1042 l 1203 1042 z "},"Ṯ":{"ha":1113,"x_min":24,"x_max":1088,"o":"m 439 936 l 674 936 l 674 0 l 439 0 l 439 936 m 24 1042 l 1088 1042 l 1088 833 l 24 833 l 24 1042 m 244 -237 l 244 -93 l 883 -93 l 883 -237 l 244 -237 z "},"Ʈ":{"ha":1114,"x_min":24,"x_max":1088,"o":"m 24 1042 l 1088 1042 l 1088 833 l 24 833 l 24 1042 m 811 -65 q 881 -58 849 -65 q 938 -42 913 -51 l 938 -221 q 851 -243 899 -236 q 756 -250 803 -250 q 517 -165 596 -250 q 439 75 439 -81 l 439 936 l 674 936 l 674 96 q 706 -25 674 15 q 811 -65 738 -65 z "},"U":{"ha":1208,"x_min":93,"x_max":1115,"o":"m 329 457 q 361 314 329 374 q 455 222 393 254 q 604 189 517 189 q 754 222 693 189 q 847 314 815 254 q 879 457 879 374 l 879 1042 l 1115 1042 l 1115 446 q 1051 201 1115 306 q 872 38 988 96 q 604 -21 757 -21 q 337 38 451 -21 q 158 201 222 96 q 93 446 93 306 l 93 1042 l 329 1042 l 329 457 z "},"Ú":{"ha":1208,"x_min":93,"x_max":1115,"o":"m 329 457 q 361 314 329 374 q 455 222 393 254 q 604 189 517 189 q 754 222 693 189 q 847 314 815 254 q 879 457 879 374 l 879 1042 l 1115 1042 l 1115 446 q 1051 201 1115 306 q 872 38 988 96 q 604 -21 757 -21 q 337 38 451 -21 q 158 201 222 96 q 93 446 93 306 l 93 1042 l 329 1042 l 329 457 m 658 1346 l 926 1346 l 692 1122 l 454 1122 l 658 1346 z "},"Ʉ":{"ha":1328,"x_min":29,"x_max":1297,"o":"m 29 669 l 1297 669 l 1297 504 l 29 504 l 29 669 m 388 457 q 420 314 388 374 q 515 222 453 254 q 664 189 576 189 q 814 222 753 189 q 907 314 875 254 q 939 457 939 374 l 939 1042 l 1175 1042 l 1175 446 q 1110 201 1175 306 q 931 38 1046 96 q 664 -21 817 -21 q 396 38 511 -21 q 217 201 281 96 q 153 446 153 306 l 153 1042 l 388 1042 l 388 457 z "},"Ŭ":{"ha":1208,"x_min":93,"x_max":1115,"o":"m 329 457 q 361 314 329 374 q 455 222 393 254 q 604 189 517 189 q 754 222 693 189 q 847 314 815 254 q 879 457 879 374 l 879 1042 l 1115 1042 l 1115 446 q 1051 201 1115 306 q 872 38 988 96 q 604 -21 757 -21 q 337 38 451 -21 q 158 201 222 96 q 93 446 93 306 l 93 1042 l 329 1042 l 329 457 m 276 1350 l 457 1350 q 511 1283 475 1306 q 603 1260 547 1260 q 694 1283 658 1260 q 749 1350 731 1306 l 929 1350 q 813 1173 899 1232 q 603 1114 726 1114 q 394 1173 481 1114 q 276 1350 307 1232 z "},"Ǔ":{"ha":1208,"x_min":93,"x_max":1115,"o":"m 329 457 q 361 314 329 374 q 455 222 393 254 q 604 189 517 189 q 754 222 693 189 q 847 314 815 254 q 879 457 879 374 l 879 1042 l 1115 1042 l 1115 446 q 1051 201 1115 306 q 872 38 988 96 q 604 -21 757 -21 q 337 38 451 -21 q 158 201 222 96 q 93 446 93 306 l 93 1042 l 329 1042 l 329 457 m 729 1122 l 479 1122 l 269 1344 l 469 1344 l 656 1200 l 551 1200 l 739 1344 l 938 1344 l 729 1122 z "},"Û":{"ha":1208,"x_min":93,"x_max":1115,"o":"m 329 457 q 361 314 329 374 q 455 222 393 254 q 604 189 517 189 q 754 222 693 189 q 847 314 815 254 q 879 457 879 374 l 879 1042 l 1115 1042 l 1115 446 q 1051 201 1115 306 q 872 38 988 96 q 604 -21 757 -21 q 337 38 451 -21 q 158 201 222 96 q 93 446 93 306 l 93 1042 l 329 1042 l 329 457 m 478 1346 l 729 1346 l 938 1122 l 739 1122 l 551 1267 l 656 1267 l 468 1122 l 271 1122 l 478 1346 z "},"Ṷ":{"ha":1208,"x_min":93,"x_max":1115,"o":"m 329 457 q 361 314 329 374 q 455 222 393 254 q 604 189 517 189 q 754 222 693 189 q 847 314 815 254 q 879 457 879 374 l 879 1042 l 1115 1042 l 1115 446 q 1051 201 1115 306 q 872 38 988 96 q 604 -21 757 -21 q 337 38 451 -21 q 158 201 222 96 q 93 446 93 306 l 93 1042 l 329 1042 l 329 457 m 482 -58 l 725 -58 l 924 -308 l 735 -308 l 551 -121 l 656 -121 l 474 -308 l 283 -308 l 482 -58 z "},"Ȕ":{"ha":1208,"x_min":93,"x_max":1115,"o":"m 329 457 q 361 314 329 374 q 455 222 393 254 q 604 189 517 189 q 754 222 693 189 q 847 314 815 254 q 879 457 879 374 l 879 1042 l 1115 1042 l 1115 446 q 1051 201 1115 306 q 872 38 988 96 q 604 -21 757 -21 q 337 38 451 -21 q 158 201 222 96 q 93 446 93 306 l 93 1042 l 329 1042 l 329 457 m 704 1346 l 874 1122 l 667 1122 l 478 1346 l 704 1346 m 369 1346 l 539 1122 l 331 1122 l 142 1346 l 369 1346 z "},"Ü":{"ha":1208,"x_min":93,"x_max":1115,"o":"m 329 457 q 361 314 329 374 q 455 222 393 254 q 604 189 517 189 q 754 222 693 189 q 847 314 815 254 q 879 457 879 374 l 879 1042 l 1115 1042 l 1115 446 q 1051 201 1115 306 q 872 38 988 96 q 604 -21 757 -21 q 337 38 451 -21 q 158 201 222 96 q 93 446 93 306 l 93 1042 l 329 1042 l 329 457 m 393 1132 q 297 1164 333 1132 q 261 1249 261 1196 q 297 1331 261 1300 q 393 1363 333 1363 q 490 1331 454 1363 q 526 1249 526 1300 q 490 1164 526 1196 q 393 1132 454 1132 m 814 1132 q 717 1164 754 1132 q 681 1249 681 1196 q 717 1331 681 1300 q 814 1363 754 1363 q 910 1331 874 1363 q 947 1249 947 1300 q 910 1164 947 1196 q 814 1132 874 1132 z "},"Ǘ":{"ha":1208,"x_min":93,"x_max":1115,"o":"m 329 457 q 361 314 329 374 q 455 222 393 254 q 604 189 517 189 q 754 222 693 189 q 847 314 815 254 q 879 457 879 374 l 879 1042 l 1115 1042 l 1115 446 q 1051 201 1115 306 q 872 38 988 96 q 604 -21 757 -21 q 337 38 451 -21 q 158 201 222 96 q 93 446 93 306 l 93 1042 l 329 1042 l 329 457 m 393 1132 q 297 1164 333 1132 q 261 1249 261 1196 q 297 1331 261 1300 q 393 1363 333 1363 q 490 1331 454 1363 q 526 1249 526 1300 q 490 1164 526 1196 q 393 1132 454 1132 m 814 1132 q 717 1164 754 1132 q 681 1249 681 1196 q 717 1331 681 1300 q 814 1363 754 1363 q 910 1331 874 1363 q 947 1249 947 1300 q 910 1164 947 1196 q 814 1132 874 1132 m 660 1638 l 928 1638 l 693 1414 l 456 1414 l 660 1638 z "},"Ṳ":{"ha":1208,"x_min":93,"x_max":1115,"o":"m 329 457 q 361 314 329 374 q 455 222 393 254 q 604 189 517 189 q 754 222 693 189 q 847 314 815 254 q 879 457 879 374 l 879 1042 l 1115 1042 l 1115 446 q 1051 201 1115 306 q 872 38 988 96 q 604 -21 757 -21 q 337 38 451 -21 q 158 201 222 96 q 93 446 93 306 l 93 1042 l 329 1042 l 329 457 m 397 -303 q 301 -272 338 -303 q 264 -187 264 -240 q 301 -104 264 -135 q 397 -74 338 -74 q 494 -104 457 -74 q 531 -187 531 -135 q 494 -272 531 -240 q 397 -303 457 -303 m 813 -303 q 716 -272 753 -303 q 679 -187 679 -240 q 716 -104 679 -135 q 813 -74 753 -74 q 909 -104 872 -74 q 946 -187 946 -135 q 909 -272 946 -240 q 813 -303 872 -303 z "},"Ǚ":{"ha":1208,"x_min":93,"x_max":1115,"o":"m 329 457 q 361 314 329 374 q 455 222 393 254 q 604 189 517 189 q 754 222 693 189 q 847 314 815 254 q 879 457 879 374 l 879 1042 l 1115 1042 l 1115 446 q 1051 201 1115 306 q 872 38 988 96 q 604 -21 757 -21 q 337 38 451 -21 q 158 201 222 96 q 93 446 93 306 l 93 1042 l 329 1042 l 329 457 m 393 1132 q 297 1164 333 1132 q 260 1249 260 1196 q 297 1331 260 1300 q 393 1363 333 1363 q 490 1331 453 1363 q 526 1249 526 1300 q 490 1164 526 1196 q 393 1132 453 1132 m 814 1132 q 717 1164 754 1132 q 681 1249 681 1196 q 717 1331 681 1300 q 814 1363 754 1363 q 910 1331 874 1363 q 947 1249 947 1300 q 910 1164 947 1196 q 814 1132 874 1132 m 731 1414 l 479 1414 l 271 1638 l 469 1638 l 657 1493 l 553 1493 l 739 1638 l 938 1638 l 731 1414 z "},"Ǜ":{"ha":1208,"x_min":93,"x_max":1115,"o":"m 329 457 q 361 314 329 374 q 455 222 393 254 q 604 189 517 189 q 754 222 693 189 q 847 314 815 254 q 879 457 879 374 l 879 1042 l 1115 1042 l 1115 446 q 1051 201 1115 306 q 872 38 988 96 q 604 -21 757 -21 q 337 38 451 -21 q 158 201 222 96 q 93 446 93 306 l 93 1042 l 329 1042 l 329 457 m 393 1132 q 297 1164 333 1132 q 260 1249 260 1196 q 297 1331 260 1300 q 393 1363 333 1363 q 490 1331 453 1363 q 526 1249 526 1300 q 490 1164 526 1196 q 393 1132 453 1132 m 814 1132 q 717 1164 754 1132 q 681 1249 681 1196 q 717 1331 681 1300 q 814 1363 754 1363 q 910 1331 874 1363 q 947 1249 947 1300 q 910 1164 947 1196 q 814 1132 874 1132 m 532 1638 l 735 1415 l 499 1415 l 264 1638 l 532 1638 z "},"Ǖ":{"ha":1208,"x_min":93,"x_max":1115,"o":"m 329 457 q 361 314 329 374 q 455 222 393 254 q 604 189 517 189 q 754 222 693 189 q 847 314 815 254 q 879 457 879 374 l 879 1042 l 1115 1042 l 1115 446 q 1051 201 1115 306 q 872 38 988 96 q 604 -21 757 -21 q 337 38 451 -21 q 158 201 222 96 q 93 446 93 306 l 93 1042 l 329 1042 l 329 457 m 394 1132 q 299 1164 335 1132 q 263 1249 263 1196 q 299 1331 263 1300 q 394 1363 335 1363 q 492 1331 456 1363 q 528 1249 528 1300 q 492 1164 528 1196 q 394 1132 456 1132 m 815 1132 q 719 1164 756 1132 q 682 1249 682 1196 q 719 1331 682 1300 q 815 1363 756 1363 q 912 1331 875 1363 q 949 1249 949 1300 q 912 1164 949 1196 q 815 1132 875 1132 m 286 1435 l 286 1579 l 925 1579 l 925 1435 l 286 1435 z "},"Ụ":{"ha":1208,"x_min":93,"x_max":1115,"o":"m 329 457 q 361 314 329 374 q 455 222 393 254 q 604 189 517 189 q 754 222 693 189 q 847 314 815 254 q 879 457 879 374 l 879 1042 l 1115 1042 l 1115 446 q 1051 201 1115 306 q 872 38 988 96 q 604 -21 757 -21 q 337 38 451 -21 q 158 201 222 96 q 93 446 93 306 l 93 1042 l 329 1042 l 329 457 m 604 -314 q 502 -281 542 -314 q 463 -194 463 -249 q 502 -106 463 -139 q 604 -74 542 -74 q 707 -106 668 -74 q 746 -194 746 -139 q 707 -281 746 -249 q 604 -314 668 -314 z "},"Ù":{"ha":1208,"x_min":93,"x_max":1115,"o":"m 329 457 q 361 314 329 374 q 455 222 393 254 q 604 189 517 189 q 754 222 693 189 q 847 314 815 254 q 879 457 879 374 l 879 1042 l 1115 1042 l 1115 446 q 1051 201 1115 306 q 872 38 988 96 q 604 -21 757 -21 q 337 38 451 -21 q 158 201 222 96 q 93 446 93 306 l 93 1042 l 329 1042 l 329 457 m 532 1346 l 735 1122 l 497 1122 l 264 1346 l 532 1346 z "},"Ủ":{"ha":1208,"x_min":93,"x_max":1115,"o":"m 329 457 q 361 314 329 374 q 455 222 393 254 q 604 189 517 189 q 754 222 693 189 q 847 314 815 254 q 879 457 879 374 l 879 1042 l 1115 1042 l 1115 446 q 1051 201 1115 306 q 872 38 988 96 q 604 -21 757 -21 q 337 38 451 -21 q 158 201 222 96 q 93 446 93 306 l 93 1042 l 329 1042 l 329 457 m 550 1103 l 503 1182 q 598 1209 569 1193 q 626 1244 626 1225 q 604 1271 626 1263 q 539 1279 582 1279 q 478 1275 506 1279 q 419 1265 450 1271 l 419 1390 q 494 1406 447 1399 q 590 1413 540 1413 q 765 1380 704 1413 q 825 1276 825 1347 q 761 1169 825 1213 q 550 1103 697 1126 z "},"Ư":{"ha":1286,"x_min":93,"x_max":1351,"o":"m 329 457 q 361 314 329 374 q 455 222 393 254 q 604 189 517 189 q 754 222 693 189 q 847 314 815 254 q 879 457 879 374 l 879 1042 l 1115 1042 l 1115 446 q 1051 201 1115 306 q 872 38 988 96 q 604 -21 757 -21 q 337 38 451 -21 q 158 201 222 96 q 93 446 93 306 l 93 1042 l 329 1042 l 329 457 m 1353 1092 q 1283 959 1353 1008 q 1094 910 1214 910 q 1083 910 1090 910 q 1072 910 1076 910 l 1072 1042 q 1075 1042 1075 1042 q 1076 1042 1075 1042 q 1144 1063 1119 1042 q 1169 1121 1169 1085 q 1160 1170 1169 1143 q 1132 1222 1150 1197 l 1311 1222 q 1353 1092 1353 1160 z "},"Ứ":{"ha":1286,"x_min":93,"x_max":1351,"o":"m 329 457 q 361 314 329 374 q 455 222 393 254 q 604 189 517 189 q 754 222 693 189 q 847 314 815 254 q 879 457 879 374 l 879 1042 l 1115 1042 l 1115 446 q 1051 201 1115 306 q 872 38 988 96 q 604 -21 757 -21 q 337 38 451 -21 q 158 201 222 96 q 93 446 93 306 l 93 1042 l 329 1042 l 329 457 m 1353 1092 q 1283 959 1353 1008 q 1094 910 1214 910 q 1083 910 1090 910 q 1072 910 1076 910 l 1072 1042 q 1075 1042 1075 1042 q 1076 1042 1075 1042 q 1144 1063 1119 1042 q 1169 1121 1169 1085 q 1160 1170 1169 1143 q 1132 1222 1150 1197 l 1311 1222 q 1353 1092 1353 1160 m 663 1346 l 931 1346 l 696 1122 l 458 1122 l 663 1346 z "},"Ự":{"ha":1286,"x_min":93,"x_max":1351,"o":"m 329 457 q 361 314 329 374 q 455 222 393 254 q 604 189 517 189 q 754 222 693 189 q 847 314 815 254 q 879 457 879 374 l 879 1042 l 1115 1042 l 1115 446 q 1051 201 1115 306 q 872 38 988 96 q 604 -21 757 -21 q 337 38 451 -21 q 158 201 222 96 q 93 446 93 306 l 93 1042 l 329 1042 l 329 457 m 1353 1092 q 1283 959 1353 1008 q 1094 910 1214 910 q 1083 910 1090 910 q 1072 910 1076 910 l 1072 1042 q 1075 1042 1075 1042 q 1076 1042 1075 1042 q 1144 1063 1119 1042 q 1169 1121 1169 1085 q 1160 1170 1169 1143 q 1132 1222 1150 1197 l 1311 1222 q 1353 1092 1353 1160 m 607 -314 q 505 -281 544 -314 q 465 -194 465 -249 q 505 -106 465 -139 q 607 -74 544 -74 q 710 -106 671 -74 q 749 -194 749 -139 q 710 -281 749 -249 q 607 -314 671 -314 z "},"Ừ":{"ha":1286,"x_min":93,"x_max":1351,"o":"m 329 457 q 361 314 329 374 q 455 222 393 254 q 604 189 517 189 q 754 222 693 189 q 847 314 815 254 q 879 457 879 374 l 879 1042 l 1115 1042 l 1115 446 q 1051 201 1115 306 q 872 38 988 96 q 604 -21 757 -21 q 337 38 451 -21 q 158 201 222 96 q 93 446 93 306 l 93 1042 l 329 1042 l 329 457 m 1351 1093 q 1283 959 1351 1008 q 1094 910 1214 910 q 1083 910 1089 910 q 1072 910 1076 910 l 1072 1042 q 1075 1042 1075 1042 q 1076 1042 1075 1042 q 1144 1063 1119 1042 q 1168 1121 1168 1085 q 1159 1170 1168 1143 q 1132 1224 1150 1197 l 1311 1224 q 1351 1093 1351 1160 m 535 1346 l 739 1122 l 501 1122 l 267 1346 l 535 1346 z "},"Ử":{"ha":1286,"x_min":93,"x_max":1351,"o":"m 329 457 q 361 314 329 374 q 455 222 393 254 q 604 189 517 189 q 754 222 693 189 q 847 314 815 254 q 879 457 879 374 l 879 1042 l 1115 1042 l 1115 446 q 1051 201 1115 306 q 872 38 988 96 q 604 -21 757 -21 q 337 38 451 -21 q 158 201 222 96 q 93 446 93 306 l 93 1042 l 329 1042 l 329 457 m 1353 1092 q 1283 959 1353 1008 q 1094 910 1214 910 q 1083 910 1090 910 q 1072 910 1076 910 l 1072 1042 q 1075 1042 1075 1042 q 1076 1042 1075 1042 q 1144 1063 1119 1042 q 1169 1121 1169 1085 q 1160 1170 1169 1143 q 1132 1222 1150 1197 l 1311 1222 q 1353 1092 1353 1160 m 553 1103 l 506 1182 q 601 1209 572 1193 q 629 1244 629 1225 q 607 1271 629 1263 q 542 1279 585 1279 q 481 1275 508 1279 q 422 1265 453 1271 l 422 1390 q 497 1406 450 1399 q 593 1413 543 1413 q 767 1380 707 1413 q 828 1276 828 1347 q 764 1169 828 1213 q 553 1103 700 1126 z "},"Ữ":{"ha":1286,"x_min":93,"x_max":1351,"o":"m 329 457 q 361 314 329 374 q 455 222 393 254 q 604 189 517 189 q 754 222 693 189 q 847 314 815 254 q 879 457 879 374 l 879 1042 l 1115 1042 l 1115 446 q 1051 201 1115 306 q 872 38 988 96 q 604 -21 757 -21 q 337 38 451 -21 q 158 201 222 96 q 93 446 93 306 l 93 1042 l 329 1042 l 329 457 m 1353 1092 q 1283 959 1353 1008 q 1094 910 1214 910 q 1083 910 1090 910 q 1072 910 1076 910 l 1072 1042 q 1075 1042 1075 1042 q 1076 1042 1075 1042 q 1144 1063 1119 1042 q 1169 1121 1169 1085 q 1160 1170 1169 1143 q 1132 1222 1150 1197 l 1311 1222 q 1353 1092 1353 1160 m 253 1131 q 319 1291 265 1232 q 472 1350 372 1350 q 547 1339 511 1350 q 615 1315 582 1328 q 678 1290 649 1301 q 732 1279 707 1279 q 782 1296 763 1279 q 806 1344 801 1313 l 961 1344 q 894 1185 949 1244 q 740 1125 840 1125 q 667 1136 703 1125 q 598 1161 631 1147 q 535 1186 565 1175 q 482 1197 506 1197 q 432 1180 451 1197 q 408 1131 413 1163 l 253 1131 z "},"Ű":{"ha":1208,"x_min":93,"x_max":1115,"o":"m 329 457 q 361 314 329 374 q 455 222 393 254 q 604 189 517 189 q 754 222 693 189 q 847 314 815 254 q 879 457 879 374 l 879 1042 l 1115 1042 l 1115 446 q 1051 201 1115 306 q 872 38 988 96 q 604 -21 757 -21 q 337 38 451 -21 q 158 201 222 96 q 93 446 93 306 l 93 1042 l 329 1042 l 329 457 m 468 1346 l 696 1346 l 507 1122 l 299 1122 l 468 1346 m 803 1346 l 1031 1346 l 842 1122 l 635 1122 l 803 1346 z "},"Ȗ":{"ha":1208,"x_min":93,"x_max":1115,"o":"m 329 457 q 361 314 329 374 q 455 222 393 254 q 604 189 517 189 q 754 222 693 189 q 847 314 815 254 q 879 457 879 374 l 879 1042 l 1115 1042 l 1115 446 q 1051 201 1115 306 q 872 38 988 96 q 604 -21 757 -21 q 337 38 451 -21 q 158 201 222 96 q 93 446 93 306 l 93 1042 l 329 1042 l 329 457 m 929 1118 l 750 1118 q 695 1185 731 1161 q 604 1208 660 1208 q 513 1185 549 1208 q 457 1118 476 1161 l 278 1118 q 395 1295 308 1236 q 604 1354 482 1354 q 814 1295 728 1354 q 929 1118 900 1236 z "},"Ū":{"ha":1208,"x_min":93,"x_max":1115,"o":"m 329 457 q 361 314 329 374 q 455 222 393 254 q 604 189 517 189 q 754 222 693 189 q 847 314 815 254 q 879 457 879 374 l 879 1042 l 1115 1042 l 1115 446 q 1051 201 1115 306 q 872 38 988 96 q 604 -21 757 -21 q 337 38 451 -21 q 158 201 222 96 q 93 446 93 306 l 93 1042 l 329 1042 l 329 457 m 285 1157 l 285 1301 l 924 1301 l 924 1157 l 285 1157 z "},"Ṻ":{"ha":1208,"x_min":93,"x_max":1115,"o":"m 329 457 q 361 314 329 374 q 455 222 393 254 q 604 189 517 189 q 754 222 693 189 q 847 314 815 254 q 879 457 879 374 l 879 1042 l 1115 1042 l 1115 446 q 1051 201 1115 306 q 872 38 988 96 q 604 -21 757 -21 q 337 38 451 -21 q 158 201 222 96 q 93 446 93 306 l 93 1042 l 329 1042 l 329 457 m 285 1157 l 285 1301 l 924 1301 l 924 1157 l 285 1157 m 393 1393 q 297 1425 333 1393 q 261 1510 261 1457 q 297 1592 261 1561 q 393 1624 333 1624 q 490 1592 454 1624 q 526 1510 526 1561 q 490 1425 526 1457 q 393 1393 454 1393 m 814 1393 q 717 1425 754 1393 q 681 1510 681 1457 q 717 1592 681 1561 q 814 1624 754 1624 q 910 1592 874 1624 q 947 1510 947 1561 q 910 1425 947 1457 q 814 1393 874 1393 z "},"Ų":{"ha":1208,"x_min":93,"x_max":1115,"o":"m 879 457 l 879 1042 l 1115 1042 l 1115 447 q 1025 163 1115 278 q 782 3 935 47 q 658 -47 701 -21 q 614 -100 614 -72 q 713 -142 614 -142 q 758 -140 736 -142 q 797 -133 779 -137 l 797 -265 q 739 -278 779 -272 q 657 -283 699 -283 q 504 -248 563 -283 q 446 -153 446 -212 q 492 -59 446 -99 q 638 10 539 -19 l 638 -18 q 353 30 476 -26 q 162 194 231 86 q 93 447 93 301 l 93 1042 l 329 1042 l 329 457 q 361 315 329 375 q 455 223 393 256 q 604 190 517 190 q 754 222 693 190 q 847 315 815 254 q 879 457 879 375 z "},"Ʊ":{"ha":1339,"x_min":60,"x_max":1279,"o":"m 669 -21 q 349 45 478 -21 q 154 224 219 111 q 89 478 89 338 q 195 778 89 650 q 492 967 301 907 l 428 861 l 60 861 l 60 1042 l 553 1042 l 553 876 q 381 733 442 821 q 321 531 321 646 q 363 350 321 426 q 482 232 404 274 q 669 190 560 190 q 857 232 779 190 q 976 350 935 274 q 1018 531 1018 426 q 958 733 1018 646 q 786 876 897 821 l 786 1042 l 1279 1042 l 1279 861 l 911 861 l 847 967 q 1143 778 1036 907 q 1250 478 1250 650 q 1185 224 1250 338 q 991 45 1119 111 q 669 -21 863 -21 z "},"Ů":{"ha":1208,"x_min":93,"x_max":1115,"o":"m 329 457 q 361 314 329 374 q 455 222 393 254 q 604 189 517 189 q 754 222 693 189 q 847 314 815 254 q 879 457 879 374 l 879 1042 l 1115 1042 l 1115 446 q 1051 201 1115 306 q 872 38 988 96 q 604 -21 757 -21 q 337 38 451 -21 q 158 201 222 96 q 93 446 93 306 l 93 1042 l 329 1042 l 329 457 m 604 1101 q 419 1148 486 1101 q 353 1276 353 1194 q 419 1405 353 1358 q 604 1451 486 1451 q 789 1405 724 1451 q 854 1276 854 1358 q 789 1148 854 1194 q 604 1101 724 1101 m 604 1208 q 692 1226 664 1208 q 721 1276 721 1243 q 692 1327 721 1310 q 604 1344 664 1344 q 515 1327 543 1344 q 486 1276 486 1310 q 515 1226 486 1243 q 604 1208 543 1208 z "},"Ũ":{"ha":1208,"x_min":93,"x_max":1115,"o":"m 329 457 q 361 314 329 374 q 455 222 393 254 q 604 189 517 189 q 754 222 693 189 q 847 314 815 254 q 879 457 879 374 l 879 1042 l 1115 1042 l 1115 446 q 1051 201 1115 306 q 872 38 988 96 q 604 -21 757 -21 q 337 38 451 -21 q 158 201 222 96 q 93 446 93 306 l 93 1042 l 329 1042 l 329 457 m 250 1131 q 316 1291 263 1232 q 469 1350 369 1350 q 544 1339 508 1350 q 613 1315 579 1328 q 675 1290 646 1301 q 729 1279 704 1279 q 779 1296 760 1279 q 803 1344 799 1313 l 958 1344 q 892 1185 946 1244 q 738 1125 838 1125 q 664 1136 700 1125 q 595 1161 628 1147 q 533 1186 563 1175 q 479 1197 503 1197 q 429 1180 449 1197 q 406 1131 410 1163 l 250 1131 z "},"Ṹ":{"ha":1208,"x_min":93,"x_max":1115,"o":"m 329 457 q 361 314 329 374 q 455 222 393 254 q 604 189 517 189 q 754 222 693 189 q 847 314 815 254 q 879 457 879 374 l 879 1042 l 1115 1042 l 1115 446 q 1051 201 1115 306 q 872 38 988 96 q 604 -21 757 -21 q 337 38 451 -21 q 158 201 222 96 q 93 446 93 306 l 93 1042 l 329 1042 l 329 457 m 250 1131 q 316 1291 263 1232 q 469 1350 369 1350 q 544 1339 508 1350 q 613 1315 579 1328 q 675 1290 646 1301 q 729 1279 704 1279 q 779 1296 760 1279 q 803 1344 799 1313 l 958 1344 q 892 1185 946 1244 q 738 1125 838 1125 q 664 1136 700 1125 q 595 1161 628 1147 q 533 1186 563 1175 q 479 1197 503 1197 q 429 1180 449 1197 q 406 1131 410 1163 l 250 1131 m 658 1614 l 926 1614 l 692 1390 l 454 1390 l 658 1614 z "},"Ṵ":{"ha":1208,"x_min":93,"x_max":1115,"o":"m 329 457 q 361 314 329 374 q 455 222 393 254 q 604 189 517 189 q 754 222 693 189 q 847 314 815 254 q 879 457 879 374 l 879 1042 l 1115 1042 l 1115 446 q 1051 201 1115 306 q 872 38 988 96 q 604 -21 757 -21 q 337 38 451 -21 q 158 201 222 96 q 93 446 93 306 l 93 1042 l 329 1042 l 329 457 m 272 -294 q 326 -119 279 -185 q 467 -54 374 -54 q 538 -66 503 -54 q 603 -92 572 -78 q 663 -119 635 -107 q 714 -131 690 -131 q 763 -111 743 -131 q 789 -57 783 -92 l 935 -57 q 882 -230 929 -164 q 742 -296 835 -296 q 669 -284 704 -296 q 603 -258 635 -272 q 545 -231 572 -243 q 494 -219 518 -219 q 446 -239 465 -219 q 419 -294 426 -258 l 272 -294 z "},"V":{"ha":1264,"x_min":6,"x_max":1258,"o":"m 688 104 l 583 104 l 1008 1042 l 1258 1042 l 764 0 l 499 0 l 6 1042 l 258 1042 l 688 104 z "},"Ɣ":{"ha":1249,"x_min":-3,"x_max":1250,"o":"m 410 138 l 831 138 l 801 51 l 569 343 l 679 343 l 444 44 l 410 138 m 165 0 l 546 483 l 528 353 l -3 1042 l 256 1042 l 681 490 l 581 510 l 999 1042 l 1250 1042 l 718 357 l 696 490 l 1086 0 l 165 0 z "},"Ṿ":{"ha":1264,"x_min":6,"x_max":1258,"o":"m 688 104 l 583 104 l 1008 1042 l 1258 1042 l 764 0 l 499 0 l 6 1042 l 258 1042 l 688 104 m 632 -314 q 530 -281 569 -314 q 490 -194 490 -249 q 530 -106 490 -139 q 632 -74 569 -74 q 735 -106 696 -74 q 774 -194 774 -139 q 735 -281 774 -249 q 632 -314 696 -314 z "},"Ʋ":{"ha":1214,"x_min":96,"x_max":1154,"o":"m 96 440 l 96 1042 l 331 1042 l 331 449 q 355 310 331 369 q 430 219 379 251 q 557 188 481 188 q 697 222 632 188 q 811 321 761 257 q 889 472 861 385 q 917 665 917 560 q 869 819 917 764 q 736 874 822 874 q 658 865 694 874 q 590 840 622 856 l 590 1025 q 678 1051 624 1040 q 794 1063 732 1063 q 1061 965 968 1063 q 1154 667 1154 867 q 1111 401 1154 526 q 987 181 1068 276 q 792 33 906 86 q 538 -21 678 -21 q 296 37 394 -21 q 147 199 197 94 q 96 440 96 303 z "},"Ṽ":{"ha":1264,"x_min":6,"x_max":1258,"o":"m 688 104 l 583 104 l 1008 1042 l 1258 1042 l 764 0 l 499 0 l 6 1042 l 258 1042 l 688 104 m 278 1131 q 344 1291 290 1232 q 497 1350 397 1350 q 572 1339 536 1350 q 640 1315 607 1328 q 703 1290 674 1301 q 757 1279 732 1279 q 807 1296 788 1279 q 831 1344 826 1313 l 986 1344 q 919 1185 974 1244 q 765 1125 865 1125 q 692 1136 728 1125 q 623 1161 656 1147 q 560 1186 590 1175 q 507 1197 531 1197 q 457 1180 476 1197 q 433 1131 438 1163 l 278 1131 z "},"Ʌ":{"ha":1250,"x_min":7,"x_max":1244,"o":"m 7 0 l 492 1042 l 758 1042 l 1244 0 l 1001 0 l 575 938 l 679 938 l 253 0 l 7 0 z "},"W":{"ha":1858,"x_min":17,"x_max":1842,"o":"m 1385 96 l 1304 96 l 1594 1042 l 1842 1042 l 1507 0 l 1206 0 l 878 922 l 981 922 l 653 0 l 351 0 l 17 1042 l 267 1042 l 554 96 l 476 97 l 804 1042 l 1056 1042 l 1385 96 z "},"Ẃ":{"ha":1858,"x_min":17,"x_max":1842,"o":"m 1385 96 l 1304 96 l 1594 1042 l 1842 1042 l 1507 0 l 1206 0 l 878 922 l 981 922 l 653 0 l 351 0 l 17 1042 l 267 1042 l 554 96 l 476 97 l 804 1042 l 1056 1042 l 1385 96 m 983 1346 l 1251 1346 l 1017 1122 l 779 1122 l 983 1346 z "},"Ŵ":{"ha":1858,"x_min":17,"x_max":1842,"o":"m 1385 96 l 1304 96 l 1594 1042 l 1842 1042 l 1507 0 l 1206 0 l 878 922 l 981 922 l 653 0 l 351 0 l 17 1042 l 267 1042 l 554 96 l 476 97 l 804 1042 l 1056 1042 l 1385 96 m 803 1346 l 1054 1346 l 1263 1122 l 1064 1122 l 876 1267 l 981 1267 l 793 1122 l 596 1122 l 803 1346 z "},"Ẅ":{"ha":1858,"x_min":17,"x_max":1842,"o":"m 1385 96 l 1304 96 l 1594 1042 l 1842 1042 l 1507 0 l 1206 0 l 878 922 l 981 922 l 653 0 l 351 0 l 17 1042 l 267 1042 l 554 96 l 476 97 l 804 1042 l 1056 1042 l 1385 96 m 718 1132 q 622 1164 658 1132 q 586 1249 586 1196 q 622 1331 586 1300 q 718 1363 658 1363 q 815 1331 779 1363 q 851 1249 851 1300 q 815 1164 851 1196 q 718 1132 779 1132 m 1139 1132 q 1042 1164 1079 1132 q 1006 1249 1006 1196 q 1042 1331 1006 1300 q 1139 1363 1079 1363 q 1235 1331 1199 1363 q 1272 1249 1272 1300 q 1235 1164 1272 1196 q 1139 1132 1199 1132 z "},"Ẇ":{"ha":1858,"x_min":17,"x_max":1842,"o":"m 1385 96 l 1304 96 l 1594 1042 l 1842 1042 l 1507 0 l 1206 0 l 878 922 l 981 922 l 653 0 l 351 0 l 17 1042 l 267 1042 l 554 96 l 476 97 l 804 1042 l 1056 1042 l 1385 96 m 929 1132 q 827 1165 867 1132 q 788 1253 788 1197 q 827 1340 788 1307 q 929 1374 867 1374 q 1032 1340 993 1374 q 1071 1253 1071 1307 q 1032 1165 1071 1197 q 929 1132 993 1132 z "},"Ẉ":{"ha":1858,"x_min":17,"x_max":1842,"o":"m 1385 96 l 1304 96 l 1594 1042 l 1842 1042 l 1507 0 l 1206 0 l 878 922 l 981 922 l 653 0 l 351 0 l 17 1042 l 267 1042 l 554 96 l 476 97 l 804 1042 l 1056 1042 l 1385 96 m 929 -314 q 827 -281 867 -314 q 788 -194 788 -249 q 827 -106 788 -139 q 929 -74 867 -74 q 1032 -106 993 -74 q 1071 -194 1071 -139 q 1032 -281 1071 -249 q 929 -314 993 -314 z "},"Ẁ":{"ha":1858,"x_min":17,"x_max":1842,"o":"m 1385 96 l 1304 96 l 1594 1042 l 1842 1042 l 1507 0 l 1206 0 l 878 922 l 981 922 l 653 0 l 351 0 l 17 1042 l 267 1042 l 554 96 l 476 97 l 804 1042 l 1056 1042 l 1385 96 m 857 1346 l 1060 1122 l 824 1122 l 589 1346 l 857 1346 z "},"Ⱳ":{"ha":1943,"x_min":18,"x_max":1896,"o":"m 1369 96 l 1290 96 l 1532 864 q 1617 1016 1563 969 q 1765 1063 1671 1063 q 1833 1057 1800 1063 q 1896 1042 1865 1051 l 1896 864 q 1867 874 1882 869 q 1832 878 1851 878 q 1785 862 1803 878 q 1754 807 1768 846 l 1493 0 l 1190 0 l 876 922 l 978 922 l 651 0 l 350 0 l 18 1042 l 267 1042 l 553 96 l 475 97 l 803 1042 l 1054 1042 l 1369 96 z "},"X":{"ha":1156,"x_min":-11,"x_max":1167,"o":"m 668 472 l 668 613 l 1167 0 l 876 0 l 521 454 l 631 454 l 274 0 l -11 0 l 489 611 l 489 475 l 21 1042 l 314 1042 l 639 631 l 526 631 l 847 1042 l 1135 1042 l 668 472 z "},"Ẍ":{"ha":1156,"x_min":-11,"x_max":1167,"o":"m 668 472 l 668 613 l 1167 0 l 876 0 l 521 454 l 631 454 l 274 0 l -11 0 l 489 611 l 489 475 l 21 1042 l 314 1042 l 639 631 l 526 631 l 847 1042 l 1135 1042 l 668 472 m 367 1132 q 271 1164 307 1132 q 235 1249 235 1196 q 271 1331 235 1300 q 367 1363 307 1363 q 464 1331 428 1363 q 500 1249 500 1300 q 464 1164 500 1196 q 367 1132 428 1132 m 788 1132 q 691 1164 728 1132 q 654 1249 654 1196 q 691 1331 654 1300 q 788 1363 728 1363 q 884 1331 847 1363 q 921 1249 921 1300 q 884 1164 921 1196 q 788 1132 847 1132 z "},"Ẋ":{"ha":1156,"x_min":-11,"x_max":1167,"o":"m 668 472 l 668 613 l 1167 0 l 876 0 l 521 454 l 631 454 l 274 0 l -11 0 l 489 611 l 489 475 l 21 1042 l 314 1042 l 639 631 l 526 631 l 847 1042 l 1135 1042 l 668 472 m 578 1132 q 476 1165 515 1132 q 436 1253 436 1197 q 476 1340 436 1307 q 578 1374 515 1374 q 681 1340 642 1374 q 719 1253 719 1307 q 681 1165 719 1197 q 578 1132 642 1132 z "},"Y":{"ha":1246,"x_min":15,"x_max":1229,"o":"m 506 0 l 506 503 l 742 503 l 742 0 l 506 0 m 15 1042 l 278 1042 l 679 535 l 565 535 l 967 1042 l 1229 1042 l 699 371 l 547 369 l 15 1042 z "},"Ý":{"ha":1246,"x_min":15,"x_max":1229,"o":"m 506 0 l 506 503 l 742 503 l 742 0 l 506 0 m 15 1042 l 278 1042 l 679 535 l 565 535 l 967 1042 l 1229 1042 l 699 371 l 547 369 l 15 1042 m 678 1346 l 946 1346 l 711 1122 l 474 1122 l 678 1346 z "},"Ŷ":{"ha":1246,"x_min":15,"x_max":1229,"o":"m 506 0 l 506 503 l 742 503 l 742 0 l 506 0 m 15 1042 l 278 1042 l 679 535 l 565 535 l 967 1042 l 1229 1042 l 699 371 l 547 369 l 15 1042 m 496 1346 l 747 1346 l 956 1122 l 757 1122 l 569 1267 l 674 1267 l 486 1122 l 289 1122 l 496 1346 z "},"Ÿ":{"ha":1246,"x_min":15,"x_max":1229,"o":"m 506 0 l 506 503 l 742 503 l 742 0 l 506 0 m 15 1042 l 278 1042 l 679 535 l 565 535 l 967 1042 l 1229 1042 l 699 371 l 547 369 l 15 1042 m 413 1132 q 317 1164 353 1132 q 281 1249 281 1196 q 317 1331 281 1300 q 413 1363 353 1363 q 510 1331 474 1363 q 546 1249 546 1300 q 510 1164 546 1196 q 413 1132 474 1132 m 833 1132 q 737 1164 774 1132 q 700 1249 700 1196 q 737 1331 700 1300 q 833 1363 774 1363 q 930 1331 893 1363 q 967 1249 967 1300 q 930 1164 967 1196 q 833 1132 893 1132 z "},"Ẏ":{"ha":1246,"x_min":15,"x_max":1229,"o":"m 506 0 l 506 503 l 742 503 l 742 0 l 506 0 m 15 1042 l 278 1042 l 679 535 l 565 535 l 967 1042 l 1229 1042 l 699 371 l 547 369 l 15 1042 m 622 1132 q 520 1165 560 1132 q 481 1253 481 1197 q 520 1340 481 1307 q 622 1374 560 1374 q 725 1340 686 1374 q 764 1253 764 1307 q 725 1165 764 1197 q 622 1132 686 1132 z "},"Ỵ":{"ha":1246,"x_min":15,"x_max":1229,"o":"m 506 0 l 506 503 l 742 503 l 742 0 l 506 0 m 15 1042 l 278 1042 l 679 535 l 565 535 l 967 1042 l 1229 1042 l 699 371 l 547 369 l 15 1042 m 622 -314 q 520 -281 560 -314 q 481 -194 481 -249 q 520 -106 481 -139 q 622 -74 560 -74 q 725 -106 686 -74 q 764 -194 764 -139 q 725 -281 764 -249 q 622 -314 686 -314 z "},"Ỳ":{"ha":1246,"x_min":15,"x_max":1229,"o":"m 506 0 l 506 503 l 742 503 l 742 0 l 506 0 m 15 1042 l 278 1042 l 679 535 l 565 535 l 967 1042 l 1229 1042 l 699 371 l 547 369 l 15 1042 m 550 1346 l 754 1122 l 517 1122 l 282 1346 l 550 1346 z "},"Ƴ":{"ha":1253,"x_min":11,"x_max":1217,"o":"m 501 0 l 501 503 l 736 503 l 736 0 l 501 0 m 694 369 l 543 369 l 11 1042 l 272 1042 l 674 535 l 569 535 l 844 911 q 922 1001 886 968 q 996 1048 957 1033 q 1086 1063 1035 1063 q 1153 1057 1121 1063 q 1217 1042 1186 1051 l 1217 864 q 1172 874 1192 871 q 1131 878 1153 878 q 1068 862 1090 878 q 1021 813 1046 846 l 694 369 z "},"Ỷ":{"ha":1246,"x_min":15,"x_max":1229,"o":"m 506 0 l 506 503 l 742 503 l 742 0 l 506 0 m 15 1042 l 278 1042 l 679 535 l 565 535 l 967 1042 l 1229 1042 l 699 371 l 547 369 l 15 1042 m 568 1103 l 521 1182 q 616 1209 588 1193 q 644 1244 644 1225 q 622 1271 644 1263 q 557 1279 600 1279 q 496 1275 524 1279 q 438 1265 468 1271 l 438 1390 q 512 1406 465 1399 q 608 1413 558 1413 q 783 1380 722 1413 q 843 1276 843 1347 q 779 1169 843 1213 q 568 1103 715 1126 z "},"Ȳ":{"ha":1246,"x_min":15,"x_max":1229,"o":"m 506 0 l 506 503 l 742 503 l 742 0 l 506 0 m 15 1042 l 278 1042 l 679 535 l 565 535 l 967 1042 l 1229 1042 l 699 371 l 547 369 l 15 1042 m 303 1157 l 303 1301 l 942 1301 l 942 1157 l 303 1157 z "},"Ɏ":{"ha":1321,"x_min":29,"x_max":1292,"o":"m 29 918 l 1292 918 l 1292 753 l 29 753 l 29 918 m 543 0 l 543 503 l 779 503 l 779 0 l 543 0 m 53 1042 l 315 1042 l 717 535 l 603 535 l 1004 1042 l 1267 1042 l 736 371 l 585 369 l 53 1042 z "},"Ỹ":{"ha":1246,"x_min":15,"x_max":1229,"o":"m 506 0 l 506 503 l 742 503 l 742 0 l 506 0 m 15 1042 l 278 1042 l 679 535 l 565 535 l 967 1042 l 1229 1042 l 699 371 l 547 369 l 15 1042 m 268 1131 q 334 1291 281 1232 q 488 1350 388 1350 q 562 1339 526 1350 q 631 1315 597 1328 q 693 1290 664 1301 q 747 1279 722 1279 q 797 1296 778 1279 q 821 1344 817 1313 l 976 1344 q 910 1185 964 1244 q 756 1125 856 1125 q 682 1136 718 1125 q 613 1161 646 1147 q 551 1186 581 1175 q 497 1197 521 1197 q 447 1180 467 1197 q 424 1131 428 1163 l 268 1131 z "},"Z":{"ha":1099,"x_min":57,"x_max":1042,"o":"m 57 0 l 57 175 l 782 914 l 946 853 l 63 853 l 63 1042 l 1038 1042 l 1038 868 l 311 126 l 171 189 l 1042 189 l 1042 0 l 57 0 z "},"Ź":{"ha":1099,"x_min":57,"x_max":1042,"o":"m 57 0 l 57 175 l 782 914 l 946 853 l 63 853 l 63 1042 l 1038 1042 l 1038 868 l 311 126 l 171 189 l 1042 189 l 1042 0 l 57 0 m 606 1346 l 874 1346 l 639 1122 l 401 1122 l 606 1346 z "},"Ž":{"ha":1099,"x_min":57,"x_max":1042,"o":"m 57 0 l 57 175 l 782 914 l 946 853 l 63 853 l 63 1042 l 1038 1042 l 1038 868 l 311 126 l 171 189 l 1042 189 l 1042 0 l 57 0 m 675 1122 l 425 1122 l 217 1344 l 415 1344 l 603 1200 l 499 1200 l 685 1344 l 883 1344 l 675 1122 z "},"Ẑ":{"ha":1099,"x_min":57,"x_max":1042,"o":"m 57 0 l 57 175 l 782 914 l 946 853 l 63 853 l 63 1042 l 1038 1042 l 1038 868 l 311 126 l 171 189 l 1042 189 l 1042 0 l 57 0 m 424 1346 l 675 1346 l 883 1122 l 685 1122 l 497 1267 l 601 1267 l 414 1122 l 217 1122 l 424 1346 z "},"Ż":{"ha":1099,"x_min":57,"x_max":1042,"o":"m 57 0 l 57 175 l 782 914 l 946 853 l 63 853 l 63 1042 l 1038 1042 l 1038 868 l 311 126 l 171 189 l 1042 189 l 1042 0 l 57 0 m 550 1132 q 448 1165 488 1132 q 408 1253 408 1197 q 448 1340 408 1307 q 550 1374 488 1374 q 653 1340 614 1374 q 692 1253 692 1307 q 653 1165 692 1197 q 550 1132 614 1132 z "},"Ẓ":{"ha":1099,"x_min":57,"x_max":1042,"o":"m 57 0 l 57 175 l 782 914 l 946 853 l 63 853 l 63 1042 l 1038 1042 l 1038 868 l 311 126 l 171 189 l 1042 189 l 1042 0 l 57 0 m 549 -314 q 447 -281 486 -314 q 407 -194 407 -249 q 447 -106 407 -139 q 549 -74 486 -74 q 651 -106 613 -74 q 690 -194 690 -139 q 651 -281 690 -249 q 549 -314 613 -314 z "},"Ẕ":{"ha":1099,"x_min":57,"x_max":1042,"o":"m 57 0 l 57 175 l 782 914 l 946 853 l 63 853 l 63 1042 l 1038 1042 l 1038 868 l 311 126 l 171 189 l 1042 189 l 1042 0 l 57 0 m 238 -237 l 238 -93 l 876 -93 l 876 -237 l 238 -237 z "},"Ƶ":{"ha":1108,"x_min":61,"x_max":1046,"o":"m 136 611 l 976 611 l 976 444 l 136 444 l 136 611 m 61 0 l 61 175 l 788 914 l 950 853 l 67 853 l 67 1042 l 1042 1042 l 1042 868 l 315 126 l 175 189 l 1046 189 l 1046 0 l 61 0 z "},"ɪ":{"ha":835,"x_min":50,"x_max":785,"o":"m 301 0 l 301 715 l 533 715 l 533 0 l 301 0 m 50 0 l 50 143 l 785 143 l 785 0 l 50 0 m 50 647 l 50 790 l 785 790 l 785 647 l 50 647 z "},"a":{"ha":1119,"x_min":50,"x_max":1051,"o":"m 811 0 l 778 289 l 815 394 l 778 499 l 811 790 l 1051 790 l 1006 394 l 1051 0 l 811 0 m 872 394 q 791 176 850 269 q 642 31 732 82 q 442 -21 553 -21 q 238 31 326 -21 q 99 177 149 83 q 50 394 50 271 q 99 613 50 519 q 238 759 149 707 q 442 811 326 811 q 642 760 553 811 q 792 615 732 708 q 872 394 851 521 m 285 394 q 313 272 285 325 q 392 190 342 219 q 507 160 442 160 q 630 190 572 160 q 732 272 688 219 q 801 394 776 325 q 732 517 776 464 q 630 601 688 571 q 507 631 572 631 q 392 601 442 631 q 313 517 342 571 q 285 394 285 464 z "},"á":{"ha":1119,"x_min":50,"x_max":1051,"o":"m 811 0 l 778 289 l 815 394 l 778 499 l 811 790 l 1051 790 l 1006 394 l 1051 0 l 811 0 m 872 394 q 791 176 850 269 q 642 31 732 82 q 442 -21 553 -21 q 238 31 326 -21 q 99 177 149 83 q 50 394 50 271 q 99 613 50 519 q 238 759 149 707 q 442 811 326 811 q 642 760 553 811 q 792 615 732 708 q 872 394 851 521 m 285 394 q 313 272 285 325 q 392 190 342 219 q 507 160 442 160 q 630 190 572 160 q 732 272 688 219 q 801 394 776 325 q 732 517 776 464 q 630 601 688 571 q 507 631 572 631 q 392 601 442 631 q 313 517 342 571 q 285 394 285 464 m 596 1121 l 824 1121 l 642 871 l 424 871 l 596 1121 z "},"ă":{"ha":1119,"x_min":50,"x_max":1051,"o":"m 811 0 l 778 289 l 815 394 l 778 499 l 811 790 l 1051 790 l 1006 394 l 1051 0 l 811 0 m 872 394 q 791 176 850 269 q 642 31 732 82 q 442 -21 553 -21 q 238 31 326 -21 q 99 177 149 83 q 50 394 50 271 q 99 613 50 519 q 238 759 149 707 q 442 811 326 811 q 642 760 553 811 q 792 615 732 708 q 872 394 851 521 m 285 394 q 313 272 285 325 q 392 190 342 219 q 507 160 442 160 q 630 190 572 160 q 732 272 688 219 q 801 394 776 325 q 732 517 776 464 q 630 601 688 571 q 507 631 572 631 q 392 601 442 631 q 313 517 342 571 q 285 394 285 464 m 239 1121 l 415 1121 q 462 1037 425 1067 q 554 1007 499 1007 q 646 1037 610 1007 q 694 1121 682 1067 l 868 1121 q 770 931 851 1000 q 554 863 689 863 q 340 931 421 863 q 239 1121 258 1000 z "},"ắ":{"ha":1119,"x_min":50,"x_max":1051,"o":"m 811 0 l 778 289 l 815 394 l 778 499 l 811 790 l 1051 790 l 1006 394 l 1051 0 l 811 0 m 872 394 q 791 176 850 269 q 642 31 732 82 q 442 -21 553 -21 q 238 31 326 -21 q 99 177 149 83 q 50 394 50 271 q 99 613 50 519 q 238 759 149 707 q 442 811 326 811 q 642 760 553 811 q 792 615 732 708 q 872 394 851 521 m 285 394 q 313 272 285 325 q 392 190 342 219 q 507 160 442 160 q 630 190 572 160 q 732 272 688 219 q 801 394 776 325 q 732 517 776 464 q 630 601 688 571 q 507 631 572 631 q 392 601 442 631 q 313 517 342 571 q 285 394 285 464 m 560 1385 l 775 1385 l 635 1143 l 461 1143 l 560 1385 m 239 1121 l 415 1121 q 462 1037 425 1067 q 554 1007 499 1007 q 646 1037 610 1007 q 694 1121 682 1067 l 868 1121 q 770 931 851 1000 q 554 863 689 863 q 340 931 421 863 q 239 1121 258 1000 z "},"ặ":{"ha":1119,"x_min":50,"x_max":1051,"o":"m 811 0 l 778 289 l 815 394 l 778 499 l 811 790 l 1051 790 l 1006 394 l 1051 0 l 811 0 m 872 394 q 791 176 850 269 q 642 31 732 82 q 442 -21 553 -21 q 238 31 326 -21 q 99 177 149 83 q 50 394 50 271 q 99 613 50 519 q 238 759 149 707 q 442 811 326 811 q 642 760 553 811 q 792 615 732 708 q 872 394 851 521 m 285 394 q 313 272 285 325 q 392 190 342 219 q 507 160 442 160 q 630 190 572 160 q 732 272 688 219 q 801 394 776 325 q 732 517 776 464 q 630 601 688 571 q 507 631 572 631 q 392 601 442 631 q 313 517 342 571 q 285 394 285 464 m 554 -314 q 452 -281 492 -314 q 413 -194 413 -249 q 452 -106 413 -139 q 554 -74 492 -74 q 657 -106 618 -74 q 696 -194 696 -139 q 657 -281 696 -249 q 554 -314 618 -314 m 239 1121 l 415 1121 q 462 1037 425 1067 q 554 1007 499 1007 q 646 1037 610 1007 q 694 1121 682 1067 l 868 1121 q 770 931 851 1000 q 554 863 689 863 q 340 931 421 863 q 239 1121 258 1000 z "},"ằ":{"ha":1119,"x_min":50,"x_max":1051,"o":"m 811 0 l 778 289 l 815 394 l 778 499 l 811 790 l 1051 790 l 1006 394 l 1051 0 l 811 0 m 872 394 q 791 176 850 269 q 642 31 732 82 q 442 -21 553 -21 q 238 31 326 -21 q 99 177 149 83 q 50 394 50 271 q 99 613 50 519 q 238 759 149 707 q 442 811 326 811 q 642 760 553 811 q 792 615 732 708 q 872 394 851 521 m 285 394 q 313 272 285 325 q 392 190 342 219 q 507 160 442 160 q 630 190 572 160 q 732 272 688 219 q 801 394 776 325 q 732 517 776 464 q 630 601 688 571 q 507 631 572 631 q 392 601 442 631 q 313 517 342 571 q 285 394 285 464 m 531 1383 l 629 1142 l 456 1142 l 315 1383 l 531 1383 m 239 1121 l 415 1121 q 462 1037 425 1067 q 554 1007 499 1007 q 646 1037 610 1007 q 694 1121 682 1067 l 868 1121 q 770 931 851 1000 q 554 863 689 863 q 340 931 421 863 q 239 1121 258 1000 z "},"ẳ":{"ha":1119,"x_min":50,"x_max":1051,"o":"m 811 0 l 778 289 l 815 394 l 778 499 l 811 790 l 1051 790 l 1006 394 l 1051 0 l 811 0 m 872 394 q 791 176 850 269 q 642 31 732 82 q 442 -21 553 -21 q 238 31 326 -21 q 99 177 149 83 q 50 394 50 271 q 99 613 50 519 q 238 759 149 707 q 442 811 326 811 q 642 760 553 811 q 792 615 732 708 q 872 394 851 521 m 285 394 q 313 272 285 325 q 392 190 342 219 q 507 160 442 160 q 630 190 572 160 q 732 272 688 219 q 801 394 776 325 q 732 517 776 464 q 630 601 688 571 q 507 631 572 631 q 392 601 442 631 q 313 517 342 571 q 285 394 285 464 m 542 1124 l 497 1189 q 575 1258 575 1217 q 499 1303 575 1303 q 456 1300 479 1303 q 413 1292 433 1297 l 413 1415 q 475 1428 438 1422 q 556 1433 513 1433 q 708 1399 654 1433 q 763 1300 763 1364 q 706 1194 763 1239 q 542 1124 650 1149 m 239 1121 l 415 1121 q 462 1037 425 1067 q 554 1007 499 1007 q 646 1037 610 1007 q 694 1121 682 1067 l 868 1121 q 770 931 851 1000 q 554 863 689 863 q 340 931 421 863 q 239 1121 258 1000 z "},"ẵ":{"ha":1119,"x_min":50,"x_max":1051,"o":"m 811 0 l 778 289 l 815 394 l 778 499 l 811 790 l 1051 790 l 1006 394 l 1051 0 l 811 0 m 872 394 q 791 176 850 269 q 642 31 732 82 q 442 -21 553 -21 q 238 31 326 -21 q 99 177 149 83 q 50 394 50 271 q 99 613 50 519 q 238 759 149 707 q 442 811 326 811 q 642 760 553 811 q 792 615 732 708 q 872 394 851 521 m 285 394 q 313 272 285 325 q 392 190 342 219 q 507 160 442 160 q 630 190 572 160 q 732 272 688 219 q 801 394 776 325 q 732 517 776 464 q 630 601 688 571 q 507 631 572 631 q 392 601 442 631 q 313 517 342 571 q 285 394 285 464 m 260 1169 q 313 1339 267 1276 q 449 1401 358 1401 q 510 1390 482 1401 q 561 1365 538 1379 q 606 1338 585 1350 q 646 1326 626 1326 q 688 1347 672 1326 q 710 1400 704 1367 l 849 1400 q 797 1231 843 1294 q 658 1168 750 1168 q 598 1180 625 1168 q 547 1206 571 1192 q 503 1232 524 1221 q 461 1243 482 1243 q 419 1224 435 1243 q 397 1169 404 1204 l 260 1169 m 239 1121 l 415 1121 q 462 1037 425 1067 q 554 1007 499 1007 q 646 1037 610 1007 q 694 1121 682 1067 l 868 1121 q 770 931 851 1000 q 554 863 689 863 q 340 931 421 863 q 239 1121 258 1000 z "},"ǎ":{"ha":1119,"x_min":50,"x_max":1051,"o":"m 811 0 l 778 289 l 815 394 l 778 499 l 811 790 l 1051 790 l 1006 394 l 1051 0 l 811 0 m 872 394 q 791 176 850 269 q 642 31 732 82 q 442 -21 553 -21 q 238 31 326 -21 q 99 177 149 83 q 50 394 50 271 q 99 613 50 519 q 238 759 149 707 q 442 811 326 811 q 642 760 553 811 q 792 615 732 708 q 872 394 851 521 m 285 394 q 313 272 285 325 q 392 190 342 219 q 507 160 442 160 q 630 190 572 160 q 732 272 688 219 q 801 394 776 325 q 732 517 776 464 q 630 601 688 571 q 507 631 572 631 q 392 601 442 631 q 313 517 342 571 q 285 394 285 464 m 675 871 l 433 871 l 235 1121 l 424 1121 l 606 933 l 501 933 l 683 1121 l 874 1121 l 675 871 z "},"â":{"ha":1119,"x_min":50,"x_max":1051,"o":"m 811 0 l 778 289 l 815 394 l 778 499 l 811 790 l 1051 790 l 1006 394 l 1051 0 l 811 0 m 872 394 q 791 176 850 269 q 642 31 732 82 q 442 -21 553 -21 q 238 31 326 -21 q 99 177 149 83 q 50 394 50 271 q 99 613 50 519 q 238 759 149 707 q 442 811 326 811 q 642 760 553 811 q 792 615 732 708 q 872 394 851 521 m 285 394 q 313 272 285 325 q 392 190 342 219 q 507 160 442 160 q 630 190 572 160 q 732 272 688 219 q 801 394 776 325 q 732 517 776 464 q 630 601 688 571 q 507 631 572 631 q 392 601 442 631 q 313 517 342 571 q 285 394 285 464 m 432 1121 l 675 1121 l 874 871 l 685 871 l 501 1058 l 606 1058 l 424 871 l 233 871 l 432 1121 z "},"ấ":{"ha":1119,"x_min":50,"x_max":1096,"o":"m 811 0 l 778 289 l 815 394 l 778 499 l 811 790 l 1051 790 l 1006 394 l 1051 0 l 811 0 m 872 394 q 791 176 850 269 q 642 31 732 82 q 442 -21 553 -21 q 238 31 326 -21 q 99 177 149 83 q 50 394 50 271 q 99 613 50 519 q 238 759 149 707 q 442 811 326 811 q 642 760 553 811 q 792 615 732 708 q 872 394 851 521 m 285 394 q 313 272 285 325 q 392 190 342 219 q 507 160 442 160 q 630 190 572 160 q 732 272 688 219 q 801 394 776 325 q 732 517 776 464 q 630 601 688 571 q 507 631 572 631 q 392 601 442 631 q 313 517 342 571 q 285 394 285 464 m 881 1300 l 1096 1300 l 956 1058 l 782 1058 l 881 1300 m 432 1121 l 675 1121 l 874 871 l 685 871 l 501 1058 l 606 1058 l 424 871 l 233 871 l 432 1121 z "},"ậ":{"ha":1119,"x_min":50,"x_max":1051,"o":"m 811 0 l 778 289 l 815 394 l 778 499 l 811 790 l 1051 790 l 1006 394 l 1051 0 l 811 0 m 872 394 q 791 176 850 269 q 642 31 732 82 q 442 -21 553 -21 q 238 31 326 -21 q 99 177 149 83 q 50 394 50 271 q 99 613 50 519 q 238 759 149 707 q 442 811 326 811 q 642 760 553 811 q 792 615 732 708 q 872 394 851 521 m 285 394 q 313 272 285 325 q 392 190 342 219 q 507 160 442 160 q 630 190 572 160 q 732 272 688 219 q 801 394 776 325 q 732 517 776 464 q 630 601 688 571 q 507 631 572 631 q 392 601 442 631 q 313 517 342 571 q 285 394 285 464 m 554 -314 q 452 -281 492 -314 q 413 -194 413 -249 q 452 -106 413 -139 q 554 -74 492 -74 q 657 -106 618 -74 q 696 -194 696 -139 q 657 -281 696 -249 q 554 -314 618 -314 m 432 1121 l 675 1121 l 874 871 l 685 871 l 501 1058 l 606 1058 l 424 871 l 233 871 l 432 1121 z "},"ầ":{"ha":1119,"x_min":50,"x_max":1051,"o":"m 811 0 l 778 289 l 815 394 l 778 499 l 811 790 l 1051 790 l 1006 394 l 1051 0 l 811 0 m 872 394 q 791 176 850 269 q 642 31 732 82 q 442 -21 553 -21 q 238 31 326 -21 q 99 177 149 83 q 50 394 50 271 q 99 613 50 519 q 238 759 149 707 q 442 811 326 811 q 642 760 553 811 q 792 615 732 708 q 872 394 851 521 m 285 394 q 313 272 285 325 q 392 190 342 219 q 507 160 442 160 q 630 190 572 160 q 732 272 688 219 q 801 394 776 325 q 732 517 776 464 q 630 601 688 571 q 507 631 572 631 q 392 601 442 631 q 313 517 342 571 q 285 394 285 464 m 886 1300 l 985 1058 l 811 1058 l 671 1300 l 886 1300 m 432 1121 l 675 1121 l 874 871 l 685 871 l 501 1058 l 606 1058 l 424 871 l 233 871 l 432 1121 z "},"ẩ":{"ha":1119,"x_min":50,"x_max":1051,"o":"m 811 0 l 778 289 l 815 394 l 778 499 l 811 790 l 1051 790 l 1006 394 l 1051 0 l 811 0 m 872 394 q 791 176 850 269 q 642 31 732 82 q 442 -21 553 -21 q 238 31 326 -21 q 99 177 149 83 q 50 394 50 271 q 99 613 50 519 q 238 759 149 707 q 442 811 326 811 q 642 760 553 811 q 792 615 732 708 q 872 394 851 521 m 285 394 q 313 272 285 325 q 392 190 342 219 q 507 160 442 160 q 630 190 572 160 q 732 272 688 219 q 801 394 776 325 q 732 517 776 464 q 630 601 688 571 q 507 631 572 631 q 392 601 442 631 q 313 517 342 571 q 285 394 285 464 m 826 1047 l 782 1114 q 860 1182 860 1142 q 783 1226 860 1226 q 741 1224 764 1226 q 697 1215 718 1221 l 697 1339 q 760 1353 722 1347 q 842 1358 797 1358 q 994 1323 939 1358 q 1049 1224 1049 1288 q 992 1119 1049 1164 q 826 1047 935 1074 m 432 1121 l 675 1121 l 874 871 l 685 871 l 501 1058 l 606 1058 l 424 871 l 233 871 l 432 1121 z "},"ẫ":{"ha":1119,"x_min":50,"x_max":1051,"o":"m 811 0 l 778 289 l 815 394 l 778 499 l 811 790 l 1051 790 l 1006 394 l 1051 0 l 811 0 m 872 394 q 791 176 850 269 q 642 31 732 82 q 442 -21 553 -21 q 238 31 326 -21 q 99 177 149 83 q 50 394 50 271 q 99 613 50 519 q 238 759 149 707 q 442 811 326 811 q 642 760 553 811 q 792 615 732 708 q 872 394 851 521 m 285 394 q 313 272 285 325 q 392 190 342 219 q 507 160 442 160 q 630 190 572 160 q 732 272 688 219 q 801 394 776 325 q 732 517 776 464 q 630 601 688 571 q 507 631 572 631 q 392 601 442 631 q 313 517 342 571 q 285 394 285 464 m 260 1171 q 313 1340 267 1276 q 449 1403 358 1403 q 510 1392 482 1403 q 561 1365 538 1381 q 606 1339 585 1350 q 646 1328 626 1328 q 688 1347 672 1328 q 710 1400 704 1367 l 847 1400 q 796 1232 842 1294 q 658 1169 750 1169 q 598 1181 625 1169 q 547 1207 571 1192 q 503 1233 524 1222 q 461 1244 482 1244 q 419 1225 435 1244 q 397 1171 404 1206 l 260 1171 m 432 1121 l 675 1121 l 874 871 l 685 871 l 501 1058 l 606 1058 l 424 871 l 233 871 l 432 1121 z "},"ȁ":{"ha":1119,"x_min":50,"x_max":1051,"o":"m 811 0 l 778 289 l 815 394 l 778 499 l 811 790 l 1051 790 l 1006 394 l 1051 0 l 811 0 m 872 394 q 791 176 850 269 q 642 31 732 82 q 442 -21 553 -21 q 238 31 326 -21 q 99 177 149 83 q 50 394 50 271 q 99 613 50 519 q 238 759 149 707 q 442 811 326 811 q 642 760 553 811 q 792 615 732 708 q 872 394 851 521 m 285 394 q 313 272 285 325 q 392 190 342 219 q 507 160 442 160 q 630 190 572 160 q 732 272 688 219 q 801 394 776 325 q 732 517 776 464 q 630 601 688 571 q 507 631 572 631 q 392 601 442 631 q 313 517 342 571 q 285 394 285 464 m 657 1121 l 810 871 l 611 871 l 447 1121 l 657 1121 m 342 1121 l 494 871 l 296 871 l 132 1121 l 342 1121 z "},"ä":{"ha":1119,"x_min":50,"x_max":1051,"o":"m 811 0 l 778 289 l 815 394 l 778 499 l 811 790 l 1051 790 l 1006 394 l 1051 0 l 811 0 m 872 394 q 791 176 850 269 q 642 31 732 82 q 442 -21 553 -21 q 238 31 326 -21 q 99 177 149 83 q 50 394 50 271 q 99 613 50 519 q 238 759 149 707 q 442 811 326 811 q 642 760 553 811 q 792 615 732 708 q 872 394 851 521 m 285 394 q 313 272 285 325 q 392 190 342 219 q 507 160 442 160 q 630 190 572 160 q 732 272 688 219 q 801 394 776 325 q 732 517 776 464 q 630 601 688 571 q 507 631 572 631 q 392 601 442 631 q 313 517 342 571 q 285 394 285 464 m 347 881 q 251 912 288 881 q 214 996 214 943 q 251 1079 214 1049 q 347 1110 288 1110 q 444 1079 407 1110 q 481 996 481 1049 q 444 912 481 943 q 347 881 407 881 m 763 881 q 666 912 703 881 q 629 996 629 943 q 666 1079 629 1049 q 763 1110 703 1110 q 859 1079 822 1110 q 896 996 896 1049 q 859 912 896 943 q 763 881 822 881 z "},"ǟ":{"ha":1119,"x_min":50,"x_max":1051,"o":"m 811 0 l 778 289 l 815 394 l 778 499 l 811 790 l 1051 790 l 1006 394 l 1051 0 l 811 0 m 872 394 q 791 176 850 269 q 642 31 732 82 q 442 -21 553 -21 q 238 31 326 -21 q 99 177 149 83 q 50 394 50 271 q 99 613 50 519 q 238 759 149 707 q 442 811 326 811 q 642 760 553 811 q 792 615 732 708 q 872 394 851 521 m 285 394 q 313 272 285 325 q 392 190 342 219 q 507 160 442 160 q 630 190 572 160 q 732 272 688 219 q 801 394 776 325 q 732 517 776 464 q 630 601 688 571 q 507 631 572 631 q 392 601 442 631 q 313 517 342 571 q 285 394 285 464 m 347 881 q 251 912 288 881 q 214 996 214 943 q 251 1079 214 1049 q 347 1110 288 1110 q 444 1079 407 1110 q 481 996 481 1049 q 444 912 481 943 q 347 881 407 881 m 763 881 q 666 912 703 881 q 629 996 629 943 q 666 1079 629 1049 q 763 1110 703 1110 q 859 1079 822 1110 q 896 996 896 1049 q 859 912 896 943 q 763 881 822 881 m 235 1181 l 235 1325 l 874 1325 l 874 1181 l 235 1181 z "},"ȧ":{"ha":1119,"x_min":50,"x_max":1051,"o":"m 811 0 l 778 289 l 815 394 l 778 499 l 811 790 l 1051 790 l 1006 394 l 1051 0 l 811 0 m 872 394 q 791 176 850 269 q 642 31 732 82 q 442 -21 553 -21 q 238 31 326 -21 q 99 177 149 83 q 50 394 50 271 q 99 613 50 519 q 238 759 149 707 q 442 811 326 811 q 642 760 553 811 q 792 615 732 708 q 872 394 851 521 m 285 394 q 313 272 285 325 q 392 190 342 219 q 507 160 442 160 q 630 190 572 160 q 732 272 688 219 q 801 394 776 325 q 732 517 776 464 q 630 601 688 571 q 507 631 572 631 q 392 601 442 631 q 313 517 342 571 q 285 394 285 464 m 554 881 q 452 913 492 881 q 413 1000 413 946 q 452 1088 413 1056 q 554 1121 492 1121 q 657 1088 618 1121 q 696 1000 696 1056 q 657 913 696 946 q 554 881 618 881 z "},"ạ":{"ha":1119,"x_min":50,"x_max":1051,"o":"m 811 0 l 778 289 l 815 394 l 778 499 l 811 790 l 1051 790 l 1006 394 l 1051 0 l 811 0 m 872 394 q 791 176 850 269 q 642 31 732 82 q 442 -21 553 -21 q 238 31 326 -21 q 99 177 149 83 q 50 394 50 271 q 99 613 50 519 q 238 759 149 707 q 442 811 326 811 q 642 760 553 811 q 792 615 732 708 q 872 394 851 521 m 285 394 q 313 272 285 325 q 392 190 342 219 q 507 160 442 160 q 630 190 572 160 q 732 272 688 219 q 801 394 776 325 q 732 517 776 464 q 630 601 688 571 q 507 631 572 631 q 392 601 442 631 q 313 517 342 571 q 285 394 285 464 m 554 -314 q 452 -281 492 -314 q 413 -194 413 -249 q 452 -106 413 -139 q 554 -74 492 -74 q 657 -106 618 -74 q 696 -194 696 -139 q 657 -281 696 -249 q 554 -314 618 -314 z "},"ǡ":{"ha":1119,"x_min":50,"x_max":1051,"o":"m 811 0 l 778 289 l 815 394 l 778 499 l 811 790 l 1051 790 l 1006 394 l 1051 0 l 811 0 m 872 394 q 791 176 850 269 q 642 31 732 82 q 442 -21 553 -21 q 238 31 326 -21 q 99 177 149 83 q 50 394 50 271 q 99 613 50 519 q 238 759 149 707 q 442 811 326 811 q 642 760 553 811 q 792 615 732 708 q 872 394 851 521 m 285 394 q 313 272 285 325 q 392 190 342 219 q 507 160 442 160 q 630 190 572 160 q 732 272 688 219 q 801 394 776 325 q 732 517 776 464 q 630 601 688 571 q 507 631 572 631 q 392 601 442 631 q 313 517 342 571 q 285 394 285 464 m 554 881 q 452 913 492 881 q 413 1000 413 946 q 452 1088 413 1056 q 554 1121 492 1121 q 657 1088 618 1121 q 696 1000 696 1056 q 657 913 696 946 q 554 881 618 881 m 235 1181 l 235 1325 l 874 1325 l 874 1181 l 235 1181 z "},"à":{"ha":1119,"x_min":50,"x_max":1051,"o":"m 811 0 l 778 289 l 815 394 l 778 499 l 811 790 l 1051 790 l 1006 394 l 1051 0 l 811 0 m 872 394 q 791 176 850 269 q 642 31 732 82 q 442 -21 553 -21 q 238 31 326 -21 q 99 177 149 83 q 50 394 50 271 q 99 613 50 519 q 238 759 149 707 q 442 811 326 811 q 642 760 553 811 q 792 615 732 708 q 872 394 851 521 m 285 394 q 313 272 285 325 q 392 190 342 219 q 507 160 442 160 q 630 190 572 160 q 732 272 688 219 q 801 394 776 325 q 732 517 776 464 q 630 601 688 571 q 507 631 572 631 q 392 601 442 631 q 313 517 342 571 q 285 394 285 464 m 504 1121 l 676 871 l 458 871 l 276 1121 l 504 1121 z "},"ả":{"ha":1119,"x_min":50,"x_max":1051,"o":"m 811 0 l 778 289 l 815 394 l 778 499 l 811 790 l 1051 790 l 1006 394 l 1051 0 l 811 0 m 872 394 q 791 176 850 269 q 642 31 732 82 q 442 -21 553 -21 q 238 31 326 -21 q 99 177 149 83 q 50 394 50 271 q 99 613 50 519 q 238 759 149 707 q 442 811 326 811 q 642 760 553 811 q 792 615 732 708 q 872 394 851 521 m 285 394 q 313 272 285 325 q 392 190 342 219 q 507 160 442 160 q 630 190 572 160 q 732 272 688 219 q 801 394 776 325 q 732 517 776 464 q 630 601 688 571 q 507 631 572 631 q 392 601 442 631 q 313 517 342 571 q 285 394 285 464 m 511 851 l 465 921 q 530 953 507 935 q 553 996 553 972 q 531 1031 553 1019 q 468 1043 510 1043 q 420 1040 443 1043 q 374 1032 397 1038 l 374 1163 q 440 1175 400 1169 q 524 1181 479 1181 q 684 1143 626 1181 q 742 1039 742 1106 q 687 926 742 972 q 511 851 632 879 z "},"ȃ":{"ha":1119,"x_min":50,"x_max":1051,"o":"m 811 0 l 778 289 l 815 394 l 778 499 l 811 790 l 1051 790 l 1006 394 l 1051 0 l 811 0 m 872 394 q 791 176 850 269 q 642 31 732 82 q 442 -21 553 -21 q 238 31 326 -21 q 99 177 149 83 q 50 394 50 271 q 99 613 50 519 q 238 759 149 707 q 442 811 326 811 q 642 760 553 811 q 792 615 732 708 q 872 394 851 521 m 285 394 q 313 272 285 325 q 392 190 342 219 q 507 160 442 160 q 630 190 572 160 q 732 272 688 219 q 801 394 776 325 q 732 517 776 464 q 630 601 688 571 q 507 631 572 631 q 392 601 442 631 q 313 517 342 571 q 285 394 285 464 m 868 871 l 693 871 q 646 955 682 925 q 554 985 610 985 q 462 955 499 985 q 414 871 425 925 l 239 871 q 338 1060 257 992 q 554 1128 419 1128 q 769 1060 688 1128 q 868 871 850 992 z "},"ɑ":{"ha":1119,"x_min":50,"x_max":1051,"o":"m 811 0 l 778 289 l 815 394 l 778 499 l 811 790 l 1051 790 l 1006 394 l 1051 0 l 811 0 m 872 394 q 791 176 850 269 q 642 31 732 82 q 442 -21 553 -21 q 238 31 326 -21 q 99 177 149 83 q 50 394 50 271 q 99 613 50 519 q 238 759 149 707 q 442 811 326 811 q 642 760 553 811 q 792 615 732 708 q 872 394 851 521 m 285 394 q 313 272 285 325 q 392 190 342 219 q 507 160 442 160 q 630 190 572 160 q 732 272 688 219 q 801 394 776 325 q 732 517 776 464 q 630 601 688 571 q 507 631 572 631 q 392 601 442 631 q 313 517 342 571 q 285 394 285 464 z "},"ɒ":{"ha":1119,"x_min":68,"x_max":1071,"o":"m 308 0 l 68 0 l 114 394 l 68 790 l 308 790 l 342 499 l 304 394 l 342 289 l 308 0 m 247 394 q 329 615 269 521 q 478 760 389 708 q 678 811 567 811 q 883 759 794 811 q 1021 613 971 707 q 1071 394 1071 519 q 1021 177 1071 271 q 883 31 971 83 q 678 -21 794 -21 q 478 31 567 -21 q 330 176 389 82 q 247 394 271 269 m 836 394 q 808 517 836 464 q 728 601 779 571 q 614 631 678 631 q 490 601 549 631 q 388 517 432 571 q 319 394 344 464 q 388 272 344 325 q 490 190 432 219 q 614 160 549 160 q 728 190 678 160 q 808 272 779 219 q 836 394 836 325 z "},"ā":{"ha":1119,"x_min":50,"x_max":1051,"o":"m 811 0 l 778 289 l 815 394 l 778 499 l 811 790 l 1051 790 l 1006 394 l 1051 0 l 811 0 m 872 394 q 791 176 850 269 q 642 31 732 82 q 442 -21 553 -21 q 238 31 326 -21 q 99 177 149 83 q 50 394 50 271 q 99 613 50 519 q 238 759 149 707 q 442 811 326 811 q 642 760 553 811 q 792 615 732 708 q 872 394 851 521 m 285 394 q 313 272 285 325 q 392 190 342 219 q 507 160 442 160 q 630 190 572 160 q 732 272 688 219 q 801 394 776 325 q 732 517 776 464 q 630 601 688 571 q 507 631 572 631 q 392 601 442 631 q 313 517 342 571 q 285 394 285 464 m 235 915 l 235 1060 l 874 1060 l 874 915 l 235 915 z "},"ą":{"ha":1119,"x_min":50,"x_max":1051,"o":"m 811 0 l 778 289 l 815 394 l 778 499 l 811 790 l 1051 790 l 1006 394 l 1051 0 l 811 0 m 872 394 q 791 176 850 269 q 642 31 732 82 q 442 -21 553 -21 q 238 31 326 -21 q 99 177 149 83 q 50 394 50 271 q 99 613 50 519 q 238 759 149 707 q 442 811 326 811 q 642 760 553 811 q 792 615 732 708 q 872 394 851 521 m 285 394 q 313 272 285 325 q 392 190 342 219 q 507 160 442 160 q 630 190 572 160 q 732 272 688 219 q 801 394 776 325 q 732 517 776 464 q 630 601 688 571 q 507 631 572 631 q 392 601 442 631 q 313 517 342 571 q 285 394 285 464 m 933 25 l 1021 18 l 1021 0 l 1051 0 q 964 -31 1001 -14 q 905 -66 926 -49 q 883 -103 883 -83 q 968 -142 883 -142 q 1013 -140 992 -142 q 1051 -133 1033 -137 l 1051 -265 q 994 -278 1033 -272 q 913 -283 954 -283 q 765 -247 821 -283 q 710 -151 710 -211 q 765 -49 710 -92 q 933 25 819 -6 z "},"ẚ":{"ha":1119,"x_min":50,"x_max":1051,"o":"m 811 0 l 778 289 l 815 394 l 778 499 l 811 790 l 1051 790 l 1006 394 l 1051 0 l 811 0 m 872 394 q 791 176 850 269 q 642 31 732 82 q 442 -21 553 -21 q 238 31 326 -21 q 99 177 149 83 q 50 394 50 271 q 99 613 50 519 q 238 759 149 707 q 442 811 326 811 q 642 760 553 811 q 792 615 732 708 q 872 394 851 521 m 285 394 q 313 272 285 325 q 392 190 342 219 q 507 160 442 160 q 630 190 572 160 q 732 272 688 219 q 801 394 776 325 q 732 517 776 464 q 630 601 688 571 q 507 631 572 631 q 392 601 442 631 q 313 517 342 571 q 285 394 285 464 m 554 857 l 554 958 q 633 979 606 958 q 661 1038 661 1000 q 633 1098 661 1076 q 554 1119 606 1119 l 554 1219 q 731 1171 667 1219 q 794 1038 794 1122 q 731 906 794 954 q 554 857 667 857 z "},"å":{"ha":1119,"x_min":50,"x_max":1051,"o":"m 811 0 l 778 289 l 815 394 l 778 499 l 811 790 l 1051 790 l 1006 394 l 1051 0 l 811 0 m 872 394 q 791 176 850 269 q 642 31 732 82 q 442 -21 553 -21 q 238 31 326 -21 q 99 177 149 83 q 50 394 50 271 q 99 613 50 519 q 238 759 149 707 q 442 811 326 811 q 642 760 553 811 q 792 615 732 708 q 872 394 851 521 m 285 394 q 313 272 285 325 q 392 190 342 219 q 507 160 442 160 q 630 190 572 160 q 732 272 688 219 q 801 394 776 325 q 732 517 776 464 q 630 601 688 571 q 507 631 572 631 q 392 601 442 631 q 313 517 342 571 q 285 394 285 464 m 553 857 q 376 906 442 857 q 311 1039 311 954 q 376 1171 311 1122 q 553 1219 442 1219 q 731 1171 667 1219 q 794 1039 794 1122 q 731 906 794 954 q 553 857 667 857 m 553 958 q 633 979 604 958 q 661 1038 661 1000 q 633 1099 661 1078 q 553 1119 606 1119 q 474 1099 503 1119 q 446 1038 446 1078 q 474 979 446 1000 q 553 958 503 958 z "},"ǻ":{"ha":1119,"x_min":50,"x_max":1051,"o":"m 560 1436 l 775 1436 l 635 1194 l 461 1194 l 560 1436 m 811 0 l 778 289 l 815 394 l 778 499 l 811 790 l 1051 790 l 1006 394 l 1051 0 l 811 0 m 872 394 q 791 176 850 269 q 642 31 732 82 q 442 -21 553 -21 q 238 31 326 -21 q 99 177 149 83 q 50 394 50 271 q 99 613 50 519 q 238 759 149 707 q 442 811 326 811 q 642 760 553 811 q 792 615 732 708 q 872 394 851 521 m 285 394 q 313 272 285 325 q 392 190 342 219 q 507 160 442 160 q 630 190 572 160 q 732 272 688 219 q 801 394 776 325 q 732 517 776 464 q 630 601 688 571 q 507 631 572 631 q 392 601 442 631 q 313 517 342 571 q 285 394 285 464 m 554 857 q 377 906 442 857 q 313 1038 313 954 q 377 1171 313 1122 q 554 1219 442 1219 q 731 1171 667 1219 q 794 1038 794 1122 q 731 906 794 954 q 554 857 667 857 m 554 958 q 633 979 606 958 q 661 1038 661 1000 q 633 1098 661 1076 q 554 1119 606 1119 q 476 1098 504 1119 q 447 1038 447 1076 q 476 979 447 1000 q 554 958 504 958 z "},"ḁ":{"ha":1119,"x_min":50,"x_max":1051,"o":"m 811 0 l 778 289 l 815 394 l 778 499 l 811 790 l 1051 790 l 1006 394 l 1051 0 l 811 0 m 872 394 q 791 176 850 269 q 642 31 732 82 q 442 -21 553 -21 q 238 31 326 -21 q 99 177 149 83 q 50 394 50 271 q 99 613 50 519 q 238 759 149 707 q 442 811 326 811 q 642 760 553 811 q 792 615 732 708 q 872 394 851 521 m 285 394 q 313 272 285 325 q 392 190 342 219 q 507 160 442 160 q 630 190 572 160 q 732 272 688 219 q 801 394 776 325 q 732 517 776 464 q 630 601 688 571 q 507 631 572 631 q 392 601 442 631 q 313 517 342 571 q 285 394 285 464 m 554 -421 q 378 -372 443 -421 q 313 -239 313 -324 q 378 -107 313 -156 q 554 -58 443 -58 q 732 -107 668 -58 q 796 -239 796 -156 q 732 -372 796 -324 q 554 -421 668 -421 m 554 -319 q 634 -299 606 -319 q 663 -240 663 -278 q 635 -179 663 -200 q 554 -158 607 -158 q 476 -179 504 -158 q 447 -240 447 -200 q 476 -299 447 -278 q 554 -319 504 -319 z "}}}
